{
.appVersion = "1340";
classes = (
{
automatic = 1;

glyphs = (
{
color = 1;
glyphname = A;
lastChange = "2020-06-16 10:24:20 +0000";
layers = (
{
anchors = (
{
name = bottom;
position = "{283, 0}";
},
{
name = ogonek;
position = "{532, 0}";
},
{
name = top;
position = "{283, 697}";
}
);
layerId = "F91D9E91-C1BC-4259-B0D8-112C0CBA2B8E";
paths = (
{
closed = 1;
nodes = (
"46 0 LINE",
"283 691 LINE",
"520 0 LINE",
"532 0 LINE",
"292 697 LINE",
"273 697 LINE",
"34 0 LINE"
);
},
{
closed = 1;
nodes = (
"453 215 LINE",
"449 225 LINE",
"117 225 LINE",
"113 215 LINE"
);
}
);
width = 567;
},
{
anchors = (
{
name = bottom;
position = "{350, 0}";
},
{
name = ogonek;
position = "{696, 0}";
},
{
name = top;
position = "{350, 697}";
}
);
layerId = "957254E3-B7AD-4837-9092-D4428001DE8E";
paths = (
{
closed = 1;
nodes = (
"173 0 LINE",
"350 463 LINE",
"525 0 LINE",
"696 0 LINE",
"407 697 LINE",
"292 697 LINE",
"2 0 LINE"
);
},
{
closed = 1;
nodes = (
"491 118 LINE",
"440 258 LINE",
"259 258 LINE",
"210 118 LINE"
);
}
);
width = 698;
}
);
leftKerningGroup = A;
note = A;
rightKerningGroup = A;
unicode = 0041;
},
{
color = 1;
glyphname = AE;
lastChange = "2020-06-16 10:24:20 +0000";
layers = (
{
anchors = (
{
name = bottom;
position = "{437, 0}";
},
{
name = top;
position = "{437, 697}";
}
);
layerId = "F91D9E91-C1BC-4259-B0D8-112C0CBA2B8E";
paths = (
{
closed = 1;
nodes = (
"71 0 LINE",
"307 687 LINE",
"395 687 LINE",
"395 0 LINE",
"813 0 LINE",
"813 10 LINE",
"406 10 LINE",
"406 346 LINE",
"758 346 LINE",
"758 357 LINE",
"406 357 LINE",
"406 687 LINE",
"813 687 LINE",
"813 697 LINE",
"298 697 LINE",
"59 0 LINE"
);
},
{
closed = 1;
nodes = (
"401 215 LINE",
"401 225 LINE",
"144 225 LINE",
"140 215 LINE"
);
}
);
width = 873;
},
{
anchors = (
{
name = bottom;
position = "{465, 0}";
},
{
name = top;
position = "{465, 697}";
}
);
layerId = "957254E3-B7AD-4837-9092-D4428001DE8E";
paths = (
{
closed = 1;
nodes = (
"156 0 LINE",
"368 559 LINE",
"396 559 LINE",
"396 0 LINE",
"886 0 LINE",
"886 140 LINE",
"554 140 LINE",
"554 278 LINE",
"847 278 LINE",
"847 418 LINE",
"554 418 LINE",
"554 557 LINE",
"886 557 LINE",
"886 697 LINE",
"274 697 LINE",
"-15 0 LINE"
);
},
{
closed = 1;
nodes = (
"433 118 LINE",
"433 262 LINE",
"226 262 LINE",
"177 118 LINE"
);
}
);
width = 929;
}
);
leftKerningGroup = A;
note = AE;
rightKerningGroup = E;
unicode = 00C6;
},
{
color = 1;
glyphname = B;
lastChange = "2020-06-16 10:24:20 +0000";
layers = (
{
anchors = (
{
name = bottom;
position = "{281, 0}";
},
{
name = top;
position = "{281, 697}";
}
);
layerId = "F91D9E91-C1BC-4259-B0D8-112C0CBA2B8E";
paths = (
{
closed = 1;
nodes = (
"290 0 LINE SMOOTH",
"433 0 OFFCURVE",
"507 62 OFFCURVE",
"507 184 CURVE SMOOTH",
"507 287 OFFCURVE",
"454 353 OFFCURVE",
"363 365 CURVE",
"433 387 OFFCURVE",
"474 446 OFFCURVE",
"474 526 CURVE SMOOTH",
"474 634 OFFCURVE",
"402 697 OFFCURVE",
"280 697 CURVE SMOOTH",
"99 697 LINE",
"99 0 LINE"
);
},
{
closed = 1;
nodes = (
"109 357 LINE",
"331 357 LINE SMOOTH",
"436 357 OFFCURVE",
"497 293 OFFCURVE",
"497 184 CURVE SMOOTH",
"497 68 OFFCURVE",
"428 10 OFFCURVE",
"290 10 CURVE SMOOTH",
"109 10 LINE"
);
},
{
closed = 1;
nodes = (
"109 687 LINE",
"280 687 LINE SMOOTH",
"397 687 OFFCURVE",
"464 628 OFFCURVE",
"464 526 CURVE SMOOTH",
"464 430 OFFCURVE",
"403 367 OFFCURVE",
"310 367 CURVE SMOOTH",
"109 367 LINE"
);
}
);
width = 577;
},
{
anchors = (
{
name = bottom;
position = "{298, 0}";
},
{
name = top;
position = "{298, 697}";
}
);
layerId = "957254E3-B7AD-4837-9092-D4428001DE8E";
paths = (
{
closed = 1;
nodes = (
"356 0 LINE SMOOTH",
"498 0 OFFCURVE",
"586 80 OFFCURVE",
"586 209 CURVE SMOOTH",
"586 290 OFFCURVE",
"553 347 OFFCURVE",
"480 379 CURVE",
"523 409 OFFCURVE",
"548 459 OFFCURVE",
"548 520 CURVE SMOOTH",
"548 630 OFFCURVE",
"462 697 OFFCURVE",
"319 697 CURVE SMOOTH",
"59 697 LINE",
"59 0 LINE"
);
},
{
closed = 1;
nodes = (
"216 289 LINE",
"343 289 LINE SMOOTH",
"398 289 OFFCURVE",
"429 263 OFFCURVE",
"429 216 CURVE SMOOTH",
"429 168 OFFCURVE",
"401 144 OFFCURVE",
"343 144 CURVE SMOOTH",
"216 144 LINE"
);
},
{
closed = 1;
nodes = (
"216 553 LINE",
"319 553 LINE SMOOTH",
"365 553 OFFCURVE",
"391 532 OFFCURVE",
"391 495 CURVE SMOOTH",
"391 453 OFFCURVE",
"364 429 OFFCURVE",
"319 429 CURVE SMOOTH",
"216 429 LINE"
);
}
);
width = 619;
}
);
leftKerningGroup = B;
note = B;
rightKerningGroup = B;
unicode = 0042;
},
{
color = 1;
glyphname = C;
lastChange = "2020-06-16 10:24:20 +0000";
layers = (
{
anchors = (
{
name = bottom;
position = "{347, 0}";
},
{
name = top;
position = "{347, 697}";
}
);
layerId = "F91D9E91-C1BC-4259-B0D8-112C0CBA2B8E";
paths = (
{
closed = 1;
nodes = (
"497 -5 OFFCURVE",
"593 61 OFFCURVE",
"636 170 CURVE",
"627 174 LINE",
"585 67 OFFCURVE",
"494 5 OFFCURVE",
"371 5 CURVE SMOOTH",
"192 5 OFFCURVE",
"79 139 OFFCURVE",
"79 349 CURVE SMOOTH",
"79 557 OFFCURVE",
"192 692 OFFCURVE",
"371 692 CURVE SMOOTH",
"494 692 OFFCURVE",
"585 630 OFFCURVE",
"627 523 CURVE",
"636 527 LINE",
"593 636 OFFCURVE",
"497 702 OFFCURVE",
"371 702 CURVE SMOOTH",
"188 702 OFFCURVE",
"69 563 OFFCURVE",
"69 349 CURVE SMOOTH",
"69 134 OFFCURVE",
"188 -5 OFFCURVE",
"371 -5 CURVE SMOOTH"
);
}
);
width = 697;
},
{
anchors = (
{
name = bottom;
position = "{356, 0}";
},
{
name = top;
position = "{356, 697}";
}
);
layerId = "957254E3-B7AD-4837-9092-D4428001DE8E";
paths = (
{
closed = 1;
nodes = (
"526 -18 OFFCURVE",
"642 64 OFFCURVE",
"690 198 CURVE",
"542 251 LINE",
"515 176 OFFCURVE",
"455 132 OFFCURVE",
"373 132 CURVE SMOOTH",
"261 132 OFFCURVE",
"189 213 OFFCURVE",
"189 349 CURVE SMOOTH",
"189 484 OFFCURVE",
"261 565 OFFCURVE",
"373 565 CURVE SMOOTH",
"455 565 OFFCURVE",
"515 521 OFFCURVE",
"542 446 CURVE",
"690 499 LINE",
"642 633 OFFCURVE",
"526 715 OFFCURVE",
"373 715 CURVE SMOOTH",
"171 715 OFFCURVE",
"32 568 OFFCURVE",
"32 349 CURVE SMOOTH",
"32 129 OFFCURVE",
"171 -18 OFFCURVE",
"373 -18 CURVE SMOOTH"
);
}
);
width = 712;
}
);
leftKerningGroup = C;
leftMetricsKey = O;
note = C;
rightKerningGroup = C;
unicode = 0043;
},
{
color = 1;
glyphname = D;
lastChange = "2020-06-16 10:24:20 +0000";
layers = (
{
anchors = (
{
name = bottom;
position = "{339, 0}";
},
{
name = center;
position = "{135, 349}";
},
{
name = top;
position = "{339, 697}";
}
);
layerId = "F91D9E91-C1BC-4259-B0D8-112C0CBA2B8E";
paths = (
{
closed = 1;
nodes = (
"272 0 LINE SMOOTH",
"498 0 OFFCURVE",
"622 122 OFFCURVE",
"622 343 CURVE SMOOTH",
"622 568 OFFCURVE",
"495 697 OFFCURVE",
"273 697 CURVE SMOOTH",
"99 697 LINE",
"99 0 LINE"
);
},
{
closed = 1;
nodes = (
"109 687 LINE",
"273 687 LINE SMOOTH",
"489 687 OFFCURVE",
"611 563 OFFCURVE",
"611 343 CURVE SMOOTH",
"611 127 OFFCURVE",
"492 10 OFFCURVE",
"272 10 CURVE SMOOTH",
"109 10 LINE"
);
}
);
width = 691;
},
{
anchors = (
{
name = bottom;
position = "{322, 0}";
},
{
name = center;
position = "{155, 349}";
},
{
name = top;
position = "{322, 697}";
}
);
layerId = "957254E3-B7AD-4837-9092-D4428001DE8E";
paths = (
{
closed = 1;
nodes = (
"268 0 LINE SMOOTH",
"506 0 OFFCURVE",
"636 121 OFFCURVE",
"636 343 CURVE SMOOTH",
"636 569 OFFCURVE",
"502 697 OFFCURVE",
"269 697 CURVE SMOOTH",
"59 697 LINE",
"59 0 LINE"
);
},
{
closed = 1;
nodes = (
"216 553 LINE",
"266 553 LINE SMOOTH",
"397 553 OFFCURVE",
"478 511 OFFCURVE",
"478 349 CURVE SMOOTH",
"478 181 OFFCURVE",
"394 144 OFFCURVE",
"252 144 CURVE SMOOTH",
"216 144 LINE"
);
}
);
width = 669;
}
);
leftKerningGroup = D;
note = D;
rightKerningGroup = D;
unicode = 0044;
},
{
color = 1;
glyphname = E;
lastChange = "2020-06-16 10:24:20 +0000";
layers = (
{
anchors = (
{
name = bottom;
position = "{323, 0}";
},
{
name = ogonek;
position = "{547, 0}";
},
{
name = top;
position = "{323, 697}";
},
{
name = topleft;
position = "{-10, 697}";
}
);
layerId = "F91D9E91-C1BC-4259-B0D8-112C0CBA2B8E";
paths = (
{
closed = 1;
nodes = (
"547 0 LINE",
"547 10 LINE",
"109 10 LINE",
"109 346 LINE",
"492 346 LINE",
"492 356 LINE",
"109 356 LINE",
"109 687 LINE",
"547 687 LINE",
"547 697 LINE",
"99 697 LINE",
"99 0 LINE"
);
}
);
width = 587;
},
{
anchors = (
{
name = bottom;
position = "{293, 0}";
},
{
name = ogonek;
position = "{527, 0}";
},
{
name = top;
position = "{293, 697}";
},
{
name = topleft;
position = "{2, 697}";
}
);
layerId = "957254E3-B7AD-4837-9092-D4428001DE8E";
paths = (
{
closed = 1;
nodes = (
"527 0 LINE",
"527 140 LINE",
"216 140 LINE",
"216 289 LINE",
"512 289 LINE",
"512 429 LINE",
"216 429 LINE",
"216 557 LINE",
"527 557 LINE",
"527 697 LINE",
"59 697 LINE",
"59 0 LINE"
);
}
);
width = 575;
}
);
leftKerningGroup = E;
note = E;
rightKerningGroup = E;
unicode = 0045;
},
{
color = 1;
glyphname = F;
lastChange = "2020-06-16 10:24:20 +0000";
layers = (
{
anchors = (
{
name = bottom;
position = "{318, 0}";
},
{
name = top;
position = "{318, 697}";
}
);
layerId = "F91D9E91-C1BC-4259-B0D8-112C0CBA2B8E";
paths = (
{
closed = 1;
nodes = (
"109 0 LINE",
"109 346 LINE",
"482 346 LINE",
"482 356 LINE",
"109 356 LINE",
"109 687 LINE",
"537 687 LINE",
"537 697 LINE",
"99 697 LINE",
"99 0 LINE"
);
}
);
width = 568;
},
{
anchors = (
{
name = bottom;
position = "{282, 0}";
},
{
name = top;
position = "{282, 697}";
}
);
layerId = "957254E3-B7AD-4837-9092-D4428001DE8E";
paths = (
{
closed = 1;
nodes = (
"216 0 LINE",
"216 289 LINE",
"490 289 LINE",
"490 429 LINE",
"216 429 LINE",
"216 557 LINE",
"531 557 LINE",
"531 697 LINE",
"59 697 LINE",
"59 0 LINE"
);
}
);
width = 554;
}
);
leftKerningGroup = F;
note = F;
rightKerningGroup = F;
unicode = 0046;
},
{
color = 1;
glyphname = G;
lastChange = "2020-06-16 10:24:20 +0000";
layers = (
{
anchors = (
{
name = bottom;
position = "{371, 0}";
},
{
name = top;
position = "{371, 697}";
}
);
layerId = "F91D9E91-C1BC-4259-B0D8-112C0CBA2B8E";
paths = (
{
closed = 1;
nodes = (
"478 -5 OFFCURVE",
"594 43 OFFCURVE",
"627 179 CURVE",
"626 179 LINE",
"626 0 LINE",
"636 0 LINE",
"636 341 LINE",
"442 341 LINE",
"442 331 LINE",
"630 331 LINE",
"626 335 LINE",
"626 264 LINE SMOOTH",
"626 61 OFFCURVE",
"488 5 OFFCURVE",
"371 5 CURVE SMOOTH",
"192 5 OFFCURVE",
"79 139 OFFCURVE",
"79 349 CURVE SMOOTH",
"79 557 OFFCURVE",
"192 692 OFFCURVE",
"371 692 CURVE SMOOTH",
"494 692 OFFCURVE",
"585 630 OFFCURVE",
"627 523 CURVE",
"636 527 LINE",
"593 636 OFFCURVE",
"497 702 OFFCURVE",
"371 702 CURVE SMOOTH",
"188 702 OFFCURVE",
"69 563 OFFCURVE",
"69 349 CURVE SMOOTH",
"69 134 OFFCURVE",
"188 -5 OFFCURVE",
"371 -5 CURVE SMOOTH"
);
}
);
width = 722;
},
{
anchors = (
{
name = bottom;
position = "{373, 0}";
},
{
name = top;
position = "{373, 697}";
}
);
layerId = "957254E3-B7AD-4837-9092-D4428001DE8E";
paths = (
{
closed = 1;
nodes = (
"452 -18 OFFCURVE",
"518 17 OFFCURVE",
"557 76 CURVE",
"530 98 LINE",
"552 0 LINE",
"690 0 LINE",
"690 387 LINE",
"383 387 LINE",
"383 247 LINE",
"586 247 LINE",
"551 357 LINE",
"551 324 LINE SMOOTH",
"551 168 OFFCURVE",
"452 132 OFFCURVE",
"373 132 CURVE SMOOTH",
"261 132 OFFCURVE",
"189 213 OFFCURVE",
"189 349 CURVE SMOOTH",
"189 484 OFFCURVE",
"261 565 OFFCURVE",
"373 565 CURVE SMOOTH",
"455 565 OFFCURVE",
"515 521 OFFCURVE",
"542 446 CURVE",
"690 499 LINE",
"642 633 OFFCURVE",
"526 715 OFFCURVE",
"373 715 CURVE SMOOTH",
"171 715 OFFCURVE",
"32 568 OFFCURVE",
"32 349 CURVE SMOOTH",
"32 129 OFFCURVE",
"171 -18 OFFCURVE",
"363 -18 CURVE SMOOTH"
);
}
);
width = 737;
}
);
leftKerningGroup = C;
leftMetricsKey = O;
note = G;
rightKerningGroup = G;
unicode = 0047;
},
{
color = 1;
glyphname = H;
lastChange = "2020-06-16 10:24:20 +0000";
layers = (
{
anchors = (
{
name = bottom;
position = "{323, 0}";
},
{
name = center;
position = "{323, 538}";
},
{
name = top;
position = "{323, 697}";
},
{
name = topleft;
position = "{-10, 697}";
}
);
layerId = "F91D9E91-C1BC-4259-B0D8-112C0CBA2B8E";
paths = (
{
closed = 1;
nodes = (
"109 0 LINE",
"109 347 LINE",
"536 347 LINE",
"536 0 LINE",
"546 0 LINE",
"546 697 LINE",
"536 697 LINE",
"536 358 LINE",
"109 358 LINE",
"109 697 LINE",
"99 697 LINE",
"99 0 LINE"
);
}
);
width = 645;
},
{
anchors = (
{
name = bottom;
position = "{353, 0}";
},
{
name = center;
position = "{352, 557}";
},
{
name = top;
position = "{352, 697}";
},
{
name = topleft;
position = "{2, 697}";
}
);
layerId = "957254E3-B7AD-4837-9092-D4428001DE8E";
paths = (
{
closed = 1;
nodes = (
"216 0 LINE",
"216 288 LINE",
"487 288 LINE",
"487 0 LINE",
"644 0 LINE",
"644 697 LINE",
"487 697 LINE",
"487 432 LINE",
"216 432 LINE",
"216 697 LINE",
"59 697 LINE",
"59 0 LINE"
);
}
);
width = 703;
}
);
leftKerningGroup = H;
note = H;
rightKerningGroup = H;
unicode = 0048;
},
{
color = 1;
glyphname = I;
lastChange = "2020-06-16 10:24:20 +0000";
layers = (
{
anchors = (
{
name = bottom;
position = "{104, 0}";
},
{
name = ogonek;
position = "{109, 0}";
},
{
name = top;
position = "{104, 697}";
},
{
name = topleft;
position = "{-10, 697}";
}
);
layerId = "F91D9E91-C1BC-4259-B0D8-112C0CBA2B8E";
paths = (
{
closed = 1;
nodes = (
"109 0 LINE",
"109 697 LINE",
"99 697 LINE",
"99 0 LINE"
);
}
);
width = 209;
},
{
anchors = (
{
name = bottom;
position = "{138, 0}";
},
{
name = ogonek;
position = "{216, 0}";
},
{
name = top;
position = "{138, 697}";
},
{
name = topleft;
position = "{2, 697}";
}
);
layerId = "957254E3-B7AD-4837-9092-D4428001DE8E";
paths = (
{
closed = 1;
nodes = (
"216 0 LINE",
"216 697 LINE",
"59 697 LINE",
"59 0 LINE"
);
}
);
width = 275;
}
);
leftKerningGroup = I;
note = I;
rightKerningGroup = H;
unicode = 0049;
},
{
color = 1;
glyphname = J;
lastChange = "2020-06-16 10:24:20 +0000";
layers = (
{
anchors = (
{
name = bottom;
position = "{274, 0}";
},
{
name = top;
position = "{294, 697}";
}
);
layerId = "F91D9E91-C1BC-4259-B0D8-112C0CBA2B8E";
paths = (
{
closed = 1;
nodes = (
"381 -5 OFFCURVE",
"451 85 OFFCURVE",
"451 257 CURVE SMOOTH",
"451 697 LINE",
"137 697 LINE",
"137 687 LINE",
"441 687 LINE",
"441 257 LINE SMOOTH",
"441 91 OFFCURVE",
"375 5 OFFCURVE",
"248 5 CURVE SMOOTH",
"133 5 OFFCURVE",
"57 75 OFFCURVE",
"49 190 CURVE",
"39 190 LINE",
"48 69 OFFCURVE",
"127 -5 OFFCURVE",
"248 -5 CURVE SMOOTH"
);
}
);
width = 543;
},
{
anchors = (
{
name = bottom;
position = "{290, 0}";
},
{
name = top;
position = "{300, 697}";
}
);
layerId = "957254E3-B7AD-4837-9092-D4428001DE8E";
paths = (
{
closed = 1;
nodes = (
"408 -18 OFFCURVE",
"504 81 OFFCURVE",
"504 238 CURVE SMOOTH",
"504 697 LINE",
"95 697 LINE",
"95 557 LINE",
"346 557 LINE",
"346 247 LINE SMOOTH",
"346 174 OFFCURVE",
"328 127 OFFCURVE",
"260 127 CURVE SMOOTH",
"202 127 OFFCURVE",
"176 158 OFFCURVE",
"171 242 CURVE",
"16 225 LINE",
"26 72 OFFCURVE",
"120 -18 OFFCURVE",
"260 -18 CURVE SMOOTH"
);
}
);
width = 558;
}
);
leftKerningGroup = J;
note = J;
rightKerningGroup = J;
unicode = 004A;
},
{
color = 1;
glyphname = K;
lastChange = "2020-06-16 10:24:20 +0000";
layers = (
{
anchors = (
{
name = bottom;
position = "{289, 0}";
},
{
name = top;
position = "{289, 697}";
}
);
layerId = "F91D9E91-C1BC-4259-B0D8-112C0CBA2B8E";
paths = (
{
closed = 1;
nodes = (
"541 697 LINE",
"527 697 LINE",
"104 259 LINE",
"104 244 LINE"
);
},
{
closed = 1;
nodes = (
"109 0 LINE",
"109 697 LINE",
"99 697 LINE",
"99 0 LINE"
);
},
{
closed = 1;
nodes = (
"544 0 LINE",
"273 427 LINE",
"266 420 LINE",
"532 0 LINE"
);
}
);
width = 578;
},
{
anchors = (
{
name = bottom;
position = "{341, 0}";
},
{
name = top;
position = "{341, 697}";
}
);
layerId = "957254E3-B7AD-4837-9092-D4428001DE8E";
paths = (
{
closed = 1;
nodes = (
"675 697 LINE",
"464 697 LINE",
"185 400 LINE",
"185 202 LINE"
);
},
{
closed = 1;
nodes = (
"216 0 LINE",
"216 697 LINE",
"59 697 LINE",
"59 0 LINE"
);
},
{
closed = 1;
nodes = (
"677 0 LINE",
"398 444 LINE",
"281 335 LINE",
"491 0 LINE"
);
}
);
width = 682;
},
{
anchors = (
{
name = bottom;
position = "{341, 0}";
},
{
name = top;
position = "{341, 697}";
}
);
associatedMasterId = "957254E3-B7AD-4837-9092-D4428001DE8E";
background = {
components = (
{
name = N;
}
);
};
layerId = "F968A8DC-D019-4222-91C6-E363B258DEC7";
name = "Black [700]";
paths = (
{
closed = 1;
nodes = (
"675 697 LINE",
"461 697 LINE",
"185 408 LINE",
"185 202 LINE"
);
},
{
closed = 1;
nodes = (
"216 0 LINE",
"216 697 LINE",
"59 697 LINE",
"59 0 LINE"
);
},
{
closed = 1;
nodes = (
"677 0 LINE",
"398 444 LINE",
"282 335 LINE",
"491 0 LINE"
);
}
);
width = 682;
}
);
leftKerningGroup = K;
note = K;
rightKerningGroup = K;
unicode = 004B;
},
{
color = 1;
glyphname = L;
lastChange = "2020-06-16 10:24:20 +0000";
layers = (
{
anchors = (
{
name = bottom;
position = "{274, 0}";
},
{
name = center;
position = "{169, 379}";
},
{
name = top;
position = "{104, 697}";
},
{
name = topright;
position = "{385, 493}";
}
);
layerId = "F91D9E91-C1BC-4259-B0D8-112C0CBA2B8E";
paths = (
{
closed = 1;
nodes = (
"449 0 LINE",
"449 10 LINE",
"109 10 LINE",
"109 697 LINE",
"99 697 LINE",
"99 0 LINE"
);
}
);
width = 470;
},
{
anchors = (
{
name = bottom;
position = "{281, 0}";
},
{
name = center;
position = "{156, 323}";
},
{
name = top;
position = "{138, 697}";
},
{
name = topright;
position = "{432, 493}";
}
);
layerId = "957254E3-B7AD-4837-9092-D4428001DE8E";
paths = (
{
closed = 1;
nodes = (
"502 0 LINE",
"502 140 LINE",
"216 140 LINE",
"216 697 LINE",
"59 697 LINE",
"59 0 LINE"
);
}
);
width = 510;
}
);
leftKerningGroup = L;
note = L;
rightKerningGroup = L;
unicode = 004C;
},
{
color = 1;
glyphname = M;
lastChange = "2020-06-16 10:24:20 +0000";
layers = (
{
anchors = (
{
name = bottom;
position = "{401, 0}";
},
{
name = top;
position = "{401, 697}";
}
);
layerId = "F91D9E91-C1BC-4259-B0D8-112C0CBA2B8E";
paths = (
{
closed = 1;
nodes = (
"109 0 LINE",
"109 687 LINE",
"111 687 LINE",
"395 54 LINE",
"406 54 LINE",
"690 687 LINE",
"692 687 LINE",
"692 0 LINE",
"702 0 LINE",
"702 697 LINE",
"684 697 LINE",
"399 61 LINE",
"403 61 LINE",
"117 697 LINE",
"99 697 LINE",
"99 0 LINE"
);
}
);
width = 801;
},
{
anchors = (
{
name = bottom;
position = "{434, 0}";
},
{
name = top;
position = "{434, 697}";
}
);
layerId = "957254E3-B7AD-4837-9092-D4428001DE8E";
paths = (
{
closed = 1;
nodes = (
"216 0 LINE",
"216 540 LINE",
"191 540 LINE",
"358 63 LINE",
"509 63 LINE",
"675 540 LINE",
"651 540 LINE",
"651 0 LINE",
"808 0 LINE",
"808 697 LINE",
"569 697 LINE",
"393 156 LINE",
"470 156 LINE",
"288 697 LINE",
"59 697 LINE",
"59 0 LINE"
);
}
);
width = 868;
}
);
leftKerningGroup = M;
note = M;
rightKerningGroup = H;
unicode = 004D;
},
{
color = 1;
glyphname = N;
lastChange = "2020-06-16 10:24:20 +0000";
layers = (
{
anchors = (
{
name = bottom;
position = "{314, 0}";
},
{
name = top;
position = "{314, 697}";
}
);
layerId = "F91D9E91-C1BC-4259-B0D8-112C0CBA2B8E";
paths = (
{
closed = 1;
nodes = (
"109 0 LINE",
"109 687 LINE",
"111 687 LINE",
"527 0 LINE",
"546 0 LINE",
"546 697 LINE",
"536 697 LINE",
"536 10 LINE",
"533 10 LINE",
"117 697 LINE",
"99 697 LINE",
"99 0 LINE"
);
}
);
width = 645;
},
{
anchors = (
{
name = bottom;
position = "{350, 0}";
},
{
name = top;
position = "{350, 697}";
}
);
layerId = "957254E3-B7AD-4837-9092-D4428001DE8E";
paths = (
{
closed = 1;
nodes = (
"216 0 LINE",
"216 492 LINE",
"176 492 LINE",
"478 0 LINE",
"639 0 LINE",
"639 697 LINE",
"482 697 LINE",
"482 206 LINE",
"523 206 LINE",
"219 697 LINE",
"59 697 LINE",
"59 0 LINE"
);
}
);
width = 698;
}
);
leftKerningGroup = N;
leftMetricsKey = H;
note = N;
rightKerningGroup = H;
rightMetricsKey = H;
unicode = 004E;
},
{
color = 1;
glyphname = Eng;
lastChange = "2020-06-16 10:24:20 +0000";
layers = (
{
layerId = "F91D9E91-C1BC-4259-B0D8-112C0CBA2B8E";
paths = (
{
closed = 1;
nodes = (
"508 -158 OFFCURVE",
"546 -109 OFFCURVE",
"546 -28 CURVE SMOOTH",
"546 697 LINE",
"536 697 LINE",
"536 10 LINE",
"533 10 LINE",
"117 697 LINE",
"99 697 LINE",
"99 0 LINE",
"109 0 LINE",
"109 687 LINE",
"111 687 LINE",
"527 0 LINE SMOOTH",
"530 -6 OFFCURVE",
"536 -14 OFFCURVE",
"536 -35 CURVE SMOOTH",
"536 -93 OFFCURVE",
"509 -147 OFFCURVE",
"428 -147 CURVE SMOOTH",
"411 -147 OFFCURVE",
"381 -141 OFFCURVE",
"359 -132 CURVE",
"355 -142 LINE",
"377 -151 OFFCURVE",
"409 -158 OFFCURVE",
"428 -158 CURVE SMOOTH"
);
}
);
width = 645;
},
{
layerId = "957254E3-B7AD-4837-9092-D4428001DE8E";
paths = (
{
closed = 1;
nodes = (
"593 -189 OFFCURVE",
"639 -89 OFFCURVE",
"639 8 CURVE SMOOTH",
"639 697 LINE",
"482 697 LINE",
"482 225 LINE",
"518 225 LINE",
"219 697 LINE",
"59 697 LINE",
"59 0 LINE",
"216 0 LINE",
"216 475 LINE",
"180 475 LINE",
"478 0 LINE SMOOTH",
"488 -16 OFFCURVE",
"489 -31 OFFCURVE",
"489 -39 CURVE SMOOTH",
"489 -65 OFFCURVE",
"462 -87 OFFCURVE",
"410 -87 CURVE SMOOTH",
"401 -87 OFFCURVE",
"392 -87 OFFCURVE",
"383 -87 CURVE",
"383 -186 LINE",
"411 -189 OFFCURVE",
"431 -189 OFFCURVE",
"453 -189 CURVE SMOOTH"
);
}
);
width = 698;
}
);
leftKerningGroup = N;
leftMetricsKey = H;
note = Eng;
rightKerningGroup = H;
rightMetricsKey = H;
unicode = 014A;
},
{
glyphname = Nhookleft;
lastChange = "2020-06-16 10:24:20 +0000";
layers = (
{
anchors = (
{
name = bottom;
position = "{344, 0}";
},
{
name = top;
position = "{344, 697}";
}
);
layerId = "F91D9E91-C1BC-4259-B0D8-112C0CBA2B8E";
paths = (
{
closed = 1;
nodes = (
"139 0 LINE",
"139 687 LINE",
"141 687 LINE",
"557 0 LINE",
"576 0 LINE",
"576 697 LINE",
"566 697 LINE",
"566 10 LINE",
"563 10 LINE",
"147 697 LINE",
"129 697 LINE",
"129 0 LINE"
);
},
{
closed = 1;
nodes = (
"101 -158 OFFCURVE",
"139 -109 OFFCURVE",
"139 -28 CURVE SMOOTH",
"139 0 LINE",
"129 0 LINE",
"129 -6 OFFCURVE",
"129 -14 OFFCURVE",
"129 -35 CURVE SMOOTH",
"129 -93 OFFCURVE",
"102 -147 OFFCURVE",
"21 -147 CURVE",
"21 -158 LINE"
);
}
);
width = 675;
},
{
anchors = (
{
name = bottom;
position = "{361, 0}";
},
{
name = top;
position = "{361, 697}";
}
);
layerId = "957254E3-B7AD-4837-9092-D4428001DE8E";
paths = (
{
closed = 1;
nodes = (
"228 0 LINE",
"228 475 LINE",
"192 475 LINE",
"490 0 LINE",
"651 0 LINE",
"651 697 LINE",
"494 697 LINE",
"494 225 LINE",
"530 225 LINE",
"231 697 LINE",
"71 697 LINE",
"71 0 LINE"
);
},
{
closed = 1;
nodes = (
"168 -189 OFFCURVE",
"228 -107 OFFCURVE",
"228 -26 CURVE SMOOTH",
"228 0 LINE",
"71 0 LINE",
"71 -16 OFFCURVE",
"71 -23 OFFCURVE",
"71 -31 CURVE SMOOTH",
"71 -54 OFFCURVE",
"55 -87 OFFCURVE",
"3 -87 CURVE",
"3 -189 LINE"
);
}
);
width = 710;
}
);
leftKerningGroup = N;
rightKerningGroup = H;
rightMetricsKey = N;
unicode = 019D;
},
{
color = 1;
glyphname = O;
lastChange = "2020-06-16 10:24:20 +0000";
layers = (
{
anchors = (
{
name = bottom;
position = "{372, 0}";
},
{
name = center;
position = "{372, 349}";
},
{
name = ogonek;
position = "{430, 0}";
},
{
name = top;
position = "{372, 697}";
},
{
name = topleft;
position = "{3, 697}";
},
{
name = topright;
position = "{701, 493}";
}
);
layerId = "F91D9E91-C1BC-4259-B0D8-112C0CBA2B8E";
paths = (
{
closed = 1;
nodes = (
"556 -5 OFFCURVE",
"675 134 OFFCURVE",
"675 348 CURVE SMOOTH",
"675 562 OFFCURVE",
"555 702 OFFCURVE",
"371 702 CURVE SMOOTH",
"188 702 OFFCURVE",
"69 563 OFFCURVE",
"69 348 CURVE SMOOTH",
"69 134 OFFCURVE",
"188 -5 OFFCURVE",
"371 -5 CURVE SMOOTH"
);
},
{
closed = 1;
nodes = (
"192 5 OFFCURVE",
"79 138 OFFCURVE",
"79 348 CURVE SMOOTH",
"79 559 OFFCURVE",
"192 692 OFFCURVE",
"371 692 CURVE SMOOTH",
"551 692 OFFCURVE",
"665 559 OFFCURVE",
"665 348 CURVE SMOOTH",
"665 138 OFFCURVE",
"551 5 OFFCURVE",
"371 5 CURVE SMOOTH"
);
}
);
width = 744;
},
{
anchors = (
{
name = bottom;
position = "{374, 0}";
},
{
name = center;
position = "{374, 349}";
},
{
name = ogonek;
position = "{461, 0}";
},
{
name = top;
position = "{373, 697}";
},
{
name = topleft;
position = "{23, 697}";
},
{
name = topright;
position = "{684, 493}";
}
);
layerId = "957254E3-B7AD-4837-9092-D4428001DE8E";
paths = (
{
closed = 1;
nodes = (
"575 -18 OFFCURVE",
"715 128 OFFCURVE",
"715 348 CURVE SMOOTH",
"715 569 OFFCURVE",
"577 715 OFFCURVE",
"373 715 CURVE SMOOTH",
"171 715 OFFCURVE",
"32 568 OFFCURVE",
"32 348 CURVE SMOOTH",
"32 129 OFFCURVE",
"171 -18 OFFCURVE",
"373 -18 CURVE SMOOTH"
);
},
{
closed = 1;
nodes = (
"261 132 OFFCURVE",
"189 213 OFFCURVE",
"189 348 CURVE SMOOTH",
"189 484 OFFCURVE",
"261 565 OFFCURVE",
"373 565 CURVE SMOOTH",
"486 565 OFFCURVE",
"557 482 OFFCURVE",
"557 348 CURVE SMOOTH",
"557 215 OFFCURVE",
"486 132 OFFCURVE",
"373 132 CURVE SMOOTH"
);
}
);
width = 747;
}
);
leftKerningGroup = C;
note = O;
rightKerningGroup = O;
unicode = 004F;
},
{
color = 1;
glyphname = P;
lastChange = "2020-06-16 10:24:20 +0000";
layers = (
{
anchors = (
{
name = bottom;
position = "{263, 0}";
},
{
name = top;
position = "{263, 697}";
}
);
layerId = "F91D9E91-C1BC-4259-B0D8-112C0CBA2B8E";
paths = (
{
closed = 1;
nodes = (
"109 0 LINE",
"109 321 LINE",
"264 321 LINE SMOOTH",
"404 321 OFFCURVE",
"486 390 OFFCURVE",
"486 508 CURVE SMOOTH",
"486 627 OFFCURVE",
"403 697 OFFCURVE",
"264 697 CURVE SMOOTH",
"99 697 LINE",
"99 0 LINE"
);
},
{
closed = 1;
nodes = (
"109 687 LINE",
"264 687 LINE SMOOTH",
"398 687 OFFCURVE",
"476 621 OFFCURVE",
"476 508 CURVE SMOOTH",
"476 396 OFFCURVE",
"398 331 OFFCURVE",
"264 331 CURVE SMOOTH",
"109 331 LINE"
);
}
);
width = 536;
},
{
anchors = (
{
name = bottom;
position = "{268, 0}";
},
{
name = top;
position = "{268, 697}";
}
);
layerId = "957254E3-B7AD-4837-9092-D4428001DE8E";
paths = (
{
closed = 1;
nodes = (
"215 0 LINE",
"215 280 LINE",
"304 280 LINE SMOOTH",
"463 280 OFFCURVE",
"546 353 OFFCURVE",
"546 492 CURVE SMOOTH",
"546 630 OFFCURVE",
"465 697 OFFCURVE",
"304 697 CURVE SMOOTH",
"59 697 LINE",
"59 0 LINE"
);
},
{
closed = 1;
nodes = (
"215 557 LINE",
"288 557 LINE SMOOTH",
"357 557 OFFCURVE",
"389 543 OFFCURVE",
"389 490 CURVE SMOOTH",
"389 434 OFFCURVE",
"352 420 OFFCURVE",
"288 420 CURVE SMOOTH",
"215 420 LINE"
);
}
);
width = 567;
}
);
leftKerningGroup = P;
note = P;
rightKerningGroup = P;
unicode = 0050;
},
{
color = 1;
glyphname = Thorn;
lastChange = "2020-06-16 10:24:20 +0000";
layers = (
{
anchors = (
{
name = bottom;
position = "{293, 0}";
},
{
name = top;
position = "{293, 697}";
}
);
layerId = "F91D9E91-C1BC-4259-B0D8-112C0CBA2B8E";
paths = (
{
closed = 1;
nodes = (
"139 0 LINE",
"139 216 LINE",
"294 216 LINE SMOOTH",
"434 216 OFFCURVE",
"516 285 OFFCURVE",
"516 403 CURVE SMOOTH",
"516 522 OFFCURVE",
"433 592 OFFCURVE",
"294 592 CURVE SMOOTH",
"139 592 LINE",
"139 697 LINE",
"129 697 LINE",
"129 0 LINE"
);
},
{
closed = 1;
nodes = (
"139 582 LINE",
"294 582 LINE SMOOTH",
"428 582 OFFCURVE",
"506 516 OFFCURVE",
"506 403 CURVE SMOOTH",
"506 291 OFFCURVE",
"428 226 OFFCURVE",
"294 226 CURVE SMOOTH",
"139 226 LINE"
);
}
);
width = 585;
},
{
anchors = (
{
name = bottom;
position = "{273, 0}";
},
{
name = top;
position = "{273, 697}";
}
);
layerId = "957254E3-B7AD-4837-9092-D4428001DE8E";
paths = (
{
closed = 1;
nodes = (
"214 0 LINE",
"214 191 LINE",
"297 191 LINE SMOOTH",
"453 191 OFFCURVE",
"544 270 OFFCURVE",
"544 404 CURVE SMOOTH",
"544 530 OFFCURVE",
"465 603 OFFCURVE",
"332 603 CURVE SMOOTH",
"214 603 LINE",
"214 697 LINE",
"71 697 LINE",
"71 0 LINE"
);
},
{
closed = 1;
nodes = (
"214 481 LINE",
"297 481 LINE SMOOTH",
"361 481 OFFCURVE",
"401 460 OFFCURVE",
"401 399 CURVE SMOOTH",
"401 340 OFFCURVE",
"361 321 OFFCURVE",
"297 321 CURVE SMOOTH",
"214 321 LINE"
);
}
);
width = 548;
}
);
leftKerningGroup = B;
note = Thorn;
rightKerningGroup = Thorn;
unicode = 00DE;
},
{
color = 1;
glyphname = Q;
lastChange = "2020-06-16 10:24:20 +0000";
layers = (
{
anchors = (
{
name = bottom;
position = "{377, 0}";
},
{
name = top;
position = "{377, 697}";
}
);
layerId = "F91D9E91-C1BC-4259-B0D8-112C0CBA2B8E";
paths = (
{
closed = 1;
nodes = (
"556 -5 OFFCURVE",
"675 134 OFFCURVE",
"675 348 CURVE SMOOTH",
"675 562 OFFCURVE",
"555 702 OFFCURVE",
"371 702 CURVE SMOOTH",
"188 702 OFFCURVE",
"69 563 OFFCURVE",
"69 348 CURVE SMOOTH",
"69 134 OFFCURVE",
"188 -5 OFFCURVE",
"371 -5 CURVE SMOOTH"
);
},
{
closed = 1;
nodes = (
"680 -20 LINE",
"436 222 LINE",
"429 215 LINE",
"673 -27 LINE"
);
},
{
closed = 1;
nodes = (
"192 5 OFFCURVE",
"79 138 OFFCURVE",
"79 348 CURVE SMOOTH",
"79 559 OFFCURVE",
"192 692 OFFCURVE",
"371 692 CURVE SMOOTH",
"551 692 OFFCURVE",
"665 559 OFFCURVE",
"665 348 CURVE SMOOTH",
"665 138 OFFCURVE",
"551 5 OFFCURVE",
"371 5 CURVE SMOOTH"
);
}
);
width = 748;
},
{
anchors = (
{
name = bottom;
position = "{390, 0}";
},
{
name = top;
position = "{390, 697}";
}
);
layerId = "957254E3-B7AD-4837-9092-D4428001DE8E";
paths = (
{
closed = 1;
nodes = (
"575 -18 OFFCURVE",
"715 128 OFFCURVE",
"715 348 CURVE SMOOTH",
"715 569 OFFCURVE",
"577 715 OFFCURVE",
"373 715 CURVE SMOOTH",
"171 715 OFFCURVE",
"32 568 OFFCURVE",
"32 348 CURVE SMOOTH",
"32 128 OFFCURVE",
"172 -18 OFFCURVE",
"373 -18 CURVE SMOOTH"
);
},
{
closed = 1;
nodes = (
"761 29 LINE",
"464 318 LINE",
"373 221 LINE",
"667 -62 LINE"
);
},
{
closed = 1;
nodes = (
"261 132 OFFCURVE",
"189 213 OFFCURVE",
"189 348 CURVE SMOOTH",
"189 484 OFFCURVE",
"261 565 OFFCURVE",
"373 565 CURVE SMOOTH",
"486 565 OFFCURVE",
"557 482 OFFCURVE",
"557 348 CURVE SMOOTH",
"557 215 OFFCURVE",
"486 132 OFFCURVE",
"373 132 CURVE SMOOTH"
);
}
);
width = 779;
}
);
leftKerningGroup = C;
note = Q;
rightKerningGroup = Q;
unicode = 0051;
},
{
color = 1;
glyphname = R;
lastChange = "2020-06-16 10:24:20 +0000";
layers = (
{
anchors = (
{
name = bottom;
position = "{279, 0}";
},
{
name = top;
position = "{279, 697}";
}
);
layerId = "F91D9E91-C1BC-4259-B0D8-112C0CBA2B8E";
paths = (
{
closed = 1;
nodes = (
"109 0 LINE",
"109 331 LINE",
"264 331 LINE SMOOTH",
"284 331 OFFCURVE",
"303 332 OFFCURVE",
"320 334 CURVE",
"429 352 OFFCURVE",
"486 414 OFFCURVE",
"486 513 CURVE SMOOTH",
"486 631 OFFCURVE",
"406 697 OFFCURVE",
"264 697 CURVE SMOOTH",
"99 697 LINE",
"99 0 LINE"
);
},
{
closed = 1;
nodes = (
"520 0 LINE",
"327 338 LINE",
"316 336 LINE",
"509 0 LINE"
);
},
{
closed = 1;
nodes = (
"109 687 LINE",
"264 687 LINE SMOOTH",
"400 687 OFFCURVE",
"476 625 OFFCURVE",
"476 513 CURVE SMOOTH",
"476 402 OFFCURVE",
"401 341 OFFCURVE",
"264 341 CURVE SMOOTH",
"109 341 LINE"
);
}
);
width = 570;
},
{
anchors = (
{
name = bottom;
position = "{295, 0}";
},
{
name = top;
position = "{295, 697}";
}
);
layerId = "957254E3-B7AD-4837-9092-D4428001DE8E";
paths = (
{
closed = 1;
nodes = (
"217 0 LINE",
"217 279 LINE",
"231 279 LINE SMOOTH",
"251 279 OFFCURVE",
"289 279 OFFCURVE",
"326 279 CURVE",
"466 286 OFFCURVE",
"547 355 OFFCURVE",
"547 491 CURVE SMOOTH",
"547 615 OFFCURVE",
"481 697 OFFCURVE",
"305 697 CURVE SMOOTH",
"60 697 LINE",
"60 0 LINE"
);
},
{
closed = 1;
nodes = (
"611 0 LINE",
"420 313 LINE",
"252 294 LINE",
"427 0 LINE"
);
},
{
closed = 1;
nodes = (
"217 557 LINE",
"289 557 LINE SMOOTH",
"338 557 OFFCURVE",
"390 553 OFFCURVE",
"390 489 CURVE SMOOTH",
"390 424 OFFCURVE",
"339 417 OFFCURVE",
"289 417 CURVE SMOOTH",
"217 417 LINE"
);
}
);
width = 623;
},
{
anchors = (
{
name = bottom;
position = "{295, 0}";
},
{
name = top;
position = "{295, 697}";
}
);
associatedMasterId = "957254E3-B7AD-4837-9092-D4428001DE8E";
background = {
paths = (
{
closed = 1;
nodes = (
"404 300 LINE",
"500 326 OFFCURVE",
"552 398 OFFCURVE",
"552 493 CURVE SMOOTH",
"552 614 OFFCURVE",
"488 697 OFFCURVE",
"315 697 CURVE SMOOTH",
"87 697 LINE",
"87 0 LINE",
"211 0 LINE",
"211 289 LINE",
"272 289 LINE SMOOTH",
"288 289 OFFCURVE",
"301 289 OFFCURVE",
"319 289 CURVE"
);
},
{
closed = 1;
nodes = (
"211 580 LINE",
"314 580 LINE SMOOTH",
"400 580 OFFCURVE",
"427 549 OFFCURVE",
"427 493 CURVE SMOOTH",
"427 437 OFFCURVE",
"400 406 OFFCURVE",
"314 406 CURVE SMOOTH",
"211 406 LINE"
);
}
);
};
layerId = "E561E4B1-6B16-43FA-BF71-9BF1A19691CC";
name = "Black [700]";
paths = (
{
closed = 1;
nodes = (
"217 0 LINE",
"217 277 LINE",
"231 277 LINE SMOOTH",
"251 277 OFFCURVE",
"289 277 OFFCURVE",
"326 277 CURVE",
"466 284 OFFCURVE",
"547 355 OFFCURVE",
"547 491 CURVE SMOOTH",
"547 615 OFFCURVE",
"481 697 OFFCURVE",
"305 697 CURVE SMOOTH",
"60 697 LINE",
"60 0 LINE"
);
},
{
closed = 1;
nodes = (
"613 0 LINE",
"421 313 LINE",
"260 294 LINE",
"431 0 LINE"
);
},
{
closed = 1;
nodes = (
"217 557 LINE",
"289 557 LINE SMOOTH",
"338 557 OFFCURVE",
"390 553 OFFCURVE",
"390 489 CURVE SMOOTH",
"390 424 OFFCURVE",
"339 417 OFFCURVE",
"289 417 CURVE SMOOTH",
"217 417 LINE"
);
}
);
width = 623;
}
);
leftKerningGroup = R;
note = R;
rightKerningGroup = R;
unicode = 0052;
},
{
color = 1;
glyphname = S;
lastChange = "2020-06-16 10:24:20 +0000";
layers = (
{
anchors = (
{
name = bottom;
position = "{271, 0}";
},
{
name = top;
position = "{271, 697}";
}
);
layerId = "F91D9E91-C1BC-4259-B0D8-112C0CBA2B8E";
paths = (
{
closed = 1;
nodes = (
"395 -5 OFFCURVE",
"481 73 OFFCURVE",
"481 181 CURVE SMOOTH",
"481 298 OFFCURVE",
"380 336 OFFCURVE",
"282 373 CURVE SMOOTH",
"190 408 OFFCURVE",
"102 440 OFFCURVE",
"102 539 CURVE SMOOTH",
"102 626 OFFCURVE",
"171 692 OFFCURVE",
"276 692 CURVE SMOOTH",
"352 692 OFFCURVE",
"407 658 OFFCURVE",
"444 594 CURVE",
"452 600 LINE",
"414 666 OFFCURVE",
"355 702 OFFCURVE",
"276 702 CURVE SMOOTH",
"166 702 OFFCURVE",
"92 632 OFFCURVE",
"92 539 CURVE SMOOTH",
"92 437 OFFCURVE",
"181 401 OFFCURVE",
"273 366 CURVE SMOOTH",
"371 329 OFFCURVE",
"471 294 OFFCURVE",
"471 180 CURVE SMOOTH",
"471 79 OFFCURVE",
"390 5 OFFCURVE",
"272 5 CURVE SMOOTH",
"163 5 OFFCURVE",
"84 69 OFFCURVE",
"66 175 CURVE",
"56 173 LINE",
"75 63 OFFCURVE",
"158 -5 OFFCURVE",
"272 -5 CURVE SMOOTH"
);
}
);
width = 542;
},
{
anchors = (
{
name = bottom;
position = "{291, 0}";
},
{
name = top;
position = "{291, 697}";
}
);
layerId = "957254E3-B7AD-4837-9092-D4428001DE8E";
paths = (
{
closed = 1;
nodes = (
"453 -15 OFFCURVE",
"553 76 OFFCURVE",
"553 204 CURVE SMOOTH",
"553 313 OFFCURVE",
"488 373 OFFCURVE",
"355 423 CURVE SMOOTH",
"254 461 OFFCURVE",
"228 486 OFFCURVE",
"228 520 CURVE SMOOTH",
"228 553 OFFCURVE",
"258 576 OFFCURVE",
"294 576 CURVE SMOOTH",
"334 576 OFFCURVE",
"368 550 OFFCURVE",
"394 504 CURVE",
"519 580 LINE",
"474 670 OFFCURVE",
"396 715 OFFCURVE",
"299 715 CURVE SMOOTH",
"162 715 OFFCURVE",
"71 633 OFFCURVE",
"71 517 CURVE SMOOTH",
"71 410 OFFCURVE",
"131 346 OFFCURVE",
"274 291 CURVE SMOOTH",
"363 257 OFFCURVE",
"397 234 OFFCURVE",
"397 194 CURVE SMOOTH",
"397 149 OFFCURVE",
"357 124 OFFCURVE",
"306 124 CURVE SMOOTH",
"236 124 OFFCURVE",
"188 163 OFFCURVE",
"174 243 CURVE",
"21 205 LINE",
"42 72 OFFCURVE",
"146 -15 OFFCURVE",
"301 -15 CURVE SMOOTH"
);
}
);
width = 583;
}
);
leftKerningGroup = S;
note = S;
rightKerningGroup = S;
unicode = 0053;
},
{
color = 1;
glyphname = Germandbls;
lastChange = "2020-06-16 10:24:20 +0000";
layers = (
{
anchors = (
{
name = bottom;
position = "{344, 0}";
},
{
name = top;
position = "{344, 697}";
}
);
layerId = "F91D9E91-C1BC-4259-B0D8-112C0CBA2B8E";
paths = (
{
closed = 1;
nodes = (
"109 0 LINE",
"109 687 LINE",
"597 687 LINE",
"597 697 LINE",
"99 697 LINE",
"99 0 LINE"
);
},
{
closed = 1;
nodes = (
"540 -5 OFFCURVE",
"626 73 OFFCURVE",
"626 181 CURVE SMOOTH",
"626 298 OFFCURVE",
"525 336 OFFCURVE",
"427 373 CURVE SMOOTH",
"335 408 OFFCURVE",
"247 440 OFFCURVE",
"247 539 CURVE SMOOTH",
"247 626 OFFCURVE",
"316 687 OFFCURVE",
"421 687 CURVE",
"421 697 LINE",
"311 697 OFFCURVE",
"237 632 OFFCURVE",
"237 539 CURVE SMOOTH",
"237 437 OFFCURVE",
"326 401 OFFCURVE",
"418 366 CURVE SMOOTH",
"516 329 OFFCURVE",
"616 294 OFFCURVE",
"616 180 CURVE SMOOTH",
"616 79 OFFCURVE",
"535 5 OFFCURVE",
"417 5 CURVE SMOOTH",
"308 5 OFFCURVE",
"229 69 OFFCURVE",
"211 175 CURVE",
"201 173 LINE",
"220 63 OFFCURVE",
"303 -5 OFFCURVE",
"417 -5 CURVE SMOOTH"
);
}
);
width = 687;
},
{
anchors = (
{
name = bottom;
position = "{413, 0}";
},
{
name = top;
position = "{413, 697}";
}
);
layerId = "957254E3-B7AD-4837-9092-D4428001DE8E";
paths = (
{
closed = 1;
nodes = (
"216 0 LINE",
"216 557 LINE",
"760 557 LINE",
"760 697 LINE",
"59 697 LINE",
"59 0 LINE"
);
},
{
closed = 1;
nodes = (
"685 -15 OFFCURVE",
"795 78 OFFCURVE",
"795 206 CURVE SMOOTH",
"795 315 OFFCURVE",
"730 363 OFFCURVE",
"597 423 CURVE SMOOTH",
"499 467 OFFCURVE",
"470 486 OFFCURVE",
"470 540 CURVE SMOOTH",
"470 557 OFFCURVE",
"470 573 OFFCURVE",
"470 590 CURVE",
"313 590 LINE",
"313 573 OFFCURVE",
"313 557 OFFCURVE",
"313 540 CURVE SMOOTH",
"313 410 OFFCURVE",
"369 358 OFFCURVE",
"516 295 CURVE SMOOTH",
"607 256 OFFCURVE",
"639 234 OFFCURVE",
"639 192 CURVE SMOOTH",
"639 149 OFFCURVE",
"597 124 OFFCURVE",
"546 124 CURVE SMOOTH",
"476 124 OFFCURVE",
"426 162 OFFCURVE",
"419 244 CURVE",
"263 205 LINE",
"284 72 OFFCURVE",
"398 -15 OFFCURVE",
"543 -15 CURVE SMOOTH"
);
}
);
width = 825;
}
);
leftMetricsKey = I;
rightMetricsKey = S;
unicode = 1E9E;
},
{
glyphname = Schwa;
lastChange = "2020-06-16 10:24:20 +0000";
layers = (
{
anchors = (
{
name = bottom;
position = "{353, 0}";
},
{
name = top;
position = "{353, 697}";
}
);
layerId = "F91D9E91-C1BC-4259-B0D8-112C0CBA2B8E";
paths = (
{
closed = 1;
nodes = (
"551 -5 OFFCURVE",
"657 124 OFFCURVE",
"657 351 CURVE SMOOTH",
"657 577 OFFCURVE",
"549 702 OFFCURVE",
"354 702 CURVE SMOOTH",
"222 702 OFFCURVE",
"137 645 OFFCURVE",
"91 525 CURVE",
"101 522 LINE",
"145 639 OFFCURVE",
"226 692 OFFCURVE",
"354 692 CURVE SMOOTH",
"545 692 OFFCURVE",
"647 571 OFFCURVE",
"647 351 CURVE SMOOTH",
"647 131 OFFCURVE",
"545 5 OFFCURVE",
"363 5 CURVE SMOOTH",
"181 5 OFFCURVE",
"79 131 OFFCURVE",
"79 351 CURVE",
"69 351 LINE",
"69 124 OFFCURVE",
"175 -5 OFFCURVE",
"363 -5 CURVE SMOOTH"
);
},
{
closed = 1;
nodes = (
"656 341 LINE",
"656 351 LINE",
"75 351 LINE",
"75 341 LINE"
);
}
);
width = 726;
},
{
anchors = (
{
name = bottom;
position = "{380, 0}";
},
{
name = top;
position = "{380, 697}";
}
);
layerId = "957254E3-B7AD-4837-9092-D4428001DE8E";
paths = (
{
closed = 1;
nodes = (
"594 -18 OFFCURVE",
"734 127 OFFCURVE",
"734 348 CURVE SMOOTH",
"734 571 OFFCURVE",
"595 717 OFFCURVE",
"386 717 CURVE SMOOTH",
"230 717 OFFCURVE",
"115 637 OFFCURVE",
"64 505 CURVE",
"209 448 LINE",
"236 527 OFFCURVE",
"301 567 OFFCURVE",
"386 567 CURVE SMOOTH",
"506 567 OFFCURVE",
"577 489 OFFCURVE",
"577 350 CURVE SMOOTH",
"577 211 OFFCURVE",
"504 132 OFFCURVE",
"383 132 CURVE SMOOTH",
"262 132 OFFCURVE",
"189 211 OFFCURVE",
"189 351 CURVE",
"32 351 LINE",
"32 127 OFFCURVE",
"172 -18 OFFCURVE",
"383 -18 CURVE SMOOTH"
);
},
{
closed = 1;
nodes = (
"693 231 LINE",
"693 351 LINE",
"112 351 LINE",
"112 231 LINE"
);
}
);
width = 766;
}
);
leftKerningGroup = C;
leftMetricsKey = O;
rightKerningGroup = D;
rightMetricsKey = O;
unicode = 018F;
},
{
color = 1;
glyphname = T;
lastChange = "2020-06-16 10:24:20 +0000";
layers = (
{
anchors = (
{
name = bottom;
position = "{294, 0}";
},
{
name = center;
position = "{294, 349}";
},
{
name = top;
position = "{294, 697}";
}
);
layerId = "F91D9E91-C1BC-4259-B0D8-112C0CBA2B8E";
paths = (
{
closed = 1;
nodes = (
"299 0 LINE",
"299 687 LINE",
"567 687 LINE",
"567 697 LINE",
"21 697 LINE",
"21 687 LINE",
"289 687 LINE",
"289 0 LINE"
);
}
);
width = 589;
},
{
anchors = (
{
name = bottom;
position = "{291, 0}";
},
{
name = center;
position = "{291, 349}";
},
{
name = top;
position = "{291, 697}";
}
);
layerId = "957254E3-B7AD-4837-9092-D4428001DE8E";
paths = (
{
closed = 1;
nodes = (
"371 0 LINE",
"371 557 LINE",
"574 557 LINE",
"574 697 LINE",
"8 697 LINE",
"8 557 LINE",
"212 557 LINE",
"212 0 LINE"
);
}
);
width = 583;
}
);
leftKerningGroup = T;
note = T;
rightKerningGroup = T;
unicode = 0054;
},
{
color = 1;
glyphname = U;
lastChange = "2020-06-16 10:24:20 +0000";
layers = (
{
anchors = (
{
name = bottom;
position = "{323, 0}";
},
{
name = ogonek;
position = "{376, 0}";
},
{
name = top;
position = "{323, 697}";
},
{
name = topright;
position = "{611, 493}";
}
);
layerId = "F91D9E91-C1BC-4259-B0D8-112C0CBA2B8E";
paths = (
{
closed = 1;
nodes = (
"472 -5 OFFCURVE",
"556 89 OFFCURVE",
"556 257 CURVE SMOOTH",
"556 697 LINE",
"546 697 LINE",
"546 257 LINE SMOOTH",
"546 95 OFFCURVE",
"466 5 OFFCURVE",
"322 5 CURVE SMOOTH",
"179 5 OFFCURVE",
"101 93 OFFCURVE",
"101 252 CURVE SMOOTH",
"101 697 LINE",
"91 697 LINE",
"91 252 LINE SMOOTH",
"91 87 OFFCURVE",
"174 -5 OFFCURVE",
"322 -5 CURVE SMOOTH"
);
}
);
width = 647;
},
{
anchors = (
{
name = bottom;
position = "{330, 0}";
},
{
name = ogonek;
position = "{425, 0}";
},
{
name = top;
position = "{330, 697}";
},
{
name = topright;
position = "{678, 493}";
}
);
layerId = "957254E3-B7AD-4837-9092-D4428001DE8E";
paths = (
{
closed = 1;
nodes = (
"511 -18 OFFCURVE",
"605 72 OFFCURVE",
"605 257 CURVE SMOOTH",
"605 697 LINE",
"448 697 LINE",
"448 268 LINE SMOOTH",
"448 174 OFFCURVE",
"429 126 OFFCURVE",
"329 126 CURVE SMOOTH",
"228 126 OFFCURVE",
"210 173 OFFCURVE",
"210 270 CURVE SMOOTH",
"210 697 LINE",
"53 697 LINE",
"53 252 LINE SMOOTH",
"53 70 OFFCURVE",
"146 -18 OFFCURVE",
"329 -18 CURVE SMOOTH"
);
}
);
width = 658;
}
);
leftKerningGroup = U;
note = U;
rightKerningGroup = J;
unicode = 0055;
},
{
color = 1;
glyphname = V;
lastChange = "2020-06-16 10:24:20 +0000";
layers = (
{
anchors = (
{
name = bottom;
position = "{313, 0}";
},
{
name = top;
position = "{313, 697}";
}
);
layerId = "F91D9E91-C1BC-4259-B0D8-112C0CBA2B8E";
paths = (
{
closed = 1;
nodes = (
"321 0 LINE",
"594 697 LINE",
"583 697 LINE",
"315 10 LINE",
"311 10 LINE",
"43 697 LINE",
"32 697 LINE",
"305 0 LINE"
);
}
);
width = 626;
},
{
anchors = (
{
name = bottom;
position = "{341, 0}";
},
{
name = top;
position = "{341, 697}";
}
);
layerId = "957254E3-B7AD-4837-9092-D4428001DE8E";
paths = (
{
closed = 1;
nodes = (
"398 0 LINE",
"678 697 LINE",
"504 697 LINE",
"316 193 LINE",
"367 193 LINE",
"175 697 LINE",
"2 697 LINE",
"283 0 LINE"
);
}
);
width = 680;
}
);
leftKerningGroup = V;
note = V;
rightKerningGroup = V;
unicode = 0056;
},
{
color = 1;
glyphname = W;
lastChange = "2020-06-16 10:24:20 +0000";
layers = (
{
anchors = (
{
name = bottom;
position = "{456, 0}";
},
{
name = top;
position = "{456, 697}";
}
);
layerId = "F91D9E91-C1BC-4259-B0D8-112C0CBA2B8E";
paths = (
{
closed = 1;
nodes = (
"248 0 LINE",
"457 651 LINE",
"455 651 LINE",
"663 0 LINE",
"679 0 LINE",
"872 697 LINE",
"861 697 LINE",
"671 9 LINE",
"462 663 LINE",
"449 663 LINE",
"240 9 LINE",
"50 697 LINE",
"39 697 LINE",
"232 0 LINE"
);
}
);
width = 911;
},
{
anchors = (
{
name = bottom;
position = "{497, 0}";
},
{
name = top;
position = "{497, 697}";
}
);
layerId = "957254E3-B7AD-4837-9092-D4428001DE8E";
paths = (
{
closed = 1;
nodes = (
"371 0 LINE",
"510 468 LINE",
"484 468 LINE",
"623 0 LINE",
"774 0 LINE",
"987 697 LINE",
"823 697 LINE",
"689 242 LINE",
"574 655 LINE",
"420 655 LINE",
"305 242 LINE",
"171 697 LINE",
"7 697 LINE",
"220 0 LINE"
);
}
);
width = 994;
}
);
leftKerningGroup = W;
note = W;
rightKerningGroup = W;
unicode = 0057;
},
{
color = 1;
glyphname = X;
lastChange = "2020-06-16 10:24:20 +0000";
layers = (
{
anchors = (
{
name = bottom;
position = "{295, 0}";
},
{
name = top;
position = "{295, 697}";
}
);
layerId = "F91D9E91-C1BC-4259-B0D8-112C0CBA2B8E";
paths = (
{
closed = 1;
nodes = (
"47 0 LINE",
"294 345 LINE",
"542 0 LINE",
"554 0 LINE",
"300 355 LINE",
"546 697 LINE",
"534 697 LINE",
"294 363 LINE",
"55 697 LINE",
"43 697 LINE",
"288 355 LINE",
"35 0 LINE"
);
}
);
width = 590;
},
{
anchors = (
{
name = bottom;
position = "{344, 0}";
},
{
name = top;
position = "{344, 697}";
}
);
layerId = "957254E3-B7AD-4837-9092-D4428001DE8E";
paths = (
{
closed = 1;
nodes = (
"196 0 LINE",
"343 233 LINE",
"492 0 LINE",
"680 0 LINE",
"452 346 LINE",
"680 697 LINE",
"493 697 LINE",
"344 455 LINE",
"195 697 LINE",
"7 697 LINE",
"235 346 LINE",
"8 0 LINE"
);
}
);
width = 687;
}
);
leftKerningGroup = X;
note = X;
rightKerningGroup = X;
unicode = 0058;
},
{
color = 1;
glyphname = Y;
lastChange = "2020-06-16 10:24:20 +0000";
layers = (
{
anchors = (
{
name = bottom;
position = "{277, 0}";
},
{
name = top;
position = "{277, 697}";
},
{
name = topleft;
position = "{20, 697}";
}
);
layerId = "F91D9E91-C1BC-4259-B0D8-112C0CBA2B8E";
paths = (
{
closed = 1;
nodes = (
"282 0 LINE",
"282 261 LINE",
"530 697 LINE",
"518 697 LINE",
"277 273 LINE",
"36 697 LINE",
"24 697 LINE",
"272 261 LINE",
"272 0 LINE"
);
}
);
width = 554;
},
{
anchors = (
{
name = bottom;
position = "{319, 0}";
},
{
name = top;
position = "{319, 697}";
},
{
name = topleft;
position = "{20, 697}";
}
);
layerId = "957254E3-B7AD-4837-9092-D4428001DE8E";
paths = (
{
closed = 1;
nodes = (
"398 0 LINE",
"398 275 LINE",
"639 697 LINE",
"461 697 LINE",
"316 431 LINE",
"176 697 LINE",
"-3 697 LINE",
"241 275 LINE",
"241 0 LINE"
);
}
);
width = 636;
}
);
leftKerningGroup = Y;
note = Y;
rightKerningGroup = Y;
unicode = 0059;
},
{
color = 1;
glyphname = Z;
lastChange = "2020-06-16 10:24:20 +0000";
layers = (
{
anchors = (
{
name = bottom;
position = "{264, 0}";
},
{
name = center;
position = "{264, 349}";
},
{
name = top;
position = "{264, 697}";
}
);
layerId = "F91D9E91-C1BC-4259-B0D8-112C0CBA2B8E";
paths = (
{
closed = 1;
nodes = (
"492 0 LINE",
"492 10 LINE",
"43 10 LINE",
"43 12 LINE",
"483 682 LINE",
"483 697 LINE",
"58 697 LINE",
"58 687 LINE",
"474 687 LINE",
"474 686 LINE",
"34 16 LINE",
"34 0 LINE"
);
}
);
width = 528;
},
{
anchors = (
{
name = bottom;
position = "{313, 0}";
},
{
name = center;
position = "{313, 349}";
},
{
name = top;
position = "{313, 697}";
}
);
layerId = "957254E3-B7AD-4837-9092-D4428001DE8E";
paths = (
{
closed = 1;
nodes = (
"594 0 LINE",
"594 140 LINE",
"175 140 LINE",
"197 108 LINE",
"580 569 LINE",
"580 697 LINE",
"47 697 LINE",
"47 557 LINE",
"445 557 LINE",
"421 607 LINE",
"24 127 LINE",
"24 0 LINE"
);
}
);
width = 614;
}
);
leftKerningGroup = Z;
note = Z;
rightKerningGroup = Z;
unicode = 005A;
},
{
color = 1;
glyphname = a;
lastChange = "2020-06-16 10:24:20 +0000";
layers = (
{
anchors = (
{
name = bottom;
position = "{269, 0}";
},
{
name = ogonek;
position = "{440, 0}";
},
{
name = top;
position = "{269, 493}";
}
);
layerId = "F91D9E91-C1BC-4259-B0D8-112C0CBA2B8E";
paths = (
{
closed = 1;
nodes = (
"440 0 LINE",
"440 303 LINE SMOOTH",
"440 432 OFFCURVE",
"379 498 OFFCURVE",
"261 498 CURVE SMOOTH",
"184 498 OFFCURVE",
"131 470 OFFCURVE",
"83 403 CURVE",
"91 397 LINE",
"136 461 OFFCURVE",
"187 488 OFFCURVE",
"261 488 CURVE SMOOTH",
"374 488 OFFCURVE",
"430 426 OFFCURVE",
"430 303 CURVE SMOOTH",
"430 145 LINE",
"430 0 LINE"
);
},
{
closed = 1;
nodes = (
"344 -5 OFFCURVE",
"438 89 OFFCURVE",
"438 215 CURVE",
"430 218 LINE",
"430 96 OFFCURVE",
"339 5 OFFCURVE",
"219 5 CURVE SMOOTH",
"131 5 OFFCURVE",
"74 56 OFFCURVE",
"74 135 CURVE SMOOTH",
"74 178 OFFCURVE",
"93 212 OFFCURVE",
"128 233 CURVE SMOOTH",
"162 253 OFFCURVE",
"215 264 OFFCURVE",
"281 264 CURVE SMOOTH",
"434 264 LINE",
"434 274 LINE",
"281 274 LINE SMOOTH",
"213 274 OFFCURVE",
"159 263 OFFCURVE",
"123 242 CURVE SMOOTH",
"84 219 OFFCURVE",
"64 182 OFFCURVE",
"64 134 CURVE SMOOTH",
"64 49 OFFCURVE",
"123 -5 OFFCURVE",
"218 -5 CURVE SMOOTH"
);
}
);
width = 524;
},
{
anchors = (
{
name = bottom;
position = "{276, 0}";
},
{
name = ogonek;
position = "{502, 0}";
},
{
name = top;
position = "{276, 493}";
}
);
layerId = "957254E3-B7AD-4837-9092-D4428001DE8E";
paths = (
{
closed = 1;
nodes = (
"502 0 LINE",
"502 313 LINE SMOOTH",
"502 430 OFFCURVE",
"418 504 OFFCURVE",
"278 504 CURVE SMOOTH",
"192 504 OFFCURVE",
"101 476 OFFCURVE",
"39 411 CURVE",
"148 320 LINE",
"192 362 OFFCURVE",
"230 373 OFFCURVE",
"267 373 CURVE SMOOTH",
"322 373 OFFCURVE",
"352 348 OFFCURVE",
"352 313 CURVE SMOOTH",
"352 58 LINE",
"364 0 LINE"
);
},
{
closed = 1;
nodes = (
"317 -11 OFFCURVE",
"387 1 OFFCURVE",
"429 229 CURVE",
"352 199 LINE",
"352 147 OFFCURVE",
"305 109 OFFCURVE",
"249 109 CURVE SMOOTH",
"210 109 OFFCURVE",
"185 128 OFFCURVE",
"185 156 CURVE SMOOTH",
"185 168 OFFCURVE",
"190 178 OFFCURVE",
"200 185 CURVE SMOOTH",
"209 191 OFFCURVE",
"222 194 OFFCURVE",
"238 194 CURVE SMOOTH",
"364 194 LINE",
"364 311 LINE",
"216 311 LINE SMOOTH",
"167 311 OFFCURVE",
"124 300 OFFCURVE",
"92 277 CURVE SMOOTH",
"56 252 OFFCURVE",
"34 212 OFFCURVE",
"34 159 CURVE SMOOTH",
"34 58 OFFCURVE",
"114 -11 OFFCURVE",
"236 -11 CURVE SMOOTH"
);
}
);
width = 550;
},
{
anchors = (
{
name = bottom;
position = "{276, 0}";
},
{
name = ogonek;
position = "{502, 0}";
},
{
name = top;
position = "{276, 493}";
}
);
associatedMasterId = "957254E3-B7AD-4837-9092-D4428001DE8E";
layerId = "C2350910-A9E7-4B6C-90A6-9A85867E0587";
name = "Black [700]";
paths = (
{
closed = 1;
nodes = (
"502 0 LINE",
"502 313 LINE SMOOTH",
"502 430 OFFCURVE",
"418 504 OFFCURVE",
"278 504 CURVE SMOOTH",
"192 504 OFFCURVE",
"101 476 OFFCURVE",
"39 411 CURVE",
"148 320 LINE",
"192 362 OFFCURVE",
"230 373 OFFCURVE",
"267 373 CURVE SMOOTH",
"322 373 OFFCURVE",
"352 348 OFFCURVE",
"352 313 CURVE SMOOTH",
"352 58 LINE",
"364 0 LINE"
);
},
{
closed = 1;
nodes = (
"271 -11 OFFCURVE",
"344 1 OFFCURVE",
"382 102 CURVE",
"352 199 LINE",
"352 147 OFFCURVE",
"305 110 OFFCURVE",
"249 110 CURVE SMOOTH",
"210 110 OFFCURVE",
"185 128 OFFCURVE",
"185 156 CURVE SMOOTH",
"185 168 OFFCURVE",
"190 178 OFFCURVE",
"200 185 CURVE SMOOTH",
"209 191 OFFCURVE",
"222 194 OFFCURVE",
"238 194 CURVE SMOOTH",
"364 194 LINE",
"364 305 LINE",
"216 305 LINE SMOOTH",
"172 305 OFFCURVE",
"133 297 OFFCURVE",
"102 280 CURVE SMOOTH",
"60 257 OFFCURVE",
"34 216 OFFCURVE",
"34 159 CURVE SMOOTH",
"34 58 OFFCURVE",
"114 -11 OFFCURVE",
"225 -11 CURVE SMOOTH"
);
}
);
width = 550;
},
{
anchors = (
{
name = bottom;
position = "{269, 0}";
},
{
name = ogonek;
position = "{440, 0}";
},
{
name = top;
position = "{269, 493}";
}
);
associatedMasterId = "F91D9E91-C1BC-4259-B0D8-112C0CBA2B8E";
layerId = "5952EF43-970C-43BE-BB77-D77F552620CE";
name = "Thin [700]";
paths = (
{
closed = 1;
nodes = (
"440 0 LINE",
"440 303 LINE SMOOTH",
"440 432 OFFCURVE",
"379 498 OFFCURVE",
"261 498 CURVE SMOOTH",
"184 498 OFFCURVE",
"131 470 OFFCURVE",
"83 403 CURVE",
"91 397 LINE",
"136 461 OFFCURVE",
"187 488 OFFCURVE",
"261 488 CURVE SMOOTH",
"374 488 OFFCURVE",
"430 426 OFFCURVE",
"430 303 CURVE SMOOTH",
"430 145 LINE",
"430 0 LINE"
);
},
{
closed = 1;
nodes = (
"344 -5 OFFCURVE",
"438 89 OFFCURVE",
"438 215 CURVE",
"430 218 LINE",
"430 96 OFFCURVE",
"339 5 OFFCURVE",
"219 5 CURVE SMOOTH",
"131 5 OFFCURVE",
"74 56 OFFCURVE",
"74 135 CURVE SMOOTH",
"74 178 OFFCURVE",
"93 212 OFFCURVE",
"128 233 CURVE SMOOTH",
"162 253 OFFCURVE",
"215 264 OFFCURVE",
"281 264 CURVE SMOOTH",
"434 264 LINE",
"434 274 LINE",
"281 274 LINE SMOOTH",
"213 274 OFFCURVE",
"159 263 OFFCURVE",
"123 242 CURVE SMOOTH",
"84 219 OFFCURVE",
"64 182 OFFCURVE",
"64 134 CURVE SMOOTH",
"64 49 OFFCURVE",
"123 -5 OFFCURVE",
"218 -5 CURVE SMOOTH"
);
}
);
width = 524;
}
);
leftKerningGroup = a;
note = a;
rightKerningGroup = a;
unicode = 0061;
},
{
color = 1;
glyphname = ae;
lastChange = "2020-06-16 10:24:20 +0000";
layers = (
{
anchors = (
{
name = bottom;
position = "{442, 0}";
},
{
name = top;
position = "{442, 493}";
}
);
layerId = "F91D9E91-C1BC-4259-B0D8-112C0CBA2B8E";
paths = (
{
closed = 1;
nodes = (
"306 -5 OFFCURVE",
"392 36 OFFCURVE",
"424 192 CURVE",
"426 192 LINE",
"443 71 OFFCURVE",
"521 -5 OFFCURVE",
"633 -5 CURVE SMOOTH",
"709 -5 OFFCURVE",
"755 14 OFFCURVE",
"812 70 CURVE",
"804 78 LINE",
"750 23 OFFCURVE",
"707 5 OFFCURVE",
"633 5 CURVE SMOOTH",
"512 5 OFFCURVE",
"433 95 OFFCURVE",
"433 251 CURVE",
"821 251 LINE",
"823 259 OFFCURVE",
"824 278 OFFCURVE",
"824 291 CURVE SMOOTH",
"824 376 OFFCURVE",
"775 498 OFFCURVE",
"625 498 CURVE SMOOTH",
"529 498 OFFCURVE",
"458 431 OFFCURVE",
"432 327 CURVE",
"425 438 OFFCURVE",
"364 498 OFFCURVE",
"254 498 CURVE SMOOTH",
"176 498 OFFCURVE",
"124 471 OFFCURVE",
"76 403 CURVE",
"84 397 LINE",
"130 462 OFFCURVE",
"179 488 OFFCURVE",
"254 488 CURVE SMOOTH",
"366 488 OFFCURVE",
"423 425 OFFCURVE",
"423 303 CURVE SMOOTH",
"423 274 LINE",
"274 274 LINE SMOOTH",
"129 274 OFFCURVE",
"57 227 OFFCURVE",
"57 134 CURVE SMOOTH",
"57 48 OFFCURVE",
"119 -5 OFFCURVE",
"218 -5 CURVE SMOOTH"
);
},
{
closed = 1;
nodes = (
"124 5 OFFCURVE",
"67 55 OFFCURVE",
"67 134 CURVE SMOOTH",
"67 221 OFFCURVE",
"134 264 OFFCURVE",
"274 264 CURVE SMOOTH",
"423 264 LINE",
"423 243 LINE",
"403 62 OFFCURVE",
"312 5 OFFCURVE",
"218 5 CURVE SMOOTH"
);
},
{
closed = 1;
nodes = (
"439 396 OFFCURVE",
"516 488 OFFCURVE",
"625 488 CURVE SMOOTH",
"769 488 OFFCURVE",
"814 374 OFFCURVE",
"814 291 CURVE SMOOTH",
"814 282 OFFCURVE",
"813 270 OFFCURVE",
"812 261 CURVE",
"433 261 LINE"
);
}
);
width = 884;
},
{
anchors = (
{
name = bottom;
position = "{401, 0}";
},
{
name = top;
position = "{401, 493}";
}
);
layerId = "957254E3-B7AD-4837-9092-D4428001DE8E";
paths = (
{
closed = 1;
nodes = (
"265 -11 OFFCURVE",
"314 5 OFFCURVE",
"370 59 CURVE",
"386 59 LINE",
"425 11 OFFCURVE",
"477 -11 OFFCURVE",
"552 -11 CURVE SMOOTH",
"635 -11 OFFCURVE",
"700 3 OFFCURVE",
"766 81 CURVE",
"661 173 LINE",
"636 144 OFFCURVE",
"601 128 OFFCURVE",
"555 128 CURVE SMOOTH",
"496 128 OFFCURVE",
"480 155 OFFCURVE",
"472 194 CURVE",
"780 194 LINE",
"782 215 OFFCURVE",
"783 235 OFFCURVE",
"783 254 CURVE SMOOTH",
"783 403 OFFCURVE",
"720 498 OFFCURVE",
"559 498 CURVE SMOOTH",
"509 498 OFFCURVE",
"468 489 OFFCURVE",
"427 467 CURVE",
"391 490 OFFCURVE",
"336 504 OFFCURVE",
"266 504 CURVE SMOOTH",
"171 504 OFFCURVE",
"93 478 OFFCURVE",
"23 411 CURVE",
"132 320 LINE",
"170 363 OFFCURVE",
"218 373 OFFCURVE",
"250 373 CURVE SMOOTH",
"300 373 OFFCURVE",
"332 350 OFFCURVE",
"332 313 CURVE SMOOTH",
"332 299 LINE",
"241 299 LINE SMOOTH",
"202 299 OFFCURVE",
"11 314 OFFCURVE",
"11 154 CURVE SMOOTH",
"11 60 OFFCURVE",
"77 -11 OFFCURVE",
"203 -11 CURVE SMOOTH"
);
},
{
closed = 1;
nodes = (
"184 117 OFFCURVE",
"166 132 OFFCURVE",
"166 151 CURVE SMOOTH",
"166 167 OFFCURVE",
"180 191 OFFCURVE",
"250 191 CURVE SMOOTH",
"341 191 LINE",
"332 195 LINE",
"332 160 OFFCURVE",
"295 117 OFFCURVE",
"222 117 CURVE SMOOTH"
);
},
{
closed = 1;
nodes = (
"470 331 OFFCURVE",
"489 373 OFFCURVE",
"559 373 CURVE SMOOTH",
"590 373 OFFCURVE",
"613 365 OFFCURVE",
"627 351 CURVE SMOOTH",
"640 339 OFFCURVE",
"645 321 OFFCURVE",
"645 303 CURVE",
"470 303 LINE"
);
}
);
width = 801;
}
);
leftKerningGroup = a;
note = ae;
rightKerningGroup = e;
unicode = 00E6;
},
{
color = 1;
glyphname = c;
lastChange = "2020-06-16 10:24:20 +0000";
layers = (
{
anchors = (
{
name = bottom;
position = "{253, 0}";
},
{
name = top;
position = "{253, 493}";
}
);
layerId = "F91D9E91-C1BC-4259-B0D8-112C0CBA2B8E";
paths = (
{
closed = 1;
nodes = (
"356 -5 OFFCURVE",
"421 40 OFFCURVE",
"450 120 CURVE",
"439 124 LINE",
"413 48 OFFCURVE",
"352 5 OFFCURVE",
"272 5 CURVE SMOOTH",
"142 5 OFFCURVE",
"77 117 OFFCURVE",
"77 245 CURVE SMOOTH",
"77 373 OFFCURVE",
"141 488 OFFCURVE",
"271 488 CURVE SMOOTH",
"347 488 OFFCURVE",
"411 444 OFFCURVE",
"444 369 CURVE",
"455 373 LINE",
"419 452 OFFCURVE",
"353 498 OFFCURVE",
"271 498 CURVE SMOOTH",
"135 498 OFFCURVE",
"67 375 OFFCURVE",
"67 245 CURVE SMOOTH",
"67 97 OFFCURVE",
"150 -5 OFFCURVE",
"272 -5 CURVE SMOOTH"
);
}
);
width = 510;
},
{
anchors = (
{
name = bottom;
position = "{262, 0}";
},
{
name = top;
position = "{262, 493}";
}
);
layerId = "957254E3-B7AD-4837-9092-D4428001DE8E";
paths = (
{
closed = 1;
nodes = (
"384 -11 OFFCURVE",
"463 38 OFFCURVE",
"500 139 CURVE",
"369 191 LINE",
"355 150 OFFCURVE",
"330 120 OFFCURVE",
"280 120 CURVE SMOOTH",
"210 120 OFFCURVE",
"183 184 OFFCURVE",
"183 247 CURVE SMOOTH",
"183 309 OFFCURVE",
"210 373 OFFCURVE",
"280 373 CURVE SMOOTH",
"330 373 OFFCURVE",
"355 343 OFFCURVE",
"369 302 CURVE",
"500 354 LINE",
"463 455 OFFCURVE",
"384 504 OFFCURVE",
"280 504 CURVE SMOOTH",
"112 504 OFFCURVE",
"32 375 OFFCURVE",
"32 247 CURVE SMOOTH",
"32 118 OFFCURVE",
"112 -11 OFFCURVE",
"280 -11 CURVE SMOOTH"
);
}
);
width = 526;
}
);
leftKerningGroup = c;
note = c;
rightKerningGroup = c;
unicode = 0063;
},
{
color = 1;
glyphname = d;
lastChange = "2020-06-16 10:24:20 +0000";
layers = (
{
anchors = (
{
name = bottom;
position = "{310, 0}";
},
{
name = center;
position = "{462, 608}";
},
{
name = top;
position = "{509, 697}";
},
{
name = topright;
position = "{620, 493}";
}
);
layerId = "F91D9E91-C1BC-4259-B0D8-112C0CBA2B8E";
paths = (
{
closed = 1;
nodes = (
"396 -5 OFFCURVE",
"479 67 OFFCURVE",
"505 172 CURVE",
"504 173 LINE",
"504 0 LINE",
"514 0 LINE",
"514 697 LINE",
"504 697 LINE",
"504 321 LINE",
"505 322 LINE",
"479 426 OFFCURVE",
"396 498 OFFCURVE",
"291 498 CURVE SMOOTH",
"163 498 OFFCURVE",
"65 390 OFFCURVE",
"65 247 CURVE SMOOTH",
"65 104 OFFCURVE",
"163 -5 OFFCURVE",
"291 -5 CURVE SMOOTH"
);
},
{
closed = 1;
nodes = (
"168 5 OFFCURVE",
"75 110 OFFCURVE",
"75 247 CURVE SMOOTH",
"75 384 OFFCURVE",
"168 488 OFFCURVE",
"291 488 CURVE SMOOTH",
"413 488 OFFCURVE",
"504 385 OFFCURVE",
"504 247 CURVE SMOOTH",
"504 109 OFFCURVE",
"413 5 OFFCURVE",
"291 5 CURVE SMOOTH"
);
}
);
width = 604;
},
{
anchors = (
{
name = bottom;
position = "{295, 0}";
},
{
name = center;
position = "{426, 589}";
},
{
name = top;
position = "{441, 697}";
},
{
name = topright;
position = "{633, 493}";
}
);
layerId = "957254E3-B7AD-4837-9092-D4428001DE8E";
paths = (
{
closed = 1;
nodes = (
"339 -11 OFFCURVE",
"399 13 OFFCURVE",
"436 108 CURVE",
"366 122 LINE",
"366 0 LINE",
"516 0 LINE",
"516 697 LINE",
"366 697 LINE",
"366 369 LINE",
"430 391 LINE",
"404 464 OFFCURVE",
"349 504 OFFCURVE",
"256 504 CURVE SMOOTH",
"130 504 OFFCURVE",
"35 412 OFFCURVE",
"35 247 CURVE SMOOTH",
"35 99 OFFCURVE",
"112 -11 OFFCURVE",
"256 -11 CURVE SMOOTH"
);
},
{
closed = 1;
nodes = (
"222 127 OFFCURVE",
"186 171 OFFCURVE",
"186 247 CURVE SMOOTH",
"186 322 OFFCURVE",
"222 366 OFFCURVE",
"283 366 CURVE SMOOTH",
"344 366 OFFCURVE",
"380 321 OFFCURVE",
"380 247 CURVE SMOOTH",
"380 172 OFFCURVE",
"344 127 OFFCURVE",
"283 127 CURVE SMOOTH"
);
}
);
width = 571;
},
{
anchors = (
{
name = bottom;
position = "{295, 0}";
},
{
name = center;
position = "{426, 589}";
},
{
name = top;
position = "{441, 697}";
},
{
name = topright;
position = "{633, 493}";
}
);
associatedMasterId = "957254E3-B7AD-4837-9092-D4428001DE8E";
layerId = "A3864875-E67E-4FBF-9A2D-3D117D0A28B6";
name = "Black [600]";
paths = (
{
closed = 1;
nodes = (
"296 -11 OFFCURVE",
"372 13 OFFCURVE",
"397 88 CURVE",
"366 122 LINE",
"366 0 LINE",
"516 0 LINE",
"516 697 LINE",
"366 697 LINE",
"366 369 LINE",
"392 411 LINE",
"377 464 OFFCURVE",
"305 504 OFFCURVE",
"236 504 CURVE SMOOTH",
"125 504 OFFCURVE",
"35 412 OFFCURVE",
"35 247 CURVE SMOOTH",
"35 99 OFFCURVE",
"108 -11 OFFCURVE",
"236 -11 CURVE SMOOTH"
);
},
{
closed = 1;
nodes = (
"222 127 OFFCURVE",
"186 171 OFFCURVE",
"186 247 CURVE SMOOTH",
"186 322 OFFCURVE",
"222 366 OFFCURVE",
"283 366 CURVE SMOOTH",
"344 366 OFFCURVE",
"380 321 OFFCURVE",
"380 247 CURVE SMOOTH",
"380 172 OFFCURVE",
"344 127 OFFCURVE",
"283 127 CURVE SMOOTH"
);
}
);
width = 571;
}
);
leftKerningGroup = d;
note = d;
rightKerningGroup = d;
unicode = 0064;
},
{
color = 1;
glyphname = eth;
lastChange = "2020-06-16 10:24:20 +0000";
layers = (
{
layerId = "F91D9E91-C1BC-4259-B0D8-112C0CBA2B8E";
paths = (
{
closed = 1;
nodes = (
"464 -5 OFFCURVE",
"544 180 OFFCURVE",
"544 360 CURVE SMOOTH",
"544 588 OFFCURVE",
"469 702 OFFCURVE",
"151 707 CURVE",
"151 697 LINE",
"447 692 OFFCURVE",
"558 594 OFFCURVE",
"530 290 CURVE",
"526 391 OFFCURVE",
"475 510 OFFCURVE",
"342 510 CURVE SMOOTH",
"177 510 OFFCURVE",
"64 388 OFFCURVE",
"64 210 CURVE SMOOTH",
"64 82 OFFCURVE",
"145 -5 OFFCURVE",
"265 -5 CURVE SMOOTH"
);
},
{
closed = 1;
nodes = (
"151 5 OFFCURVE",
"74 87 OFFCURVE",
"74 210 CURVE SMOOTH",
"74 383 OFFCURVE",
"182 500 OFFCURVE",
"342 500 CURVE SMOOTH",
"493 500 OFFCURVE",
"539 335 OFFCURVE",
"518 231 CURVE SMOOTH",
"492 105 OFFCURVE",
"409 5 OFFCURVE",
"265 5 CURVE SMOOTH"
);
},
{
closed = 1;
nodes = (
"598 672 LINE",
"595 680 LINE",
"296 571 LINE",
"299 563 LINE"
);
}
);
width = 617;
},
{
layerId = "957254E3-B7AD-4837-9092-D4428001DE8E";
paths = (
{
closed = 1;
nodes = (
"427 -11 OFFCURVE",
"543 127 OFFCURVE",
"543 375 CURVE SMOOTH",
"543 582 OFFCURVE",
"462 716 OFFCURVE",
"222 738 CURVE",
"210 638 LINE",
"359 632 OFFCURVE",
"417 527 OFFCURVE",
"417 426 CURVE",
"386 473 OFFCURVE",
"325 487 OFFCURVE",
"275 487 CURVE SMOOTH",
"138 487 OFFCURVE",
"9 379 OFFCURVE",
"9 218 CURVE SMOOTH",
"9 87 OFFCURVE",
"95 -11 OFFCURVE",
"247 -11 CURVE SMOOTH"
);
},
{
closed = 1;
nodes = (
"200 118 OFFCURVE",
"150 150 OFFCURVE",
"150 220 CURVE SMOOTH",
"150 278 OFFCURVE",
"185 364 OFFCURVE",
"291 364 CURVE SMOOTH",
"358 364 OFFCURVE",
"394 330 OFFCURVE",
"399 280 CURVE SMOOTH",
"407 206 OFFCURVE",
"348 118 OFFCURVE",
"256 118 CURVE SMOOTH"
);
},
{
closed = 1;
nodes = (
"547 607 LINE",
"533 667 LINE",
"168 581 LINE",
"183 521 LINE"
);
}
);
width = 564;
}
);
leftKerningGroup = c;
note = eth;
rightKerningGroup = d;
unicode = 00F0;
},
{
color = 1;
glyphname = e;
lastChange = "2020-06-19 15:12:14 +0000";
layers = (
{
anchors = (
{
name = bottom;
position = "{278, 0}";
},
{
name = ogonek;
position = "{330, 0}";
},
{
name = top;
position = "{270, 493}";
}
);
layerId = "F91D9E91-C1BC-4259-B0D8-112C0CBA2B8E";
paths = (
{
closed = 1;
nodes = (
"354 -5 OFFCURVE",
"399 14 OFFCURVE",
"457 70 CURVE",
"448 78 LINE",
"394 23 OFFCURVE",
"352 5 OFFCURVE",
"278 5 CURVE SMOOTH",
"157 5 OFFCURVE",
"78 95 OFFCURVE",
"78 251 CURVE",
"467 251 LINE",
"468 259 OFFCURVE",
"469 278 OFFCURVE",
"469 291 CURVE SMOOTH",
"469 376 OFFCURVE",
"419 498 OFFCURVE",
"270 498 CURVE SMOOTH",
"150 498 OFFCURVE",
"68 394 OFFCURVE",
"68 243 CURVE SMOOTH",
"68 93 OFFCURVE",
"151 -5 OFFCURVE",
"278 -5 CURVE SMOOTH"
);
},
{
closed = 1;
nodes = (
"462 260 LINE",
"78 260 LINE",
"85 394 OFFCURVE",
"161 488 OFFCURVE",
"270 488 CURVE SMOOTH",
"413 488 OFFCURVE",
"459 374 OFFCURVE",
"459 291 CURVE SMOOTH",
"459 281 OFFCURVE",
"459 269 OFFCURVE",
"458 257 CURVE"
);
}
);
width = 533;
},
{
anchors = (
{
name = bottom;
position = "{284, 0}";
},
{
name = ogonek;
position = "{363, 0}";
},
{
name = top;
position = "{277, 493}";
}
);
layerId = "957254E3-B7AD-4837-9092-D4428001DE8E";
paths = (
{
closed = 1;
nodes = (
"371 -11 OFFCURVE",
"441 22 OFFCURVE",
"493 81 CURVE",
"389 173 LINE",
"361 139 OFFCURVE",
"322 125 OFFCURVE",
"285 125 CURVE SMOOTH",
"220 125 OFFCURVE",
"190 155 OFFCURVE",
"184 194 CURVE",
"508 194 LINE",
"510 215 OFFCURVE",
"511 228 OFFCURVE",
"511 242 CURVE SMOOTH",
"511 394 OFFCURVE",
"430 504 OFFCURVE",
"276 504 CURVE SMOOTH",
"100 504 OFFCURVE",
"33 367 OFFCURVE",
"33 244 CURVE SMOOTH",
"33 117 OFFCURVE",
"102 -11 OFFCURVE",
"284 -11 CURVE SMOOTH"
);
},
{
closed = 1;
nodes = (
"412 311 LINE",
"183 311 LINE",
"191 342 OFFCURVE",
"216 379 OFFCURVE",
"279 379 CURVE SMOOTH",
"326 379 OFFCURVE",
"368 351 OFFCURVE",
"368 299 CURVE SMOOTH",
"368 292 OFFCURVE",
"367 284 OFFCURVE",
"365 275 CURVE"
);
}
);
width = 545;
},
{
anchors = (
{
name = bottom;
position = "{284, 0}";
},
{
name = ogonek;
position = "{363, 0}";
},
{
name = top;
position = "{277, 493}";
}
);
associatedMasterId = "957254E3-B7AD-4837-9092-D4428001DE8E";
background = {
paths = (
{
closed = 1;
nodes = (
"371 -11 OFFCURVE",
"441 22 OFFCURVE",
"493 81 CURVE",
"389 173 LINE",
"361 139 OFFCURVE",
"322 125 OFFCURVE",
"285 125 CURVE SMOOTH",
"220 125 OFFCURVE",
"190 155 OFFCURVE",
"184 194 CURVE",
"508 194 LINE",
"510 215 OFFCURVE",
"511 228 OFFCURVE",
"511 242 CURVE SMOOTH",
"511 394 OFFCURVE",
"430 504 OFFCURVE",
"276 504 CURVE SMOOTH",
"100 504 OFFCURVE",
"33 367 OFFCURVE",
"33 244 CURVE SMOOTH",
"33 117 OFFCURVE",
"102 -11 OFFCURVE",
"284 -11 CURVE SMOOTH"
);
},
{
closed = 1;
nodes = (
"412 305 LINE",
"137 305 LINE",
"180 285 LINE",
"179 315 OFFCURVE",
"196 379 OFFCURVE",
"274 379 CURVE SMOOTH",
"325 379 OFFCURVE",
"367 350 OFFCURVE",
"367 301 CURVE SMOOTH",
"367 292 OFFCURVE",
"365 282 OFFCURVE",
"362 271 CURVE"
);
}
);
};
layerId = "2030E1BF-B437-454D-A801-FB4D7FD474A1";
name = "Black [700]";
paths = (
{
closed = 1;
nodes = (
"371 -11 OFFCURVE",
"441 22 OFFCURVE",
"493 81 CURVE",
"389 173 LINE",
"361 139 OFFCURVE",
"322 125 OFFCURVE",
"285 125 CURVE SMOOTH",
"220 125 OFFCURVE",
"190 155 OFFCURVE",
"184 194 CURVE",
"508 194 LINE",
"510 215 OFFCURVE",
"511 228 OFFCURVE",
"511 242 CURVE SMOOTH",
"511 394 OFFCURVE",
"430 504 OFFCURVE",
"276 504 CURVE SMOOTH",
"100 504 OFFCURVE",
"33 367 OFFCURVE",
"33 244 CURVE SMOOTH",
"33 117 OFFCURVE",
"102 -11 OFFCURVE",
"284 -11 CURVE SMOOTH"
);
},
{
closed = 1;
nodes = (
"413 305 LINE",
"182 305 LINE",
"188 337 OFFCURVE",
"212 379 OFFCURVE",
"279 379 CURVE SMOOTH",
"326 379 OFFCURVE",
"368 350 OFFCURVE",
"368 300 CURVE SMOOTH",
"368 291 OFFCURVE",
"366 280 OFFCURVE",
"363 269 CURVE"
);
}
);
width = 545;
}
);
leftKerningGroup = c;
note = e;
rightKerningGroup = e;
unicode = 0065;
},
{
color = 1;
glyphname = f;
lastChange = "2020-06-19 15:03:23 +0000";
layers = (
{
anchors = (
{
name = bottom;
position = "{152, 0}";
},
{
name = top;
position = "{181, 697}";
}
);
layerId = "F91D9E91-C1BC-4259-B0D8-112C0CBA2B8E";
paths = (
{
closed = 1;
nodes = (
"157 0 LINE",
"157 483 LINE",
"330 483 LINE",
"330 493 LINE",
"157 493 LINE",
"157 580 LINE SMOOTH",
"157 656 OFFCURVE",
"193 692 OFFCURVE",
"256 692 CURVE SMOOTH",
"282 692 OFFCURVE",
"302 687 OFFCURVE",
"322 677 CURVE",
"326 685 LINE",
"307 696 OFFCURVE",
"284 702 OFFCURVE",
"256 702 CURVE SMOOTH",
"187 702 OFFCURVE",
"147 662 OFFCURVE",
"147 580 CURVE SMOOTH",
"147 493 LINE",
"31 493 LINE",
"31 483 LINE",
"147 483 LINE",
"147 0 LINE"
);
}
);
width = 362;
},
{
anchors = (
{
name = bottom;
position = "{181, 0}";
},
{
name = top;
position = "{179, 697}";
}
);
layerId = "957254E3-B7AD-4837-9092-D4428001DE8E";
paths = (
{
closed = 1;
nodes = (
"257 0 LINE",
"257 376 LINE",
"355 376 LINE",
"355 493 LINE",
"257 493 LINE",
"257 536 LINE SMOOTH",
"257 562 OFFCURVE",
"263 583 OFFCURVE",
"288 583 CURVE SMOOTH",
"301 583 OFFCURVE",
"314 577 OFFCURVE",
"326 571 CURVE",
"374 686 LINE",
"344 699 OFFCURVE",
"315 708 OFFCURVE",
"271 708 CURVE SMOOTH",
"184 708 OFFCURVE",
"107 674 OFFCURVE",
"107 537 CURVE SMOOTH",
"107 493 LINE",
"18 493 LINE",
"18 376 LINE",
"106 376 LINE",
"106 0 LINE"
);
}
);
width = 370;
}
);
leftKerningGroup = f;
note = f;
rightKerningGroup = f;
unicode = 0066;
},
{
color = 1;
glyphname = g;
lastChange = "2020-06-16 10:24:20 +0000";
layers = (
{
anchors = (
{
name = bottom;
position = "{274, -210}";
},
{
name = top;
position = "{250, 493}";
}
);
layerId = "F91D9E91-C1BC-4259-B0D8-112C0CBA2B8E";
paths = (
{
closed = 1;
nodes = (
"381 -210 OFFCURVE",
"457 -167 OFFCURVE",
"457 -85 CURVE SMOOTH",
"457 12 OFFCURVE",
"340 24 OFFCURVE",
"234 42 CURVE SMOOTH",
"152 55 OFFCURVE",
"78 72 OFFCURVE",
"78 139 CURVE SMOOTH",
"78 175 OFFCURVE",
"98 200 OFFCURVE",
"142 220 CURVE",
"138 230 LINE",
"90 208 OFFCURVE",
"68 180 OFFCURVE",
"68 139 CURVE SMOOTH",
"68 65 OFFCURVE",
"148 46 OFFCURVE",
"235 32 CURVE SMOOTH",
"336 15 OFFCURVE",
"447 4 OFFCURVE",
"447 -85 CURVE SMOOTH",
"447 -161 OFFCURVE",
"375 -200 OFFCURVE",
"254 -200 CURVE SMOOTH",
"144 -200 OFFCURVE",
"67 -151 OFFCURVE",
"67 -63 CURVE SMOOTH",
"67 -57 OFFCURVE",
"67 -51 OFFCURVE",
"68 -44 CURVE",
"162 49 LINE",
"151 53 LINE",
"58 -40 LINE",
"57 -48 OFFCURVE",
"57 -57 OFFCURVE",
"57 -63 CURVE SMOOTH",
"57 -157 OFFCURVE",
"139 -210 OFFCURVE",
"254 -210 CURVE SMOOTH"
);
},
{
closed = 1;
nodes = (
"345 184 OFFCURVE",
"413 246 OFFCURVE",
"413 338 CURVE SMOOTH",
"413 432 OFFCURVE",
"345 498 OFFCURVE",
"249 498 CURVE SMOOTH",
"151 498 OFFCURVE",
"81 432 OFFCURVE",
"81 339 CURVE SMOOTH",
"81 247 OFFCURVE",
"150 184 OFFCURVE",
"248 184 CURVE SMOOTH"
);
},
{
closed = 1;
nodes = (
"155 194 OFFCURVE",
"91 254 OFFCURVE",
"91 339 CURVE SMOOTH",
"91 426 OFFCURVE",
"157 488 OFFCURVE",
"249 488 CURVE SMOOTH",
"340 488 OFFCURVE",
"403 427 OFFCURVE",
"403 338 CURVE SMOOTH",
"403 253 OFFCURVE",
"340 194 OFFCURVE",
"248 194 CURVE SMOOTH"
);
},
{
closed = 1;
nodes = (
"467 501 LINE",
"461 509 LINE",
"377 431 LINE",
"384 424 LINE"
);
}
);
width = 500;
},
{
anchors = (
{
name = bottom;
position = "{268, -215}";
},
{
name = top;
position = "{260, 493}";
}
);
layerId = "957254E3-B7AD-4837-9092-D4428001DE8E";
paths = (
{
closed = 1;
nodes = (
"420 -215 OFFCURVE",
"502 -160 OFFCURVE",
"502 -59 CURVE SMOOTH",
"502 51 OFFCURVE",
"406 67 OFFCURVE",
"263 84 CURVE SMOOTH",
"202 91 OFFCURVE",
"178 95 OFFCURVE",
"178 119 CURVE SMOOTH",
"178 140 OFFCURVE",
"201 155 OFFCURVE",
"236 171 CURVE",
"135 240 LINE",
"77 208 OFFCURVE",
"40 168 OFFCURVE",
"40 102 CURVE SMOOTH",
"40 18 OFFCURVE",
"101 -27 OFFCURVE",
"236 -42 CURVE SMOOTH",
"333 -53 OFFCURVE",
"352 -59 OFFCURVE",
"352 -79 CURVE SMOOTH",
"352 -101 OFFCURVE",
"326 -103 OFFCURVE",
"268 -103 CURVE SMOOTH",
"210 -103 OFFCURVE",
"176 -96 OFFCURVE",
"176 -73 CURVE SMOOTH",
"176 -70 OFFCURVE",
"176 -67 OFFCURVE",
"177 -66 CURVE",
"247 0 LINE",
"179 49 LINE",
"30 -35 LINE",
"27 -45 OFFCURVE",
"26 -57 OFFCURVE",
"26 -68 CURVE SMOOTH",
"26 -159 OFFCURVE",
"117 -215 OFFCURVE",
"268 -215 CURVE SMOOTH"
);
},
{
closed = 1;
nodes = (
"383 127 OFFCURVE",
"467 199 OFFCURVE",
"467 309 CURVE SMOOTH",
"467 429 OFFCURVE",
"366 504 OFFCURVE",
"254 504 CURVE SMOOTH",
"141 504 OFFCURVE",
"43 429 OFFCURVE",
"43 314 CURVE SMOOTH",
"43 206 OFFCURVE",
"129 127 OFFCURVE",
"259 127 CURVE SMOOTH"
);
},
{
closed = 1;
nodes = (
"211 245 OFFCURVE",
"194 277 OFFCURVE",
"194 314 CURVE SMOOTH",
"194 352 OFFCURVE",
"216 379 OFFCURVE",
"256 379 CURVE SMOOTH",
"295 379 OFFCURVE",
"317 353 OFFCURVE",
"317 314 CURVE SMOOTH",
"317 277 OFFCURVE",
"300 245 OFFCURVE",
"256 245 CURVE SMOOTH"
);
},
{
closed = 1;
nodes = (
"522 452 LINE",
"444 547 LINE",
"323 452 LINE",
"433 381 LINE"
);
}
);
width = 535;
},
{
anchors = (
{
name = bottom;
position = "{268, -215}";
},
{
name = top;
position = "{260, 493}";
}
);
associatedMasterId = "957254E3-B7AD-4837-9092-D4428001DE8E";
background = {
paths = (
{
closed = 1;
nodes = (
"523 451 LINE",
"441 550 LINE",
"320 455 LINE",
"434 380 LINE"
);
}
);
};
layerId = "3D829A80-D35E-4095-8C35-EA19F9AE3F43";
name = "Black [700]";
paths = (
{
closed = 1;
nodes = (
"420 -215 OFFCURVE",
"502 -160 OFFCURVE",
"502 -59 CURVE SMOOTH",
"502 51 OFFCURVE",
"406 67 OFFCURVE",
"263 84 CURVE SMOOTH",
"201 91 OFFCURVE",
"162 97 OFFCURVE",
"162 126 CURVE SMOOTH",
"162 147 OFFCURVE",
"181 165 OFFCURVE",
"207 168 CURVE",
"135 240 LINE",
"77 208 OFFCURVE",
"40 168 OFFCURVE",
"40 102 CURVE SMOOTH",
"40 -9 OFFCURVE",
"144 -32 OFFCURVE",
"236 -42 CURVE SMOOTH",
"333 -53 OFFCURVE",
"352 -59 OFFCURVE",
"352 -79 CURVE SMOOTH",
"352 -101 OFFCURVE",
"326 -110 OFFCURVE",
"268 -110 CURVE SMOOTH",
"215 -110 OFFCURVE",
"172 -98 OFFCURVE",
"172 -73 CURVE SMOOTH",
"172 -71 OFFCURVE",
"172 -68 OFFCURVE",
"173 -66 CURVE",
"244 5 LINE",
"179 49 LINE",
"30 -35 LINE",
"27 -47 OFFCURVE",
"26 -59 OFFCURVE",
"26 -68 CURVE SMOOTH",
"26 -159 OFFCURVE",
"117 -215 OFFCURVE",
"268 -215 CURVE SMOOTH"
);
},
{
closed = 1;
nodes = (
"383 127 OFFCURVE",
"467 199 OFFCURVE",
"467 309 CURVE SMOOTH",
"467 429 OFFCURVE",
"366 504 OFFCURVE",
"254 504 CURVE SMOOTH",
"141 504 OFFCURVE",
"43 429 OFFCURVE",
"43 314 CURVE SMOOTH",
"43 206 OFFCURVE",
"129 127 OFFCURVE",
"259 127 CURVE SMOOTH"
);
},
{
closed = 1;
nodes = (
"211 245 OFFCURVE",
"194 277 OFFCURVE",
"194 314 CURVE SMOOTH",
"194 352 OFFCURVE",
"216 379 OFFCURVE",
"256 379 CURVE SMOOTH",
"295 379 OFFCURVE",
"317 353 OFFCURVE",
"317 314 CURVE SMOOTH",
"317 277 OFFCURVE",
"300 245 OFFCURVE",
"256 245 CURVE SMOOTH"
);
},
{
closed = 1;
nodes = (
"522 452 LINE",
"445 545 LINE",
"324 450 LINE",
"433 381 LINE"
);
}
);
width = 535;
}
);
leftKerningGroup = g;
note = g;
rightKerningGroup = g;
unicode = 0067;
},
{
color = 1;
glyphname = h;
lastChange = "2020-06-16 10:24:20 +0000";
layers = (
{
anchors = (
{
name = bottom;
position = "{258, 0}";
},
{
name = center;
position = "{164, 608}";
},
{
name = top;
position = "{95, 697}";
}
);
layerId = "F91D9E91-C1BC-4259-B0D8-112C0CBA2B8E";
paths = (
{
closed = 1;
nodes = (
"100 0 LINE",
"100 263 LINE SMOOTH",
"100 410 OFFCURVE",
"158 488 OFFCURVE",
"267 488 CURVE SMOOTH",
"367 488 OFFCURVE",
"416 423 OFFCURVE",
"416 293 CURVE SMOOTH",
"416 0 LINE",
"426 0 LINE",
"426 295 LINE SMOOTH",
"426 429 OFFCURVE",
"371 498 OFFCURVE",
"264 498 CURVE SMOOTH",
"175 498 OFFCURVE",
"119 450 OFFCURVE",
"99 355 CURVE",
"100 355 LINE",
"100 697 LINE",
"90 697 LINE",
"90 0 LINE"
);
}
);
width = 511;
},
{
anchors = (
{
name = bottom;
position = "{296, 0}";
},
{
name = center;
position = "{185, 589}";
},
{
name = top;
position = "{131, 697}";
}
);
layerId = "957254E3-B7AD-4837-9092-D4428001DE8E";
paths = (
{
closed = 1;
nodes = (
"205 0 LINE",
"205 230 LINE SMOOTH",
"205 329 OFFCURVE",
"234 373 OFFCURVE",
"298 373 CURVE SMOOTH",
"352 373 OFFCURVE",
"376 342 OFFCURVE",
"376 272 CURVE SMOOTH",
"376 0 LINE",
"527 0 LINE",
"527 328 LINE SMOOTH",
"527 436 OFFCURVE",
"459 504 OFFCURVE",
"341 504 CURVE SMOOTH",
"277 504 OFFCURVE",
"215 487 OFFCURVE",
"176 417 CURVE",
"205 417 LINE",
"205 697 LINE",
"54 697 LINE",
"54 0 LINE"
);
}
);
width = 577;
},
{
anchors = (
{
name = bottom;
position = "{296, 0}";
},
{
name = center;
position = "{185, 589}";
},
{
name = top;
position = "{131, 697}";
}
);
associatedMasterId = "957254E3-B7AD-4837-9092-D4428001DE8E";
layerId = "709CE9DB-E4EB-490C-A7FE-8DE8DDEBBBDF";
name = "Black [700]";
paths = (
{
closed = 1;
nodes = (
"205 0 LINE",
"205 230 LINE SMOOTH",
"205 329 OFFCURVE",
"234 373 OFFCURVE",
"298 373 CURVE SMOOTH",
"352 373 OFFCURVE",
"376 342 OFFCURVE",
"376 272 CURVE SMOOTH",
"376 0 LINE",
"527 0 LINE",
"527 328 LINE SMOOTH",
"527 436 OFFCURVE",
"459 504 OFFCURVE",
"345 504 CURVE SMOOTH",
"283 504 OFFCURVE",
"223 487 OFFCURVE",
"185 417 CURVE",
"205 417 LINE",
"205 697 LINE",
"54 697 LINE",
"54 0 LINE"
);
}
);
width = 577;
}
);
leftKerningGroup = h;
note = h;
rightKerningGroup = h;
unicode = 0068;
},
{
color = 1;
glyphname = idotless;
lastChange = "2020-06-16 10:24:20 +0000";
layers = (
{
anchors = (
{
name = bottom;
position = "{95, 0}";
},
{
name = ogonek;
position = "{100, 0}";
},
{
name = top;
position = "{95, 493}";
}
);
layerId = "F91D9E91-C1BC-4259-B0D8-112C0CBA2B8E";
paths = (
{
closed = 1;
nodes = (
"100 0 LINE",
"100 493 LINE",
"90 493 LINE",
"90 0 LINE"
);
}
);
width = 191;
},
{
anchors = (
{
name = bottom;
position = "{132, 0}";
},
{
name = ogonek;
position = "{207, 0}";
},
{
name = top;
position = "{132, 493}";
}
);
layerId = "957254E3-B7AD-4837-9092-D4428001DE8E";
paths = (
{
closed = 1;
nodes = (
"207 0 LINE",
"207 493 LINE",
"56 493 LINE",
"56 0 LINE"
);
}
);
width = 263;
}
);
note = dotlessi;
unicode = 0131;
},
{
color = 1;
glyphname = jdotless;
lastChange = "2020-06-16 10:24:20 +0000";
layers = (
{
anchors = (
{
name = bottom;
position = "{95, -254}";
},
{
name = top;
position = "{95, 493}";
}
);
guideLines = (
{
position = "{368, -204}";
}
);
layerId = "F91D9E91-C1BC-4259-B0D8-112C0CBA2B8E";
paths = (
{
closed = 1;
nodes = (
"77 -209 OFFCURVE",
"100 -180 OFFCURVE",
"100 -114 CURVE SMOOTH",
"100 493 LINE",
"90 493 LINE",
"90 -114 LINE SMOOTH",
"90 -174 OFFCURVE",
"70 -200 OFFCURVE",
"30 -200 CURVE SMOOTH",
"15 -200 OFFCURVE",
"-4 -196 OFFCURVE",
"-25 -188 CURVE",
"-25 -198.63 LINE",
"-3.788 -205.239 OFFCURVE",
"15.486 -209 OFFCURVE",
"31 -209 CURVE SMOOTH"
);
}
);
width = 190;
},
{
anchors = (
{
name = bottom;
position = "{133, -254}";
},
{
name = top;
position = "{133, 493}";
}
);
guideLines = (
{
position = "{379, -204}";
}
);
layerId = "957254E3-B7AD-4837-9092-D4428001DE8E";
paths = (
{
closed = 1;
nodes = (
"153 -215 OFFCURVE",
"208 -172 OFFCURVE",
"208 -78 CURVE SMOOTH",
"208 493 LINE",
"57 493 LINE",
"57 -36 LINE SMOOTH",
"57 -70 OFFCURVE",
"43 -74 OFFCURVE",
"19 -74 CURVE SMOOTH",
"8 -74 OFFCURVE",
"-6 -72 OFFCURVE",
"-21 -69 CURVE",
"-21 -199 LINE",
"10 -209 OFFCURVE",
"46 -215 OFFCURVE",
"75 -215 CURVE SMOOTH"
);
}
);
width = 265;
}
);
note = uni0237;
unicode = 0237;
},
{
color = 1;
glyphname = k;
lastChange = "2020-06-16 10:24:20 +0000";
layers = (
{
anchors = (
{
name = bottom;
position = "{241, 0}";
},
{
name = top;
position = "{95, 697}";
}
);
layerId = "F91D9E91-C1BC-4259-B0D8-112C0CBA2B8E";
paths = (
{
closed = 1;
nodes = (
"443 0 LINE",
"233 315 LINE",
"406 493 LINE",
"392 493 LINE",
"92 184 LINE",
"92 170 LINE",
"226 307 LINE",
"431 0 LINE"
);
},
{
closed = 1;
nodes = (
"100 0 LINE",
"100 697 LINE",
"90 697 LINE",
"90 0 LINE"
);
}
);
width = 481;
},
{
anchors = (
{
name = bottom;
position = "{295, 0}";
},
{
name = top;
position = "{130, 697}";
}
);
layerId = "957254E3-B7AD-4837-9092-D4428001DE8E";
paths = (
{
closed = 1;
nodes = (
"565 0 LINE",
"368 307 LINE",
"548 493 LINE",
"347 493 LINE",
"194 318 LINE",
"194 131 LINE",
"258 206 LINE",
"386 0 LINE"
);
},
{
closed = 1;
nodes = (
"205 0 LINE",
"205 697 LINE",
"54 697 LINE",
"54 0 LINE"
);
}
);
width = 575;
}
);
leftKerningGroup = k;
note = k;
rightKerningGroup = k;
unicode = 006B;
},
{
color = 1;
glyphname = kgreenlandic;
lastChange = "2020-06-16 10:24:20 +0000";
layers = (
{
anchors = (
{
name = bottom;
position = "{241, 0}";
},
{
name = top;
position = "{241, 493}";
}
);
layerId = "F91D9E91-C1BC-4259-B0D8-112C0CBA2B8E";
paths = (
{
closed = 1;
nodes = (
"443 0 LINE",
"233 315 LINE",
"406 493 LINE",
"392 493 LINE",
"92 184 LINE",
"92 170 LINE",
"226 307 LINE",
"431 0 LINE"
);
},
{
closed = 1;
nodes = (
"100 0 LINE",
"100 493 LINE",
"90 493 LINE",
"90 0 LINE"
);
}
);
width = 481;
},
{
anchors = (
{
name = bottom;
position = "{295, 0}";
},
{
name = top;
position = "{288, 493}";
}
);
layerId = "957254E3-B7AD-4837-9092-D4428001DE8E";
paths = (
{
closed = 1;
nodes = (
"565 0 LINE",
"368 307 LINE",
"548 493 LINE",
"347 493 LINE",
"194 318 LINE",
"194 131 LINE",
"258 206 LINE",
"386 0 LINE"
);
},
{
closed = 1;
nodes = (
"205 0 LINE",
"205 493 LINE",
"54 493 LINE",
"54 0 LINE"
);
}
);
width = 575;
}
);
leftKerningGroup = m;
leftMetricsKey = m;
note = kgreenlandic;
rightKerningGroup = k;
unicode = 0138;
},
{
color = 1;
glyphname = l;
lastChange = "2020-06-19 15:02:31 +0000";
layers = (
{
anchors = (
{
name = bottom;
position = "{136, 0}";
},
{
name = center;
position = "{116, 417}";
},
{
name = top;
position = "{94, 697}";
},
{
name = topright;
position = "{212, 493}";
}
);
layerId = "F91D9E91-C1BC-4259-B0D8-112C0CBA2B8E";
paths = (
{
closed = 1;
nodes = (
"173.514 -5 OFFCURVE",
"192.788 -1.239 OFFCURVE",
"214 5.37 CURVE",
"214 16 LINE",
"193 8 OFFCURVE",
"174 4 OFFCURVE",
"159 4 CURVE SMOOTH",
"119 4 OFFCURVE",
"99 30 OFFCURVE",
"99 90 CURVE SMOOTH",
"99 697 LINE",
"89 697 LINE",
"89 90 LINE SMOOTH",
"89 24 OFFCURVE",
"112 -5 OFFCURVE",
"158 -5 CURVE SMOOTH"
);
}
);
width = 262;
},
{
anchors = (
{
name = bottom;
position = "{140, 0}";
},
{
name = center;
position = "{130, 364}";
},
{
name = top;
position = "{127, 697}";
},
{
name = topright;
position = "{325, 493}";
}
);
layerId = "957254E3-B7AD-4837-9092-D4428001DE8E";
paths = (
{
closed = 1;
nodes = (
"202 -11 OFFCURVE",
"232 -7 OFFCURVE",
"263 5 CURVE",
"263 133 LINE",
"252 130 OFFCURVE",
"242 128 OFFCURVE",
"232 128 CURVE SMOOTH",
"215 128 OFFCURVE",
"202 135 OFFCURVE",
"202 155 CURVE SMOOTH",
"202 697 LINE",
"51 697 LINE",
"51 125 LINE SMOOTH",
"51 30 OFFCURVE",
"108 -11 OFFCURVE",
"180 -11 CURVE SMOOTH"
);
}
);
width = 288;
}
);
leftKerningGroup = l;
note = l;
rightKerningGroup = l;
unicode = 006C;
},
{
color = 1;
glyphname = m;
lastChange = "2020-06-16 10:24:20 +0000";
layers = (
{
anchors = (
{
name = bottom;
position = "{396, 0}";
},
{
name = top;
position = "{396, 493}";
}
);
layerId = "F91D9E91-C1BC-4259-B0D8-112C0CBA2B8E";
paths = (
{
closed = 1;
nodes = (
"101 0 LINE",
"101 293 LINE SMOOTH",
"101 419 OFFCURVE",
"162 488 OFFCURVE",
"254 488 CURVE SMOOTH",
"348 488 OFFCURVE",
"396 427 OFFCURVE",
"396 293 CURVE SMOOTH",
"396 0 LINE",
"407 0 LINE",
"407 293 LINE SMOOTH",
"407 419 OFFCURVE",
"468 488 OFFCURVE",
"560 488 CURVE SMOOTH",
"671 488 OFFCURVE",
"703 403 OFFCURVE",
"703 280 CURVE SMOOTH",
"703 0 LINE",
"714 0 LINE",
"714 280 LINE SMOOTH",
"714 413 OFFCURVE",
"675 498 OFFCURVE",
"561 498 CURVE SMOOTH",
"478 498 OFFCURVE",
"420 446 OFFCURVE",
"401 350 CURVE",
"403 350 LINE",
"389 453 OFFCURVE",
"338 498 OFFCURVE",
"254 498 CURVE SMOOTH",
"177 498 OFFCURVE",
"119 454 OFFCURVE",
"99 367 CURVE",
"100 367 LINE",
"100 493 LINE",
"90 493 LINE",
"90 0 LINE"
);
}
);
width = 798;
},
{
anchors = (
{
name = bottom;
position = "{427, 0}";
},
{
name = top;
position = "{427, 493}";
}
);
layerId = "957254E3-B7AD-4837-9092-D4428001DE8E";
paths = (
{
closed = 1;
nodes = (
"205 0 LINE",
"205 239 LINE SMOOTH",
"205 330 OFFCURVE",
"231 373 OFFCURVE",
"288 373 CURVE SMOOTH",
"329 373 OFFCURVE",
"354 342 OFFCURVE",
"354 281 CURVE SMOOTH",
"354 0 LINE",
"504 0 LINE",
"504 239 LINE SMOOTH",
"504 331 OFFCURVE",
"529 373 OFFCURVE",
"583 373 CURVE SMOOTH",
"627 373 OFFCURVE",
"653 345 OFFCURVE",
"653 281 CURVE SMOOTH",
"653 0 LINE",
"804 0 LINE",
"804 318 LINE SMOOTH",
"804 407 OFFCURVE",
"748 504 OFFCURVE",
"605 504 CURVE SMOOTH",
"524 504 OFFCURVE",
"429 479 OFFCURVE",
"389 349 CURVE",
"499 341 LINE",
"488 475 OFFCURVE",
"399 504 OFFCURVE",
"323 504 CURVE SMOOTH",
"262 504 OFFCURVE",
"191 479 OFFCURVE",
"161 379 CURVE",
"198 364 LINE",
"198 493 LINE",
"54 493 LINE",
"54 0 LINE"
);
}
);
width = 854;
},
{
anchors = (
{
name = bottom;
position = "{427, 0}";
},
{
name = top;
position = "{427, 493}";
}
);
associatedMasterId = "957254E3-B7AD-4837-9092-D4428001DE8E";
background = {
paths = (
{
closed = 1;
nodes = (
"205 0 LINE",
"205 230 LINE SMOOTH",
"205 329 OFFCURVE",
"234 373 OFFCURVE",
"298 373 CURVE SMOOTH",
"352 373 OFFCURVE",
"376 342 OFFCURVE",
"376 272 CURVE SMOOTH",
"376 0 LINE",
"527 0 LINE",
"527 328 LINE SMOOTH",
"527 436 OFFCURVE",
"459 504 OFFCURVE",
"345 504 CURVE SMOOTH",
"283 504 OFFCURVE",
"223 487 OFFCURVE",
"185 417 CURVE",
"205 417 LINE",
"205 493 LINE",
"54 493 LINE",
"54 0 LINE"
);
}
);
};
layerId = "0580A3FA-221D-40A8-B463-EA138C711417";
name = "Black [700]";
paths = (
{
closed = 1;
nodes = (
"205 0 LINE",
"205 239 LINE SMOOTH",
"205 330 OFFCURVE",
"231 373 OFFCURVE",
"288 373 CURVE SMOOTH",
"329 373 OFFCURVE",
"354 342 OFFCURVE",
"354 281 CURVE SMOOTH",
"354 0 LINE",
"504 0 LINE",
"504 239 LINE SMOOTH",
"504 331 OFFCURVE",
"529 373 OFFCURVE",
"583 373 CURVE SMOOTH",
"627 373 OFFCURVE",
"653 345 OFFCURVE",
"653 281 CURVE SMOOTH",
"653 0 LINE",
"804 0 LINE",
"804 318 LINE SMOOTH",
"804 407 OFFCURVE",
"748 504 OFFCURVE",
"619 504 CURVE SMOOTH",
"545 504 OFFCURVE",
"468 479 OFFCURVE",
"423 349 CURVE",
"514 341 LINE",
"491 475 OFFCURVE",
"403 504 OFFCURVE",
"335 504 CURVE SMOOTH",
"272 504 OFFCURVE",
"199 476 OFFCURVE",
"171 379 CURVE",
"205 364 LINE",
"205 493 LINE",
"54 493 LINE",
"54 0 LINE"
);
}
);
width = 854;
}
);
leftKerningGroup = m;
note = m;
rightKerningGroup = a;
unicode = 006D;
},
{
color = 1;
glyphname = n;
lastChange = "2020-06-16 10:24:20 +0000";
layers = (
{
anchors = (
{
name = bottom;
position = "{258, 0}";
},
{
name = top;
position = "{253, 493}";
}
);
layerId = "F91D9E91-C1BC-4259-B0D8-112C0CBA2B8E";
paths = (
{
closed = 1;
nodes = (
"100 0 LINE",
"100 263 LINE SMOOTH",
"100 419 OFFCURVE",
"164 488 OFFCURVE",
"267 488 CURVE SMOOTH",
"364 488 OFFCURVE",
"416 427 OFFCURVE",
"416 293 CURVE SMOOTH",
"416 0 LINE",
"426 0 LINE",
"426 295 LINE SMOOTH",
"426 438 OFFCURVE",
"365 498 OFFCURVE",
"264 498 CURVE SMOOTH",
"181 498 OFFCURVE",
"120 451 OFFCURVE",
"99 355 CURVE",
"100 355 LINE",
"100 493 LINE",
"90 493 LINE",
"90 0 LINE"
);
}
);
width = 511;
},
{
anchors = (
{
name = bottom;
position = "{280, 0}";
},
{
name = top;
position = "{280, 493}";
}
);
layerId = "957254E3-B7AD-4837-9092-D4428001DE8E";
paths = (
{
closed = 1;
nodes = (
"205 0 LINE",
"205 230 LINE SMOOTH",
"205 329 OFFCURVE",
"234 373 OFFCURVE",
"298 373 CURVE SMOOTH",
"352 373 OFFCURVE",
"376 342 OFFCURVE",
"376 272 CURVE SMOOTH",
"376 0 LINE",
"527 0 LINE",
"527 328 LINE SMOOTH",
"527 436 OFFCURVE",
"459 504 OFFCURVE",
"341 504 CURVE SMOOTH",
"277 504 OFFCURVE",
"215 487 OFFCURVE",
"176 417 CURVE",
"205 417 LINE",
"205 493 LINE",
"54 493 LINE",
"54 0 LINE"
);
}
);
width = 577;
},
{
anchors = (
{
name = bottom;
position = "{280, 0}";
},
{
name = top;
position = "{280, 493}";
}
);
associatedMasterId = "957254E3-B7AD-4837-9092-D4428001DE8E";
background = {
components = (
{
name = m;
transform = "{1, 0, 0, 1, -281, 0}";
}
);
};
layerId = "D9492487-E50D-4B39-8723-217D2835E4A5";
name = "Black [700]";
paths = (
{
closed = 1;
nodes = (
"205 0 LINE",
"205 230 LINE SMOOTH",
"205 329 OFFCURVE",
"234 373 OFFCURVE",
"298 373 CURVE SMOOTH",
"352 373 OFFCURVE",
"376 342 OFFCURVE",
"376 272 CURVE SMOOTH",
"376 0 LINE",
"527 0 LINE",
"527 328 LINE SMOOTH",
"527 436 OFFCURVE",
"459 504 OFFCURVE",
"345 504 CURVE SMOOTH",
"283 504 OFFCURVE",
"223 487 OFFCURVE",
"185 417 CURVE",
"205 417 LINE",
"205 493 LINE",
"54 493 LINE",
"54 0 LINE"
);
}
);
width = 577;
}
);
leftKerningGroup = m;
note = n;
rightKerningGroup = a;
unicode = 006E;
},
{
color = 1;
glyphname = eng;
lastChange = "2020-06-16 10:24:20 +0000";
layers = (
{
guideLines = (
{
position = "{381, -204}";
}
);
layerId = "F91D9E91-C1BC-4259-B0D8-112C0CBA2B8E";
paths = (
{
closed = 1;
nodes = (
"416 -209 OFFCURVE",
"439 -180 OFFCURVE",
"439 -114 CURVE SMOOTH",
"439 328 LINE SMOOTH",
"439 438 OFFCURVE",
"378 498 OFFCURVE",
"277 498 CURVE SMOOTH",
"194 498 OFFCURVE",
"133 454 OFFCURVE",
"112 380 CURVE",
"113 379 LINE",
"113 493 LINE",
"103 493 LINE",
"103 0 LINE",
"113 0 LINE",
"113 313 LINE SMOOTH",
"113 419 OFFCURVE",
"178 488 OFFCURVE",
"277 488 CURVE SMOOTH",
"377 488 OFFCURVE",
"429 428 OFFCURVE",
"429 313 CURVE SMOOTH",
"429 -114 LINE SMOOTH",
"429 -174 OFFCURVE",
"409 -200 OFFCURVE",
"369 -200 CURVE SMOOTH",
"354 -200 OFFCURVE",
"335 -196 OFFCURVE",
"314 -188 CURVE",
"314 -198.63 LINE",
"335.212 -205.239 OFFCURVE",
"354.486 -209 OFFCURVE",
"370 -209 CURVE SMOOTH"
);
}
);
width = 532;
},
{
guideLines = (
{
position = "{380, -204}";
}
);
layerId = "957254E3-B7AD-4837-9092-D4428001DE8E";
paths = (
{
closed = 1;
nodes = (
"475 -215 OFFCURVE",
"529 -172 OFFCURVE",
"529 -78 CURVE SMOOTH",
"529 328 LINE SMOOTH",
"529 441 OFFCURVE",
"458 504 OFFCURVE",
"347 504 CURVE SMOOTH",
"270 504 OFFCURVE",
"206 474 OFFCURVE",
"176 392 CURVE",
"207 360 LINE",
"207 493 LINE",
"56 493 LINE",
"56 0 LINE",
"207 0 LINE",
"207 179 LINE SMOOTH",
"207 242 OFFCURVE",
"177 373 OFFCURVE",
"298 373 CURVE SMOOTH",
"387 373 OFFCURVE",
"378 296 OFFCURVE",
"378 290 CURVE SMOOTH",
"378 -57 LINE SMOOTH",
"378 -80 OFFCURVE",
"368 -84 OFFCURVE",
"350 -84 CURVE SMOOTH",
"342 -84 OFFCURVE",
"333 -83 OFFCURVE",
"317 -79 CURVE",
"317 -199 LINE",
"347 -210 OFFCURVE",
"375 -215 OFFCURVE",
"402 -215 CURVE SMOOTH"
);
}
);
width = 574;
}
);
leftKerningGroup = m;
note = eng;
rightKerningGroup = a;
unicode = 014B;
},
{
glyphname = nhookleft;
lastChange = "2020-06-16 10:24:20 +0000";
layers = (
{
layerId = "F91D9E91-C1BC-4259-B0D8-112C0CBA2B8E";
paths = (
{
closed = 1;
nodes = (
"113 0 LINE",
"113 313 LINE SMOOTH",
"113 419 OFFCURVE",
"178 488 OFFCURVE",
"277 488 CURVE SMOOTH",
"377 488 OFFCURVE",
"429 428 OFFCURVE",
"429 313 CURVE SMOOTH",
"429 0 LINE",
"439 0 LINE",
"439 328 LINE SMOOTH",
"439 438 OFFCURVE",
"378 498 OFFCURVE",
"277 498 CURVE SMOOTH",
"194 498 OFFCURVE",
"133 454 OFFCURVE",
"112 380 CURVE",
"113 379 LINE",
"113 493 LINE",
"103 493 LINE",
"103 0 LINE"
);
},
{
closed = 1;
nodes = (
"90 -209 OFFCURVE",
"113 -180 OFFCURVE",
"113 -114 CURVE SMOOTH",
"113 0 LINE",
"103 0 LINE",
"103 -114 LINE SMOOTH",
"103 -174 OFFCURVE",
"83 -200 OFFCURVE",
"43 -200 CURVE SMOOTH",
"28 -200 OFFCURVE",
"9 -196 OFFCURVE",
"-12 -188 CURVE",
"-12 -198.63 LINE",
"9.212 -205.239 OFFCURVE",
"28.486 -209 OFFCURVE",
"44 -209 CURVE SMOOTH"
);
}
);
width = 524;
},
{
layerId = "957254E3-B7AD-4837-9092-D4428001DE8E";
paths = (
{
closed = 1;
nodes = (
"207 0 LINE",
"207 179 LINE SMOOTH",
"207 242 OFFCURVE",
"177 373 OFFCURVE",
"298 373 CURVE SMOOTH",
"387 373 OFFCURVE",
"378 296 OFFCURVE",
"378 290 CURVE SMOOTH",
"378 0 LINE",
"529 0 LINE",
"529 328 LINE SMOOTH",
"529 441 OFFCURVE",
"458 504 OFFCURVE",
"347 504 CURVE SMOOTH",
"270 504 OFFCURVE",
"206 474 OFFCURVE",
"176 392 CURVE",
"207 360 LINE",
"207 493 LINE",
"56 493 LINE",
"56 0 LINE"
);
},
{
closed = 1;
nodes = (
"153 -215 OFFCURVE",
"207 -172 OFFCURVE",
"207 -78 CURVE SMOOTH",
"207 0 LINE",
"56 0 LINE",
"56 -57 LINE SMOOTH",
"56 -80 OFFCURVE",
"46 -84 OFFCURVE",
"28 -84 CURVE SMOOTH",
"20 -84 OFFCURVE",
"11 -83 OFFCURVE",
"-5 -79 CURVE",
"-5 -199 LINE",
"25 -210 OFFCURVE",
"53 -215 OFFCURVE",
"80 -215 CURVE SMOOTH"
);
}
);
width = 579;
}
);
leftKerningGroup = m;
rightKerningGroup = a;
rightMetricsKey = h;
unicode = 0272;
},
{
color = 1;
glyphname = o;
lastChange = "2020-06-19 15:10:15 +0000";
layers = (
{
anchors = (
{
name = bottom;
position = "{290, 0}";
},
{
name = center;
position = "{290, 247}";
},
{
name = ogonek;
position = "{335, 0}";
},
{
name = top;
position = "{290, 493}";
},
{
name = topright;
position = "{523, 390}";
}
);
layerId = "F91D9E91-C1BC-4259-B0D8-112C0CBA2B8E";
paths = (
{
closed = 1;
nodes = (
"422 -5 OFFCURVE",
"515 99 OFFCURVE",
"515 247 CURVE SMOOTH",
"515 395 OFFCURVE",
"422 498 OFFCURVE",
"289 498 CURVE SMOOTH",
"157 498 OFFCURVE",
"66 396 OFFCURVE",
"66 247 CURVE SMOOTH",
"66 98 OFFCURVE",
"157 -5 OFFCURVE",
"289 -5 CURVE SMOOTH"
);
},
{
closed = 1;
nodes = (
"163 5 OFFCURVE",
"76 104 OFFCURVE",
"76 247 CURVE SMOOTH",
"76 390 OFFCURVE",
"163 488 OFFCURVE",
"289 488 CURVE SMOOTH",
"416 488 OFFCURVE",
"505 389 OFFCURVE",
"505 247 CURVE SMOOTH",
"505 105 OFFCURVE",
"416 5 OFFCURVE",
"289 5 CURVE SMOOTH"
);
}
);
width = 581;
},
{
anchors = (
{
name = bottom;
position = "{285, 0}";
},
{
name = center;
position = "{285, 247}";
},
{
name = ogonek;
position = "{361, 0}";
},
{
name = top;
position = "{285, 493}";
},
{
name = topright;
position = "{549, 326}";
}
);
layerId = "957254E3-B7AD-4837-9092-D4428001DE8E";
paths = (
{
closed = 1;
nodes = (
"430 -11 OFFCURVE",
"538 99 OFFCURVE",
"538 247 CURVE SMOOTH",
"538 396 OFFCURVE",
"431 504 OFFCURVE",
"285 504 CURVE SMOOTH",
"138 504 OFFCURVE",
"31 396 OFFCURVE",
"31 247 CURVE SMOOTH",
"31 98 OFFCURVE",
"139 -11 OFFCURVE",
"285 -11 CURVE SMOOTH"
);
},
{
closed = 1;
nodes = (
"219 121 OFFCURVE",
"182 166 OFFCURVE",
"182 247 CURVE SMOOTH",
"182 328 OFFCURVE",
"218 372 OFFCURVE",
"285 372 CURVE SMOOTH",
"351 372 OFFCURVE",
"387 328 OFFCURVE",
"387 247 CURVE SMOOTH",
"387 166 OFFCURVE",
"351 121 OFFCURVE",
"285 121 CURVE SMOOTH"
);
}
);
width = 570;
}
);
leftKerningGroup = c;
note = o;
rightKerningGroup = o;
unicode = 006F;
},
{
color = 1;
glyphname = thorn;
lastChange = "2020-06-16 10:24:20 +0000";
layers = (
{
anchors = (
{
name = bottom;
position = "{300, 0}";
},
{
name = top;
position = "{300, 493}";
}
);
guideLines = (
{
position = "{381, -204}";
}
);
layerId = "F91D9E91-C1BC-4259-B0D8-112C0CBA2B8E";
paths = (
{
closed = 1;
nodes = (
"114 -204 LINE",
"114 172 LINE",
"113 171 LINE",
"139 67 OFFCURVE",
"222 -5 OFFCURVE",
"327 -5 CURVE SMOOTH",
"456 -5 OFFCURVE",
"533 103 OFFCURVE",
"533 245 CURVE SMOOTH",
"533 389 OFFCURVE",
"456 498 OFFCURVE",
"327 498 CURVE SMOOTH",
"222 498 OFFCURVE",
"139 426 OFFCURVE",
"113 321 CURVE",
"114 320 LINE",
"114 697 LINE",
"104 697 LINE",
"104 -204 LINE"
);
},
{
closed = 1;
nodes = (
"205 5 OFFCURVE",
"114 108 OFFCURVE",
"114 245 CURVE SMOOTH",
"114 384 OFFCURVE",
"205 488 OFFCURVE",
"327 488 CURVE SMOOTH",
"451 488 OFFCURVE",
"523 383 OFFCURVE",
"523 245 CURVE SMOOTH",
"523 109 OFFCURVE",
"451 5 OFFCURVE",
"327 5 CURVE SMOOTH"
);
}
);
width = 599;
},
{
anchors = (
{
name = bottom;
position = "{276, 0}";
},
{
name = top;
position = "{276, 493}";
}
);
guideLines = (
{
position = "{380, -204}";
}
);
layerId = "957254E3-B7AD-4837-9092-D4428001DE8E";
paths = (
{
closed = 1;
nodes = (
"208 -204 LINE",
"208 124 LINE",
"182 82 LINE",
"197 27 OFFCURVE",
"271 -11 OFFCURVE",
"337 -11 CURVE SMOOTH",
"444 -11 OFFCURVE",
"538 76 OFFCURVE",
"538 245 CURVE SMOOTH",
"538 390 OFFCURVE",
"469 504 OFFCURVE",
"337 504 CURVE SMOOTH",
"277 504 OFFCURVE",
"201 479 OFFCURVE",
"177 405 CURVE",
"208 371 LINE",
"208 697 LINE",
"57 697 LINE",
"57 -204 LINE"
);
},
{
closed = 1;
nodes = (
"220 120 OFFCURVE",
"194 177 OFFCURVE",
"194 247 CURVE SMOOTH",
"194 317 OFFCURVE",
"217 372 OFFCURVE",
"297 372 CURVE SMOOTH",
"364 372 OFFCURVE",
"388 332 OFFCURVE",
"388 247 CURVE SMOOTH",
"388 161 OFFCURVE",
"360 120 OFFCURVE",
"295 120 CURVE SMOOTH"
);
}
);
width = 556;
}
);
leftKerningGroup = b;
note = thorn;
rightKerningGroup = o;
unicode = 00FE;
},
{
color = 1;
glyphname = r;
lastChange = "2020-06-16 10:24:20 +0000";
layers = (
{
anchors = (
{
name = bottom;
position = "{176, 0}";
},
{
name = top;
position = "{176, 493}";
}
);
layerId = "F91D9E91-C1BC-4259-B0D8-112C0CBA2B8E";
paths = (
{
closed = 1;
nodes = (
"100 0 LINE",
"100 265 LINE SMOOTH",
"100 320 OFFCURVE",
"103 343 OFFCURVE",
"109 363 CURVE SMOOTH",
"134 454 OFFCURVE",
"210 488 OFFCURVE",
"272 488 CURVE SMOOTH",
"292 488 OFFCURVE",
"312 484 OFFCURVE",
"330 477 CURVE",
"336 486 LINE",
"316 494 OFFCURVE",
"294 498 OFFCURVE",
"272 498 CURVE SMOOTH",
"208 498 OFFCURVE",
"126 461 OFFCURVE",
"99 365 CURVE",
"100 365 LINE",
"100 493 LINE",
"90 493 LINE",
"90 0 LINE"
);
}
);
width = 368;
},
{
anchors = (
{
name = bottom;
position = "{200, 0}";
},
{
name = top;
position = "{200, 493}";
}
);
layerId = "957254E3-B7AD-4837-9092-D4428001DE8E";
paths = (
{
closed = 1;
nodes = (
"205 0 LINE",
"205 199 LINE SMOOTH",
"205 253 OFFCURVE",
"208 274 OFFCURVE",
"213 291 CURVE SMOOTH",
"226 336 OFFCURVE",
"255 359 OFFCURVE",
"293 359 CURVE SMOOTH",
"317 359 OFFCURVE",
"343 350 OFFCURVE",
"357 341 CURVE",
"429 472 LINE",
"398 492 OFFCURVE",
"357 504 OFFCURVE",
"318 504 CURVE SMOOTH",
"231 504 OFFCURVE",
"174 431 OFFCURVE",
"172 348 CURVE",
"206 348 LINE",
"206 493 LINE",
"54 493 LINE",
"54 0 LINE"
);
}
);
width = 438;
},
{
anchors = (
{
name = bottom;
position = "{200, 0}";
},
{
name = top;
position = "{200, 493}";
}
);
associatedMasterId = "957254E3-B7AD-4837-9092-D4428001DE8E";
layerId = "7FB09461-7FA3-46D7-96BB-420C4DEB4B56";
name = "Black [700]";
paths = (
{
closed = 1;
nodes = (
"205 0 LINE",
"205 199 LINE SMOOTH",
"205 256 OFFCURVE",
"208 279 OFFCURVE",
"215 297 CURVE SMOOTH",
"229 336 OFFCURVE",
"257 354 OFFCURVE",
"293 354 CURVE SMOOTH",
"317 354 OFFCURVE",
"343 345 OFFCURVE",
"357 336 CURVE",
"429 472 LINE",
"394 495 OFFCURVE",
"364 504 OFFCURVE",
"330 504 CURVE SMOOTH",
"259 504 OFFCURVE",
"190 442 OFFCURVE",
"188 358 CURVE",
"206 358 LINE",
"206 493 LINE",
"54 493 LINE",
"54 0 LINE"
);
}
);
width = 438;
}
);
leftKerningGroup = m;
note = r;
rightKerningGroup = r;
unicode = 0072;
},
{
color = 1;
glyphname = s;
lastChange = "2020-06-16 10:24:20 +0000";
layers = (
{
anchors = (
{
name = bottom;
position = "{236, 0}";
},
{
name = top;
position = "{236, 493}";
}
);
layerId = "F91D9E91-C1BC-4259-B0D8-112C0CBA2B8E";
paths = (
{
closed = 1;
nodes = (
"349 -5 OFFCURVE",
"410 46 OFFCURVE",
"410 127 CURVE SMOOTH",
"410 229 OFFCURVE",
"321 249 OFFCURVE",
"236 269 CURVE SMOOTH",
"159 287 OFFCURVE",
"85 304 OFFCURVE",
"85 381 CURVE SMOOTH",
"85 453 OFFCURVE",
"147 488 OFFCURVE",
"225 488 CURVE SMOOTH",
"302 488 OFFCURVE",
"350 454 OFFCURVE",
"381 395 CURVE",
"390 399 LINE",
"358 463 OFFCURVE",
"305 498 OFFCURVE",
"225 498 CURVE SMOOTH",
"141 498 OFFCURVE",
"75 459 OFFCURVE",
"75 381 CURVE SMOOTH",
"75 297 OFFCURVE",
"153 279 OFFCURVE",
"233 260 CURVE SMOOTH",
"316 240 OFFCURVE",
"400 221 OFFCURVE",
"400 127 CURVE SMOOTH",
"400 50 OFFCURVE",
"340 5 OFFCURVE",
"251 5 CURVE SMOOTH",
"161 5 OFFCURVE",
"93 51 OFFCURVE",
"69 120 CURVE",
"60 116 LINE",
"86 42 OFFCURVE",
"158 -5 OFFCURVE",
"251 -5 CURVE SMOOTH"
);
}
);
width = 473;
},
{
anchors = (
{
name = bottom;
position = "{247, 0}";
},
{
name = top;
position = "{247, 493}";
}
);
layerId = "957254E3-B7AD-4837-9092-D4428001DE8E";
paths = (
{
closed = 1;
nodes = (
"366 -11 OFFCURVE",
"451 59 OFFCURVE",
"451 162 CURVE SMOOTH",
"451 280 OFFCURVE",
"342 307 OFFCURVE",
"264 326 CURVE SMOOTH",
"205 341 OFFCURVE",
"188 349 OFFCURVE",
"188 361 CURVE SMOOTH",
"188 374 OFFCURVE",
"208 384 OFFCURVE",
"236 384 CURVE SMOOTH",
"273 384 OFFCURVE",
"305 369 OFFCURVE",
"335 338 CURVE",
"439 420 LINE",
"392 475 OFFCURVE",
"323 504 OFFCURVE",
"242 504 CURVE SMOOTH",
"125 504 OFFCURVE",
"47 433 OFFCURVE",
"47 351 CURVE SMOOTH",
"47 242 OFFCURVE",
"147 213 OFFCURVE",
"222 192 CURVE SMOOTH",
"284 174 OFFCURVE",
"303 163 OFFCURVE",
"303 146 CURVE SMOOTH",
"303 125 OFFCURVE",
"288 113 OFFCURVE",
"251 113 CURVE SMOOTH",
"208 113 OFFCURVE",
"162 134 OFFCURVE",
"126 176 CURVE",
"24 86 LINE",
"86 22 OFFCURVE",
"159 -11 OFFCURVE",
"240 -11 CURVE SMOOTH"
);
}
);
width = 482;
},
{
anchors = (
{
name = bottom;
position = "{247, 0}";
},
{
name = top;
position = "{247, 493}";
}
);
associatedMasterId = "957254E3-B7AD-4837-9092-D4428001DE8E";
layerId = "AC8D48D6-B89F-4518-A873-3B4575D3FB0C";
name = "Black [700]";
paths = (
{
closed = 1;
nodes = (
"366 -11 OFFCURVE",
"451 59 OFFCURVE",
"451 162 CURVE SMOOTH",
"451 280 OFFCURVE",
"342 307 OFFCURVE",
"264 326 CURVE SMOOTH",
"204 341 OFFCURVE",
"188 349 OFFCURVE",
"188 365 CURVE SMOOTH",
"188 381 OFFCURVE",
"209 393 OFFCURVE",
"238 393 CURVE SMOOTH",
"274 393 OFFCURVE",
"305 376 OFFCURVE",
"335 338 CURVE",
"431 415 LINE",
"384 474 OFFCURVE",
"320 504 OFFCURVE",
"242 504 CURVE SMOOTH",
"125 504 OFFCURVE",
"47 443 OFFCURVE",
"47 351 CURVE SMOOTH",
"47 242 OFFCURVE",
"147 213 OFFCURVE",
"222 192 CURVE SMOOTH",
"267 179 OFFCURVE",
"303 169 OFFCURVE",
"303 145 CURVE SMOOTH",
"303 127 OFFCURVE",
"281 109 OFFCURVE",
"241 109 CURVE SMOOTH",
"183 109 OFFCURVE",
"149 148 OFFCURVE",
"126 176 CURVE",
"24 86 LINE",
"59 50 OFFCURVE",
"124 -11 OFFCURVE",
"240 -11 CURVE SMOOTH"
);
}
);
width = 482;
}
);
leftKerningGroup = s;
note = s;
rightKerningGroup = s;
unicode = 0073;
},
{
color = 1;
glyphname = germandbls;
lastChange = "2020-06-16 10:24:20 +0000";
layers = (
{
layerId = "F91D9E91-C1BC-4259-B0D8-112C0CBA2B8E";
paths = (
{
closed = 1;
nodes = (
"488 -5 OFFCURVE",
"548 44 OFFCURVE",
"548 127 CURVE SMOOTH",
"548 324 OFFCURVE",
"223 211 OFFCURVE",
"223 382 CURVE SMOOTH",
"223 544 OFFCURVE",
"455 453 OFFCURVE",
"455 582 CURVE SMOOTH",
"455 650 OFFCURVE",
"380 707 OFFCURVE",
"278 707 CURVE SMOOTH",
"112 707 OFFCURVE",
"90 583 OFFCURVE",
"90 466 CURVE SMOOTH",
"90 0 LINE",
"100 0 LINE",
"100 466 LINE SMOOTH",
"100 579 OFFCURVE",
"119 697 OFFCURVE",
"278 697 CURVE SMOOTH",
"372 697 OFFCURVE",
"445 646 OFFCURVE",
"445 584 CURVE SMOOTH",
"445 462 OFFCURVE",
"213 552 OFFCURVE",
"213 382 CURVE SMOOTH",
"213 200 OFFCURVE",
"538 314 OFFCURVE",
"538 127 CURVE SMOOTH",
"538 51 OFFCURVE",
"482 5 OFFCURVE",
"389 5 CURVE SMOOTH",
"303 5 OFFCURVE",
"231 51 OFFCURVE",
"207 120 CURVE",
"197 116 LINE",
"223 42 OFFCURVE",
"299 -5 OFFCURVE",
"389 -5 CURVE SMOOTH"
);
}
);
width = 600;
},
{
layerId = "957254E3-B7AD-4837-9092-D4428001DE8E";
paths = (
{
closed = 1;
nodes = (
"526 -11 OFFCURVE",
"636 39 OFFCURVE",
"636 163 CURVE SMOOTH",
"636 340 OFFCURVE",
"410 315 OFFCURVE",
"410 344 CURVE SMOOTH",
"410 370 OFFCURVE",
"593 383 OFFCURVE",
"593 538 CURVE SMOOTH",
"593 653 OFFCURVE",
"493 707 OFFCURVE",
"344 707 CURVE SMOOTH",
"108 707 OFFCURVE",
"54 571 OFFCURVE",
"54 427 CURVE SMOOTH",
"54 0 LINE",
"211 0 LINE",
"211 427 LINE SMOOTH",
"211 480 OFFCURVE",
"208 566 OFFCURVE",
"356 566 CURVE SMOOTH",
"395 566 OFFCURVE",
"445 560 OFFCURVE",
"445 533 CURVE SMOOTH",
"445 481 OFFCURVE",
"262 495 OFFCURVE",
"262 344 CURVE SMOOTH",
"262 176 OFFCURVE",
"488 209 OFFCURVE",
"488 148 CURVE SMOOTH",
"488 132 OFFCURVE",
"473 114 OFFCURVE",
"433 114 CURVE SMOOTH",
"369 114 OFFCURVE",
"354 158 OFFCURVE",
"344 185 CURVE",
"224 132 LINE",
"247 56 OFFCURVE",
"327 -11 OFFCURVE",
"435 -11 CURVE SMOOTH"
);
}
);
width = 664;
}
);
leftKerningGroup = germandbls;
rightKerningGroup = germandbls;
unicode = 00DF;
},
{
color = 1;
glyphname = t;
lastChange = "2020-06-16 10:24:20 +0000";
layers = (
{
anchors = (
{
name = bottom;
position = "{167, 0}";
},
{
name = center;
position = "{140, 247}";
},
{
name = top;
position = "{146, 493}";
},
{
name = topright;
position = "{267, 579}";
}
);
layerId = "F91D9E91-C1BC-4259-B0D8-112C0CBA2B8E";
paths = (
{
closed = 1;
nodes = (
"204.514 -5 OFFCURVE",
"223.788 -1.239 OFFCURVE",
"245 5.37 CURVE",
"245 16 LINE",
"224 8 OFFCURVE",
"205 4 OFFCURVE",
"190 4 CURVE SMOOTH",
"150 4 OFFCURVE",
"130 30 OFFCURVE",
"130 90 CURVE SMOOTH",
"130 667 LINE",
"120 657 LINE",
"120 90 LINE SMOOTH",
"120 24 OFFCURVE",
"143 -5 OFFCURVE",
"189 -5 CURVE SMOOTH"
);
},
{
closed = 1;
nodes = (
"245 483 LINE",
"245 493 LINE",
"36 493 LINE",
"36 483 LINE"
);
}
);
width = 286;
},
{
anchors = (
{
name = bottom;
position = "{249, 0}";
},
{
name = center;
position = "{198, 248}";
},
{
name = top;
position = "{211, 493}";
},
{
name = topright;
position = "{385, 582}";
}
);
layerId = "957254E3-B7AD-4837-9092-D4428001DE8E";
paths = (
{
closed = 1;
nodes = (
"309 -11 OFFCURVE",
"341 -6 OFFCURVE",
"374 5 CURVE",
"374 120 LINE",
"352 115 OFFCURVE",
"330 111 OFFCURVE",
"310 111 CURVE SMOOTH",
"248 111 OFFCURVE",
"248 152 OFFCURVE",
"248 171 CURVE SMOOTH",
"248 677 LINE",
"98 596 LINE",
"98 157 LINE SMOOTH",
"98 31 OFFCURVE",
"181 -11 OFFCURVE",
"274 -11 CURVE SMOOTH"
);
},
{
closed = 1;
nodes = (
"374 376 LINE",
"374 493 LINE",
"19 493 LINE",
"19 376 LINE"
);
}
);
width = 408;
}
);
leftKerningGroup = t;
note = t;
rightKerningGroup = t;
unicode = 0074;
},
{
color = 1;
glyphname = u;
lastChange = "2020-06-16 10:24:20 +0000";
layers = (
{
anchors = (
{
name = bottom;
position = "{257, 0}";
},
{
name = ogonek;
position = "{419, 0}";
},
{
name = top;
position = "{251, 493}";
},
{
name = topright;
position = "{469, 475}";
}
);
layerId = "F91D9E91-C1BC-4259-B0D8-112C0CBA2B8E";
paths = (
{
closed = 1;
nodes = (
"328 -5 OFFCURVE",
"389 39 OFFCURVE",
"410 138 CURVE",
"409 138 LINE",
"409 0 LINE",
"419 0 LINE",
"419 493 LINE",
"409 493 LINE",
"409 230 LINE SMOOTH",
"409 74 OFFCURVE",
"345 5 OFFCURVE",
"242 5 CURVE SMOOTH",
"145 5 OFFCURVE",
"93 66 OFFCURVE",
"93 200 CURVE SMOOTH",
"93 493 LINE",
"83 493 LINE",
"83 198 LINE SMOOTH",
"83 55 OFFCURVE",
"144 -5 OFFCURVE",
"245 -5 CURVE SMOOTH"
);
}
);
width = 510;
},
{
anchors = (
{
name = bottom;
position = "{290, 0}";
},
{
name = ogonek;
position = "{521, 0}";
},
{
name = top;
position = "{284, 493}";
},
{
name = topright;
position = "{505, 396}";
}
);
layerId = "957254E3-B7AD-4837-9092-D4428001DE8E";
paths = (
{
closed = 1;
nodes = (
"298 -11 OFFCURVE",
"360 6 OFFCURVE",
"399 76 CURVE",
"370 76 LINE",
"370 0 LINE",
"521 0 LINE",
"521 493 LINE",
"370 493 LINE",
"370 263 LINE SMOOTH",
"370 164 OFFCURVE",
"341 120 OFFCURVE",
"277 120 CURVE SMOOTH",
"223 120 OFFCURVE",
"199 151 OFFCURVE",
"199 221 CURVE SMOOTH",
"199 493 LINE",
"48 493 LINE",
"48 165 LINE SMOOTH",
"48 57 OFFCURVE",
"116 -11 OFFCURVE",
"234 -11 CURVE SMOOTH"
);
}
);
width = 576;
},
{
anchors = (
{
name = bottom;
position = "{290, 0}";
},
{
name = ogonek;
position = "{521, 0}";
},
{
name = top;
position = "{284, 493}";
},
{
name = topright;
position = "{505, 396}";
}
);
associatedMasterId = "957254E3-B7AD-4837-9092-D4428001DE8E";
layerId = "9BA5B9ED-9EFE-48C8-9F53-D8983F0DE0B0";
name = "Black [700]";
paths = (
{
closed = 1;
nodes = (
"296 -11 OFFCURVE",
"353 13 OFFCURVE",
"390 76 CURVE",
"370 108 LINE",
"370 0 LINE",
"521 0 LINE",
"521 493 LINE",
"370 493 LINE",
"370 330 LINE SMOOTH",
"370 213 OFFCURVE",
"370 120 OFFCURVE",
"279 120 CURVE SMOOTH",
"206 120 OFFCURVE",
"199 171 OFFCURVE",
"199 219 CURVE SMOOTH",
"199 493 LINE",
"48 493 LINE",
"48 188 LINE SMOOTH",
"48 72 OFFCURVE",
"102 -11 OFFCURVE",
"233 -11 CURVE SMOOTH"
);
}
);
width = 576;
}
);
leftKerningGroup = u;
note = u;
rightKerningGroup = u;
unicode = 0075;
},
{
color = 1;
glyphname = v;
lastChange = "2020-06-16 10:24:20 +0000";
layers = (
{
anchors = (
{
name = bottom;
position = "{247, 0}";
},
{
name = top;
position = "{247, 493}";
}
);
layerId = "F91D9E91-C1BC-4259-B0D8-112C0CBA2B8E";
paths = (
{
closed = 1;
nodes = (
"253 0 LINE",
"455 493 LINE",
"442 493 LINE",
"246 10 LINE",
"50 493 LINE",
"38 493 LINE",
"240 0 LINE"
);
}
);
width = 493;
},
{
anchors = (
{
name = bottom;
position = "{272, 0}";
},
{
name = top;
position = "{272, 493}";
}
);
layerId = "957254E3-B7AD-4837-9092-D4428001DE8E";
paths = (
{
closed = 1;
nodes = (
"333 0 LINE",
"533 493 LINE",
"371 493 LINE",
"271 197 LINE",
"174 493 LINE",
"9 493 LINE",
"210 0 LINE"
);
}
);
width = 543;
}
);
leftKerningGroup = v;
note = v;
rightKerningGroup = v;
unicode = 0076;
},
{
color = 1;
glyphname = w;
lastChange = "2020-06-16 10:24:20 +0000";
layers = (
{
anchors = (
{
name = bottom;
position = "{368, 0}";
},
{
name = top;
position = "{368, 493}";
}
);
layerId = "F91D9E91-C1BC-4259-B0D8-112C0CBA2B8E";
paths = (
{
closed = 1;
nodes = (
"196 0 LINE",
"369 483 LINE",
"540 0 LINE",
"556 0 LINE",
"691 493 LINE",
"680 493 LINE",
"548 12 LINE",
"377 493 LINE",
"361 493 LINE",
"189 12 LINE",
"57 493 LINE",
"45 493 LINE",
"181 0 LINE"
);
}
);
width = 736;
},
{
anchors = (
{
name = bottom;
position = "{379, 0}";
},
{
name = top;
position = "{379, 493}";
}
);
layerId = "957254E3-B7AD-4837-9092-D4428001DE8E";
paths = (
{
closed = 1;
nodes = (
"303 0 LINE",
"378 278 LINE",
"455 0 LINE",
"588 0 LINE",
"745 493 LINE",
"584 493 LINE",
"512 234 LINE",
"441 493 LINE",
"314 493 LINE",
"243 232 LINE",
"172 493 LINE",
"12 493 LINE",
"168 0 LINE"
);
}
);
width = 758;
}
);
leftKerningGroup = w;
note = w;
rightKerningGroup = w;
unicode = 0077;
},
{
color = 1;
glyphname = x;
lastChange = "2020-06-16 10:24:20 +0000";
layers = (
{
anchors = (
{
name = bottom;
position = "{241, 0}";
},
{
name = top;
position = "{241, 493}";
}
);
layerId = "F91D9E91-C1BC-4259-B0D8-112C0CBA2B8E";
paths = (
{
closed = 1;
nodes = (
"56 0 LINE",
"241 238 LINE",
"428 0 LINE",
"441 0 LINE",
"247 246 LINE",
"440 493 LINE",
"427 493 LINE",
"241 255 LINE",
"55 493 LINE",
"42 493 LINE",
"235 246 LINE",
"42 0 LINE"
);
}
);
width = 483;
},
{
anchors = (
{
name = bottom;
position = "{276, 0}";
},
{
name = top;
position = "{276, 493}";
}
);
layerId = "957254E3-B7AD-4837-9092-D4428001DE8E";
paths = (
{
closed = 1;
nodes = (
"197 0 LINE",
"276 146 LINE",
"354 0 LINE",
"539 0 LINE",
"375 249 LINE",
"539 493 LINE",
"354 493 LINE",
"276 351 LINE",
"198 493 LINE",
"13 493 LINE",
"175 249 LINE",
"13 0 LINE"
);
}
);
width = 553;
}
);
leftKerningGroup = x;
note = x;
rightKerningGroup = x;
unicode = 0078;
},
{
color = 1;
glyphname = y;
lastChange = "2020-06-16 10:24:20 +0000";
layers = (
{
anchors = (
{
name = bottom;
position = "{397, -30}";
},
{
name = top;
position = "{248, 493}";
}
);
guideLines = (
{
position = "{382, -204}";
}
);
layerId = "F91D9E91-C1BC-4259-B0D8-112C0CBA2B8E";
paths = (
{
closed = 1;
nodes = (
"199 -204 LINE",
"456 493 LINE",
"445 493 LINE",
"269 14 LINE",
"47 493 LINE",
"36 493 LINE",
"263 -1 LINE",
"188 -204 LINE"
);
}
);
width = 495;
},
{
anchors = (
{
name = bottom;
position = "{440, -31}";
},
{
name = top;
position = "{281, 493}";
}
);
guideLines = (
{
position = "{410, -204}";
}
);
layerId = "957254E3-B7AD-4837-9092-D4428001DE8E";
paths = (
{
closed = 1;
nodes = (
"265 -204 LINE",
"551 493 LINE",
"386 493 LINE",
"274 189 LINE",
"176 493 LINE",
"10 493 LINE",
"193 17 LINE",
"102 -204 LINE"
);
}
);
width = 561;
}
);
leftKerningGroup = w;
note = y;
rightKerningGroup = v;
unicode = 0079;
},
{
color = 1;
glyphname = z;
lastChange = "2020-06-16 10:24:20 +0000";
layers = (
{
anchors = (
{
name = bottom;
position = "{236, 0}";
},
{
name = center;
position = "{236, 247}";
},
{
name = top;
position = "{236, 493}";
}
);
layerId = "F91D9E91-C1BC-4259-B0D8-112C0CBA2B8E";
paths = (
{
closed = 1;
nodes = (
"422 0 LINE",
"422 10 LINE",
"52 10 LINE",
"52 12 LINE",
"427 474 LINE",
"427 493 LINE",
"61 493 LINE",
"61 483 LINE",
"417 483 LINE",
"417 478 LINE",
"41 16 LINE",
"41 0 LINE"
);
}
);
width = 470;
},
{
anchors = (
{
name = bottom;
position = "{235, 0}";
},
{
name = center;
position = "{235, 247}";
},
{
name = top;
position = "{235, 493}";
}
);
layerId = "957254E3-B7AD-4837-9092-D4428001DE8E";
paths = (
{
closed = 1;
nodes = (
"433 0 LINE",
"433 126 LINE",
"174 126 LINE",
"189 76 LINE",
"432 388 LINE",
"432 493 LINE",
"41 493 LINE",
"41 367 LINE",
"294 367 LINE",
"280 409 LINE",
"32 98 LINE",
"32 0 LINE"
);
}
);
width = 468;
}
);
leftKerningGroup = z;
note = z;
rightKerningGroup = z;
unicode = 007A;
},
{
color = 1;
glyphname = g.ss01;
lastChange = "2020-06-19 14:55:44 +0000";
layers = (
{
anchors = (
{
name = bottom;
position = "{288, -209}";
},
{
name = top;
position = "{310, 493}";
}
);
guideLines = (
{
position = "{384, -204}";
}
);
layerId = "F91D9E91-C1BC-4259-B0D8-112C0CBA2B8E";
paths = (
{
closed = 1;
nodes = (
"416 -209 OFFCURVE",
"514 -153 OFFCURVE",
"514 10 CURVE SMOOTH",
"514 493 LINE",
"504 493 LINE",
"504 321 LINE",
"505 322 LINE",
"479 426 OFFCURVE",
"396 498 OFFCURVE",
"291 498 CURVE SMOOTH",
"163 498 OFFCURVE",
"65 390 OFFCURVE",
"65 252 CURVE SMOOTH",
"65 114 OFFCURVE",
"163 5 OFFCURVE",
"291 5 CURVE SMOOTH",
"396 5 OFFCURVE",
"479 77 OFFCURVE",
"505 182 CURVE",
"504 183 LINE",
"504 10 LINE SMOOTH",
"504 -147 OFFCURVE",
"411 -199 OFFCURVE",
"288 -199 CURVE SMOOTH",
"198 -199 OFFCURVE",
"124 -147 OFFCURVE",
"91 -64 CURVE",
"83 -70 LINE",
"118 -156 OFFCURVE",
"195 -209 OFFCURVE",
"288 -209 CURVE SMOOTH"
);
},
{
closed = 1;
nodes = (
"168 15 OFFCURVE",
"75 120 OFFCURVE",
"75 252 CURVE SMOOTH",
"75 384 OFFCURVE",
"168 488 OFFCURVE",
"291 488 CURVE SMOOTH",
"413 488 OFFCURVE",
"504 385 OFFCURVE",
"504 252 CURVE SMOOTH",
"504 119 OFFCURVE",
"413 15 OFFCURVE",
"291 15 CURVE SMOOTH"
);
}
);
width = 605;
},
{
anchors = (
{
name = bottom;
position = "{273, -215}";
},
{
name = top;
position = "{287, 493}";
}
);
guideLines = (
{
position = "{398, -204}";
},
{
angle = 90;
position = "{59, 262}";
}
);
layerId = "957254E3-B7AD-4837-9092-D4428001DE8E";
paths = (
{
closed = 1;
nodes = (
"418 -215 OFFCURVE",
"516 -144 OFFCURVE",
"516 15 CURVE SMOOTH",
"516 493 LINE",
"366 493 LINE",
"366 431 LINE",
"396 460 LINE",
"366 488 OFFCURVE",
"321 504 OFFCURVE",
"261 504 CURVE SMOOTH",
"131 504 OFFCURVE",
"35 412 OFFCURVE",
"35 257 CURVE SMOOTH",
"35 119 OFFCURVE",
"112 9 OFFCURVE",
"261 9 CURVE SMOOTH",
"317 9 OFFCURVE",
"362 19 OFFCURVE",
"399 54 CURVE",
"366 80 LINE",
"366 15 LINE SMOOTH",
"366 -72 OFFCURVE",
"313 -86 OFFCURVE",
"272 -86 CURVE SMOOTH",
"214 -86 OFFCURVE",
"185 -48 OFFCURVE",
"164 -18 CURVE",
"47 -110 LINE",
"89 -163 OFFCURVE",
"152 -215 OFFCURVE",
"273 -215 CURVE SMOOTH"
);
},
{
closed = 1;
nodes = (
"219 150 OFFCURVE",
"186 190 OFFCURVE",
"186 255 CURVE SMOOTH",
"186 322 OFFCURVE",
"222 366 OFFCURVE",
"283 366 CURVE SMOOTH",
"344 366 OFFCURVE",
"380 321 OFFCURVE",
"380 255 CURVE SMOOTH",
"380 191 OFFCURVE",
"345 150 OFFCURVE",
"282 150 CURVE SMOOTH"
);
}
);
width = 571;
},
{
anchors = (
{
name = bottom;
position = "{273, -215}";
},
{
name = top;
position = "{286, 493}";
}
);
associatedMasterId = "957254E3-B7AD-4837-9092-D4428001DE8E";
background = {
paths = (
{
closed = 1;
nodes = (
"418 -215 OFFCURVE",
"516 -144 OFFCURVE",
"516 15 CURVE SMOOTH",
"516 493 LINE",
"364 493 LINE",
"364 369 LINE",
"396 401 LINE",
"368 480 OFFCURVE",
"296 504 OFFCURVE",
"233 504 CURVE SMOOTH",
"103 504 OFFCURVE",
"30 403 OFFCURVE",
"30 259 CURVE SMOOTH",
"30 112 OFFCURVE",
"106 17 OFFCURVE",
"237 17 CURVE SMOOTH",
"301 17 OFFCURVE",
"364 40 OFFCURVE",
"396 122 CURVE",
"364 152 LINE",
"364 15 LINE SMOOTH",
"364 -72 OFFCURVE",
"313 -86 OFFCURVE",
"272 -86 CURVE SMOOTH",
"204 -86 OFFCURVE",
"175 -48 OFFCURVE",
"154 -18 CURVE",
"37 -110 LINE",
"79 -163 OFFCURVE",
"142 -215 OFFCURVE",
"273 -215 CURVE SMOOTH"
);
},
{
closed = 1;
nodes = (
"212 148 OFFCURVE",
"184 193 OFFCURVE",
"184 259 CURVE SMOOTH",
"184 322 OFFCURVE",
"209 376 OFFCURVE",
"282 376 CURVE SMOOTH",
"354 376 OFFCURVE",
"376 323 OFFCURVE",
"376 260 CURVE SMOOTH",
"376 195 OFFCURVE",
"352 148 OFFCURVE",
"282 148 CURVE SMOOTH"
);
}
);
};
guideLines = (
{
position = "{398, -204}";
},
{
angle = 90;
position = "{59, 262}";
}
);
layerId = "19FF397D-6935-471C-99CF-E4D89620440D";
name = "Black [600]";
paths = (
{
closed = 1;
nodes = (
"418 -215 OFFCURVE",
"516 -144 OFFCURVE",
"516 15 CURVE SMOOTH",
"516 493 LINE",
"366 493 LINE",
"366 402 LINE",
"381 422 LINE",
"355 475 OFFCURVE",
"310 504 OFFCURVE",
"239 504 CURVE SMOOTH",
"128 504 OFFCURVE",
"35 412 OFFCURVE",
"35 257 CURVE SMOOTH",
"35 119 OFFCURVE",
"112 9 OFFCURVE",
"239 9 CURVE SMOOTH",
"303 9 OFFCURVE",
"351 27 OFFCURVE",
"385 93 CURVE",
"366 108 LINE",
"366 15 LINE SMOOTH",
"366 -72 OFFCURVE",
"313 -86 OFFCURVE",
"272 -86 CURVE SMOOTH",
"214 -86 OFFCURVE",
"185 -48 OFFCURVE",
"164 -18 CURVE",
"47 -110 LINE",
"89 -163 OFFCURVE",
"152 -215 OFFCURVE",
"273 -215 CURVE SMOOTH"
);
},
{
closed = 1;
nodes = (
"219 150 OFFCURVE",
"186 190 OFFCURVE",
"186 255 CURVE SMOOTH",
"186 322 OFFCURVE",
"222 366 OFFCURVE",
"283 366 CURVE SMOOTH",
"344 366 OFFCURVE",
"380 321 OFFCURVE",
"380 255 CURVE SMOOTH",
"380 191 OFFCURVE",
"345 150 OFFCURVE",
"282 150 CURVE SMOOTH"
);
}
);
width = 571;
}
);
leftKerningGroup = c;
leftMetricsKey = d;
note = g.ss01;
rightKerningGroup = u;
rightMetricsKey = u;
},
{
color = 1;
glyphname = g.ss02;
lastChange = "2020-06-19 14:55:44 +0000";
layers = (
{
anchors = (
{
name = bottom;
position = "{257, -209}";
},
{
name = top;
position = "{254, 493}";
}
);
guideLines = (
{
position = "{380, -204}";
}
);
layerId = "F91D9E91-C1BC-4259-B0D8-112C0CBA2B8E";
paths = (
{
closed = 1;
nodes = (
"386 -209 OFFCURVE",
"467 -156 OFFCURVE",
"467 -68 CURVE SMOOTH",
"467 -5 OFFCURVE",
"438 55 OFFCURVE",
"330 55 CURVE SMOOTH",
"214 55 LINE SMOOTH",
"128 55 OFFCURVE",
"92 85 OFFCURVE",
"90 129 CURVE SMOOTH",
"88 164 OFFCURVE",
"102 189 OFFCURVE",
"137 222 CURVE",
"131 230 LINE",
"94 196 OFFCURVE",
"78 167 OFFCURVE",
"80 129 CURVE SMOOTH",
"83 77 OFFCURVE",
"123 46 OFFCURVE",
"211 46 CURVE SMOOTH",
"329 46 LINE SMOOTH",
"434 46 OFFCURVE",
"457 -12 OFFCURVE",
"457 -68 CURVE SMOOTH",
"457 -151 OFFCURVE",
"381 -199 OFFCURVE",
"257 -199 CURVE SMOOTH",
"132 -199 OFFCURVE",
"67 -146 OFFCURVE",
"67 -49 CURVE SMOOTH",
"67 -32 LINE",
"153 55 LINE",
"144 61 LINE",
"58 -27 LINE",
"57 -36 OFFCURVE",
"57 -44 OFFCURVE",
"57 -49 CURVE SMOOTH",
"57 -151 OFFCURVE",
"127 -209 OFFCURVE",
"257 -209 CURVE SMOOTH"
);
},
{
closed = 1;
nodes = (
"345 184 OFFCURVE",
"413 246 OFFCURVE",
"413 338 CURVE SMOOTH",
"413 432 OFFCURVE",
"345 498 OFFCURVE",
"249 498 CURVE SMOOTH",
"151 498 OFFCURVE",
"81 432 OFFCURVE",
"81 339 CURVE SMOOTH",
"81 247 OFFCURVE",
"150 184 OFFCURVE",
"248 184 CURVE SMOOTH"
);
},
{
closed = 1;
nodes = (
"155 194 OFFCURVE",
"91 254 OFFCURVE",
"91 339 CURVE SMOOTH",
"91 426 OFFCURVE",
"157 488 OFFCURVE",
"249 488 CURVE SMOOTH",
"340 488 OFFCURVE",
"403 427 OFFCURVE",
"403 338 CURVE SMOOTH",
"403 253 OFFCURVE",
"340 194 OFFCURVE",
"248 194 CURVE SMOOTH"
);
},
{
closed = 1;
nodes = (
"467 501 LINE",
"461 509 LINE",
"377 431 LINE",
"384 424 LINE"
);
}
);
width = 500;
},
{
anchors = (
{
name = bottom;
position = "{275, -205}";
},
{
name = top;
position = "{281, 493}";
}
);
guideLines = (
{
position = "{399, -204}";
}
);
layerId = "957254E3-B7AD-4837-9092-D4428001DE8E";
paths = (
{
closed = 1;
nodes = (
"438 -214 OFFCURVE",
"521 -158 OFFCURVE",
"521 -46 CURVE SMOOTH",
"521 46 OFFCURVE",
"467 93 OFFCURVE",
"355 93 CURVE SMOOTH",
"257 93 LINE SMOOTH",
"226 93 OFFCURVE",
"173 93 OFFCURVE",
"173 122 CURVE SMOOTH",
"173 139 OFFCURVE",
"190 157 OFFCURVE",
"208 158 CURVE",
"137 256 LINE",
"69 213 OFFCURVE",
"32 162 OFFCURVE",
"32 103 CURVE SMOOTH",
"32 1 OFFCURVE",
"145 -32 OFFCURVE",
"156 -32 CURVE SMOOTH",
"333 -32 LINE SMOOTH",
"363 -32 OFFCURVE",
"376 -41 OFFCURVE",
"376 -63 CURVE SMOOTH",
"376 -89 OFFCURVE",
"352 -100 OFFCURVE",
"276 -100 CURVE SMOOTH",
"199 -100 OFFCURVE",
"167 -89 OFFCURVE",
"167 -63 CURVE SMOOTH",
"167 -59 LINE",
"212 -24 LINE",
"137 36 LINE",
"36 -18 LINE",
"30 -31 OFFCURVE",
"26 -48 OFFCURVE",
"26 -68 CURVE SMOOTH",
"26 -186 OFFCURVE",
"159 -214 OFFCURVE",
"275 -214 CURVE SMOOTH"
);
},
{
closed = 1;
nodes = (
"403 127 OFFCURVE",
"487 199 OFFCURVE",
"487 309 CURVE SMOOTH",
"487 429 OFFCURVE",
"386 504 OFFCURVE",
"274 504 CURVE SMOOTH",
"161 504 OFFCURVE",
"63 429 OFFCURVE",
"63 314 CURVE SMOOTH",
"63 206 OFFCURVE",
"149 127 OFFCURVE",
"279 127 CURVE SMOOTH"
);
},
{
closed = 1;
nodes = (
"231 245 OFFCURVE",
"214 277 OFFCURVE",
"214 314 CURVE SMOOTH",
"214 352 OFFCURVE",
"236 379 OFFCURVE",
"276 379 CURVE SMOOTH",
"315 379 OFFCURVE",
"337 353 OFFCURVE",
"337 314 CURVE SMOOTH",
"337 277 OFFCURVE",
"320 245 OFFCURVE",
"276 245 CURVE SMOOTH"
);
},
{
closed = 1;
nodes = (
"543 452 LINE",
"465 547 LINE",
"344 452 LINE",
"454 381 LINE"
);
}
);
width = 556;
},
{
anchors = (
{
name = bottom;
position = "{275, -205}";
},
{
name = top;
position = "{281, 493}";
}
);
associatedMasterId = "957254E3-B7AD-4837-9092-D4428001DE8E";
guideLines = (
{
position = "{399, -204}";
}
);
layerId = "064EA483-25F8-4E3E-9A7B-3E93C94EB77B";
name = "Black [700]";
paths = (
{
closed = 1;
nodes = (
"438 -214 OFFCURVE",
"521 -158 OFFCURVE",
"521 -46 CURVE SMOOTH",
"521 46 OFFCURVE",
"467 93 OFFCURVE",
"355 93 CURVE SMOOTH",
"257 93 LINE SMOOTH",
"226 93 OFFCURVE",
"173 93 OFFCURVE",
"173 122 CURVE SMOOTH",
"173 139 OFFCURVE",
"190 157 OFFCURVE",
"208 158 CURVE",
"137 256 LINE",
"69 213 OFFCURVE",
"32 162 OFFCURVE",
"32 103 CURVE SMOOTH",
"32 1 OFFCURVE",
"145 -32 OFFCURVE",
"156 -32 CURVE SMOOTH",
"333 -32 LINE SMOOTH",
"363 -32 OFFCURVE",
"376 -41 OFFCURVE",
"376 -63 CURVE SMOOTH",
"376 -89 OFFCURVE",
"352 -100 OFFCURVE",
"276 -100 CURVE SMOOTH",
"199 -100 OFFCURVE",
"167 -89 OFFCURVE",
"167 -63 CURVE SMOOTH",
"167 -59 LINE",
"212 -24 LINE",
"137 36 LINE",
"36 -18 LINE",
"30 -31 OFFCURVE",
"26 -48 OFFCURVE",
"26 -68 CURVE SMOOTH",
"26 -186 OFFCURVE",
"159 -214 OFFCURVE",
"275 -214 CURVE SMOOTH"
);
},
{
closed = 1;
nodes = (
"403 127 OFFCURVE",
"487 199 OFFCURVE",
"487 309 CURVE SMOOTH",
"487 429 OFFCURVE",
"386 504 OFFCURVE",
"274 504 CURVE SMOOTH",
"161 504 OFFCURVE",
"63 429 OFFCURVE",
"63 314 CURVE SMOOTH",
"63 206 OFFCURVE",
"149 127 OFFCURVE",
"279 127 CURVE SMOOTH"
);
},
{
closed = 1;
nodes = (
"231 245 OFFCURVE",
"214 277 OFFCURVE",
"214 314 CURVE SMOOTH",
"214 352 OFFCURVE",
"236 379 OFFCURVE",
"276 379 CURVE SMOOTH",
"315 379 OFFCURVE",
"337 353 OFFCURVE",
"337 314 CURVE SMOOTH",
"337 277 OFFCURVE",
"320 245 OFFCURVE",
"276 245 CURVE SMOOTH"
);
},
{
closed = 1;
nodes = (
"543 452 LINE",
"466 545 LINE",
"345 450 LINE",
"454 381 LINE"
);
}
);
width = 556;
}
);
leftKerningGroup = c;
leftMetricsKey = g;
note = g.ss02;
rightKerningGroup = g;
rightMetricsKey = g;
},
{
glyphname = ordfeminine;
lastChange = "2020-06-16 10:24:20 +0000";
layers = (
{
layerId = "F91D9E91-C1BC-4259-B0D8-112C0CBA2B8E";
paths = (
{
closed = 1;
nodes = (
"270 345 OFFCURVE",
"319 378 OFFCURVE",
"352 441 CURVE",
"352 349 LINE",
"359 349 LINE",
"359 565 LINE SMOOTH",
"359 655 OFFCURVE",
"316 702 OFFCURVE",
"232 702 CURVE SMOOTH",
"176 702 OFFCURVE",
"140 683 OFFCURVE",
"105 635 CURVE",
"112 630 LINE",
"145 677 OFFCURVE",
"179 695 OFFCURVE",
"232 695 CURVE SMOOTH",
"312 695 OFFCURVE",
"352 651 OFFCURVE",
"352 565 CURVE SMOOTH",
"352 558 OFFCURVE",
"352 551 OFFCURVE",
"352 543 CURVE",
"246 543 LINE SMOOTH",
"144 543 OFFCURVE",
"92 510 OFFCURVE",
"92 444 CURVE SMOOTH",
"92 384 OFFCURVE",
"137 345 OFFCURVE",
"206 345 CURVE SMOOTH"
);
},
{
closed = 1;
nodes = (
"140 354 OFFCURVE",
"99 388 OFFCURVE",
"99 444 CURVE SMOOTH",
"99 506 OFFCURVE",
"147 536 OFFCURVE",
"246 536 CURVE SMOOTH",
"352 536 LINE",
"352 511 OFFCURVE",
"352 485 OFFCURVE",
"352 460 CURVE",
"321 388 OFFCURVE",
"272 354 OFFCURVE",
"206 354 CURVE SMOOTH"
);
}
);
width = 477;
},
{
layerId = "957254E3-B7AD-4837-9092-D4428001DE8E";
paths = (
{
closed = 1;
nodes = (
"202 350 OFFCURVE",
"236 363 OFFCURVE",
"266 390 CURVE",
"268 359 LINE",
"345 359 LINE",
"345 567 LINE SMOOTH",
"345 650 OFFCURVE",
"289 708 OFFCURVE",
"195 708 CURVE SMOOTH",
"132 708 OFFCURVE",
"86 685 OFFCURVE",
"44 625 CURVE",
"111 580 LINE",
"127 602 OFFCURVE",
"151 630 OFFCURVE",
"198 630 CURVE SMOOTH",
"230 630 OFFCURVE",
"249 617 OFFCURVE",
"258 596 CURVE SMOOTH",
"261 589 OFFCURVE",
"262 581 OFFCURVE",
"262 570 CURVE",
"168 570 LINE SMOOTH",
"95 570 OFFCURVE",
"34 537 OFFCURVE",
"34 463 CURVE SMOOTH",
"34 393 OFFCURVE",
"90 350 OFFCURVE",
"162 350 CURVE SMOOTH"
);
},
{
closed = 1;
nodes = (
"143 429 OFFCURVE",
"127 444 OFFCURVE",
"127 461 CURVE SMOOTH",
"127 480 OFFCURVE",
"143 493 OFFCURVE",
"174 493 CURVE SMOOTH",
"262 493 LINE",
"259 477 OFFCURVE",
"254 464 OFFCURVE",
"246 454 CURVE SMOOTH",
"232 437 OFFCURVE",
"211 429 OFFCURVE",
"182 429 CURVE SMOOTH"
);
}
);
width = 401;
}
);
leftKerningGroup = ordfeminine;
note = ordfeminine;
unicode = 00AA;
},
{
glyphname = ordmasculine;
lastChange = "2020-06-16 10:24:20 +0000";
layers = (
{
layerId = "F91D9E91-C1BC-4259-B0D8-112C0CBA2B8E";
paths = (
{
closed = 1;
nodes = (
"345 356 OFFCURVE",
"414 430 OFFCURVE",
"414 529 CURVE SMOOTH",
"414 627 OFFCURVE",
"344 702 OFFCURVE",
"254 702 CURVE SMOOTH",
"162 702 OFFCURVE",
"92 627 OFFCURVE",
"92 529 CURVE SMOOTH",
"92 430 OFFCURVE",
"162 356 OFFCURVE",
"254 356 CURVE SMOOTH"
);
},
{
closed = 1;
nodes = (
"167 366 OFFCURVE",
"102 435 OFFCURVE",
"102 529 CURVE SMOOTH",
"102 622 OFFCURVE",
"167 692 OFFCURVE",
"254 692 CURVE SMOOTH",
"339 692 OFFCURVE",
"404 622 OFFCURVE",
"404 529 CURVE SMOOTH",
"404 435 OFFCURVE",
"339 366 OFFCURVE",
"254 366 CURVE SMOOTH"
);
}
);
width = 507;
},
{
layerId = "957254E3-B7AD-4837-9092-D4428001DE8E";
paths = (
{
closed = 1;
nodes = (
"315 350 OFFCURVE",
"388 431 OFFCURVE",
"388 529 CURVE SMOOTH",
"388 626 OFFCURVE",
"315 708 OFFCURVE",
"209 708 CURVE SMOOTH",
"102 708 OFFCURVE",
"30 626 OFFCURVE",
"30 529 CURVE SMOOTH",
"30 432 OFFCURVE",
"101 350 OFFCURVE",
"209 350 CURVE SMOOTH"
);
},
{
closed = 1;
nodes = (
"145 432 OFFCURVE",
"127 477 OFFCURVE",
"127 529 CURVE SMOOTH",
"127 583 OFFCURVE",
"146 626 OFFCURVE",
"209 626 CURVE SMOOTH",
"272 626 OFFCURVE",
"291 583 OFFCURVE",
"291 529 CURVE SMOOTH",
"291 477 OFFCURVE",
"272 432 OFFCURVE",
"209 432 CURVE SMOOTH"
);
}
);
width = 418;
}
);
leftKerningGroup = ordmasculine;
note = ordmasculine;
rightKerningGroup = ordmasculine;
unicode = 00BA;
},
{
color = 1;
glyphname = Delta;
lastChange = "2020-06-16 10:24:20 +0000";
layers = (
{
hints = (
{
horizontal = 1;
place = "{0, 21}";
target = up;
type = BottomGhost;
},
{
horizontal = 1;
place = "{650, -20}";
target = down;
type = TopGhost;
},
{
place = "{-10, 592}";
type = Stem;
},
{
horizontal = 1;
place = "{490, 160}";
type = Stem;
}
);
layerId = "F91D9E91-C1BC-4259-B0D8-112C0CBA2B8E";
paths = (
{
closed = 1;
nodes = (
"557 0 LINE",
"317 697 LINE",
"298 697 LINE",
"59 0 LINE"
);
},
{
closed = 1;
nodes = (
"308 691 LINE",
"542 10 LINE",
"74 10 LINE"
);
}
);
width = 616;
},
{
layerId = "957254E3-B7AD-4837-9092-D4428001DE8E";
paths = (
{
closed = 1;
nodes = (
"679 0 LINE",
"390 697 LINE",
"275 697 LINE",
"-15 0 LINE"
);
},
{
closed = 1;
nodes = (
"333 463 LINE",
"454 144 LINE",
"211 144 LINE"
);
}
);
width = 664;
}
);
leftKerningGroup = A;
rightKerningGroup = A;
unicode = 0394;
},
{
color = 1;
glyphname = pi;
lastChange = "2020-06-16 10:24:20 +0000";
layers = (
{
layerId = "F91D9E91-C1BC-4259-B0D8-112C0CBA2B8E";
paths = (
{
closed = 1;
nodes = (
"496 -5 OFFCURVE",
"514 -2 OFFCURVE",
"535 4 CURVE",
"533 14 LINE",
"515 8 OFFCURVE",
"497 5 OFFCURVE",
"483 5 CURVE SMOOTH",
"412 5 OFFCURVE",
"384 47 OFFCURVE",
"384 155 CURVE SMOOTH",
"384 483 LINE",
"471 483 LINE",
"471 493 LINE",
"48 493 LINE",
"48 483 LINE",
"111 483 LINE",
"111 0 LINE",
"121 0 LINE",
"121 483 LINE",
"374 483 LINE",
"374 155 LINE SMOOTH",
"374 40 OFFCURVE",
"405 -5 OFFCURVE",
"483 -5 CURVE SMOOTH"
);
}
);
width = 564;
},
{
layerId = "957254E3-B7AD-4837-9092-D4428001DE8E";
paths = (
{
closed = 1;
nodes = (
"509 -11 OFFCURVE",
"535 -3 OFFCURVE",
"568 18 CURVE",
"544 140 LINE",
"534 133 OFFCURVE",
"521 128 OFFCURVE",
"509 128 CURVE SMOOTH",
"495 128 OFFCURVE",
"484 135 OFFCURVE",
"484 158 CURVE SMOOTH",
"484 367 LINE",
"544 367 LINE",
"544 493 LINE",
"14 493 LINE",
"14 367 LINE",
"77 367 LINE",
"77 0 LINE",
"227 0 LINE",
"227 367 LINE",
"334 367 LINE",
"334 107 LINE SMOOTH",
"334 31 OFFCURVE",
"383 -11 OFFCURVE",
"471 -11 CURVE SMOOTH"
);
}
);
width = 579;
}
);
note = pi;
unicode = 03C0;
},
{
color = 1;
glyphname = zero;
lastChange = "2020-06-16 10:24:20 +0000";
layers = (
{
layerId = "F91D9E91-C1BC-4259-B0D8-112C0CBA2B8E";
paths = (
{
closed = 1;
nodes = (
"405 -5 OFFCURVE",
"471 138 OFFCURVE",
"471 346 CURVE SMOOTH",
"471 557 OFFCURVE",
"404 703 OFFCURVE",
"271 703 CURVE SMOOTH",
"124 703 OFFCURVE",
"76 534 OFFCURVE",
"76 348 CURVE SMOOTH",
"76 165 OFFCURVE",
"125 -5 OFFCURVE",
"277 -5 CURVE SMOOTH"
);
},
{
closed = 1;
nodes = (
"134 5 OFFCURVE",
"88 166 OFFCURVE",
"88 348 CURVE SMOOTH",
"88 532 OFFCURVE",
"133 693 OFFCURVE",
"271 693 CURVE SMOOTH",
"397 693 OFFCURVE",
"459 555 OFFCURVE",
"459 346 CURVE SMOOTH",
"459 141 OFFCURVE",
"398 5 OFFCURVE",
"277 5 CURVE SMOOTH"
);
}
);
width = 545;
},
{
layerId = "957254E3-B7AD-4837-9092-D4428001DE8E";
paths = (
{
closed = 1;
nodes = (
"526 -10 OFFCURVE",
"546 212 OFFCURVE",
"546 353 CURVE SMOOTH",
"546 484 OFFCURVE",
"529 709 OFFCURVE",
"293 709 CURVE SMOOTH",
"58 709 OFFCURVE",
"40 486 OFFCURVE",
"40 353 CURVE SMOOTH",
"40 212 OFFCURVE",
"60 -10 OFFCURVE",
"293 -10 CURVE SMOOTH"
);
},
{
closed = 1;
nodes = (
"205 134 OFFCURVE",
"194 235 OFFCURVE",
"194 348 CURVE SMOOTH",
"194 466 OFFCURVE",
"205 564 OFFCURVE",
"293 564 CURVE SMOOTH",
"381 564 OFFCURVE",
"392 466 OFFCURVE",
"392 348 CURVE SMOOTH",
"392 235 OFFCURVE",
"381 134 OFFCURVE",
"293 134 CURVE SMOOTH"
);
}
);
width = 585;
}
);
note = zero;
unicode = 0030;
},
{
color = 1;
glyphname = one;
lastChange = "2020-06-16 10:24:20 +0000";
layers = (
{
layerId = "F91D9E91-C1BC-4259-B0D8-112C0CBA2B8E";
paths = (
{
closed = 1;
nodes = (
"337 0 LINE",
"337 697 LINE",
"327 697 LINE",
"327 619 LINE SMOOTH",
"327 591 OFFCURVE",
"313 581 OFFCURVE",
"284 581 CURVE SMOOTH",
"139 581 LINE",
"139 571 LINE",
"334 571 LINE",
"327 581 LINE",
"327 0 LINE"
);
}
);
width = 545;
},
{
layerId = "957254E3-B7AD-4837-9092-D4428001DE8E";
paths = (
{
closed = 1;
nodes = (
"418 0 LINE",
"418 697 LINE",
"267 697 LINE",
"267 665 LINE SMOOTH",
"267 609 OFFCURVE",
"240 590 OFFCURVE",
"190 590 CURVE SMOOTH",
"91 590 LINE",
"91 465 LINE",
"310 465 LINE",
"267 544 LINE",
"267 0 LINE"
);
}
);
width = 585;
},
{
associatedMasterId = "957254E3-B7AD-4837-9092-D4428001DE8E";
layerId = "7AFE0464-B7D3-49AB-8244-57B158823D2D";
name = "Black [700]";
paths = (
{
closed = 1;
nodes = (
"418 0 LINE",
"418 697 LINE",
"267 697 LINE",
"267 665 LINE SMOOTH",
"267 609 OFFCURVE",
"240 590 OFFCURVE",
"190 590 CURVE SMOOTH",
"91 590 LINE",
"91 471 LINE",
"310 471 LINE",
"267 544 LINE",
"267 0 LINE"
);
}
);
width = 585;
}
);
note = one;
unicode = 0031;
},
{
color = 1;
glyphname = two;
lastChange = "2020-06-20 04:22:05 +0000";
layers = (
{
layerId = "F91D9E91-C1BC-4259-B0D8-112C0CBA2B8E";
paths = (
{
closed = 1;
nodes = (
"499 0 LINE",
"499 10 LINE",
"74 10 LINE",
"74 18 LINE",
"220 142 OFFCURVE",
"470 297 OFFCURVE",
"470 509 CURVE SMOOTH",
"470 628 OFFCURVE",
"396 702 OFFCURVE",
"275 702 CURVE SMOOTH",
"145 702 OFFCURVE",
"72 622 OFFCURVE",
"72 482 CURVE",
"82 482 LINE",
"82 616 OFFCURVE",
"152 692 OFFCURVE",
"275 692 CURVE SMOOTH",
"390 692 OFFCURVE",
"460 623 OFFCURVE",
"460 509 CURVE SMOOTH",
"460 301 OFFCURVE",
"212 148 OFFCURVE",
"64 24 CURVE",
"64 0 LINE"
);
}
);
width = 545;
},
{
layerId = "957254E3-B7AD-4837-9092-D4428001DE8E";
paths = (
{
closed = 1;
nodes = (
"542 0 LINE",
"542 140 LINE",
"250 140 LINE",
"250 106 LINE",
"438 229 OFFCURVE",
"515 334 OFFCURVE",
"515 476 CURVE SMOOTH",
"515 614 OFFCURVE",
"420 705 OFFCURVE",
"290 705 CURVE SMOOTH",
"128 705 OFFCURVE",
"41 566 OFFCURVE",
"41 444 CURVE",
"189 432 LINE",
"193 486 OFFCURVE",
"210 559 OFFCURVE",
"286 559 CURVE SMOOTH",
"343 559 OFFCURVE",
"365 519 OFFCURVE",
"365 471 CURVE SMOOTH",
"365 322 OFFCURVE",
"149 179 OFFCURVE",
"50 120 CURVE",
"50 0 LINE"
);
}
);
width = 585;
},
{
associatedMasterId = "957254E3-B7AD-4837-9092-D4428001DE8E";
layerId = "805599D2-9756-4565-92F0-A626B06D5FF4";
name = "Black [700]";
paths = (
{
closed = 1;
nodes = (
"542 0 LINE",
"542 140 LINE",
"210 140 LINE",
"170 76 LINE",
"384 163 OFFCURVE",
"515 310 OFFCURVE",
"515 476 CURVE SMOOTH",
"515 614 OFFCURVE",
"420 705 OFFCURVE",
"290 705 CURVE SMOOTH",
"128 705 OFFCURVE",
"41 566 OFFCURVE",
"41 444 CURVE",
"189 432 LINE",
"193 486 OFFCURVE",
"210 559 OFFCURVE",
"286 559 CURVE SMOOTH",
"343 559 OFFCURVE",
"365 519 OFFCURVE",
"365 471 CURVE SMOOTH",
"365 322 OFFCURVE",
"149 179 OFFCURVE",
"50 110 CURVE",
"50 0 LINE"
);
}
);
width = 585;
}
);
note = two;
unicode = 0032;
},
{
color = 1;
glyphname = three;
lastChange = "2020-06-16 10:24:20 +0000";
layers = (
{
layerId = "F91D9E91-C1BC-4259-B0D8-112C0CBA2B8E";
paths = (
{
closed = 1;
nodes = (
"404 -5 OFFCURVE",
"496 73 OFFCURVE",
"496 190 CURVE SMOOTH",
"496 322 OFFCURVE",
"375 362 OFFCURVE",
"275 370 CURVE",
"359 377 OFFCURVE",
"460 414 OFFCURVE",
"460 534 CURVE SMOOTH",
"460 631 OFFCURVE",
"378 702 OFFCURVE",
"267 702 CURVE SMOOTH",
"152 702 OFFCURVE",
"73 631 OFFCURVE",
"73 525 CURVE",
"83 525 LINE",
"83 625 OFFCURVE",
"157 692 OFFCURVE",
"267 692 CURVE SMOOTH",
"373 692 OFFCURVE",
"449 625 OFFCURVE",
"449 534 CURVE SMOOTH",
"449 401 OFFCURVE",
"317 377 OFFCURVE",
"232 378 CURVE",
"232 361 LINE",
"337 362 OFFCURVE",
"486 332 OFFCURVE",
"486 190 CURVE SMOOTH",
"486 79 OFFCURVE",
"399 5 OFFCURVE",
"269 5 CURVE SMOOTH",
"135 5 OFFCURVE",
"50 78 OFFCURVE",
"50 195 CURVE",
"40 195 LINE",
"40 73 OFFCURVE",
"129 -5 OFFCURVE",
"269 -5 CURVE SMOOTH"
);
}
);
width = 545;
},
{
layerId = "957254E3-B7AD-4837-9092-D4428001DE8E";
paths = (
{
closed = 1;
nodes = (
"424 -10 OFFCURVE",
"555 63 OFFCURVE",
"555 219 CURVE SMOOTH",
"555 288 OFFCURVE",
"526 349 OFFCURVE",
"451 382 CURVE",
"495 407 OFFCURVE",
"518 454 OFFCURVE",
"518 512 CURVE SMOOTH",
"518 636 OFFCURVE",
"413 707 OFFCURVE",
"292 707 CURVE SMOOTH",
"166 707 OFFCURVE",
"55 629 OFFCURVE",
"55 493 CURVE",
"204 483 LINE",
"205 532 OFFCURVE",
"236 563 OFFCURVE",
"286 563 CURVE SMOOTH",
"331 563 OFFCURVE",
"367 546 OFFCURVE",
"367 496 CURVE SMOOTH",
"367 462 OFFCURVE",
"354 422 OFFCURVE",
"259 422 CURVE",
"259 304 LINE",
"326 304 OFFCURVE",
"404 309 OFFCURVE",
"404 226 CURVE SMOOTH",
"404 156 OFFCURVE",
"347 134 OFFCURVE",
"293 134 CURVE SMOOTH",
"225 134 OFFCURVE",
"171 169 OFFCURVE",
"171 236 CURVE",
"21 227 LINE",
"21 65 OFFCURVE",
"150 -10 OFFCURVE",
"288 -10 CURVE SMOOTH"
);
}
);
width = 585;
}
);
note = three;
unicode = 0033;
},
{
color = 1;
glyphname = four;
lastChange = "2020-06-16 10:24:20 +0000";
layers = (
{
layerId = "F91D9E91-C1BC-4259-B0D8-112C0CBA2B8E";
paths = (
{
closed = 1;
nodes = (
"409 0 LINE",
"409 169 LINE",
"525 169 LINE",
"525 179 LINE",
"409 179 LINE",
"409 697 LINE",
"391 697 LINE",
"23 183 LINE",
"23 169 LINE",
"399 169 LINE",
"399 0 LINE"
);
},
{
closed = 1;
nodes = (
"397 687 LINE",
"399 687 LINE",
"399 179 LINE",
"29 179 LINE",
"30 175 LINE"
);
}
);
width = 545;
},
{
layerId = "957254E3-B7AD-4837-9092-D4428001DE8E";
paths = (
{
closed = 1;
nodes = (
"467 0 LINE",
"467 163 LINE",
"577 163 LINE",
"577 303 LINE",
"467 303 LINE",
"467 697 LINE",
"317 697 LINE",
"24 298 LINE",
"24 163 LINE",
"316 163 LINE",
"316 0 LINE"
);
},
{
closed = 1;
nodes = (
"337 521 LINE",
"316 525 LINE",
"316 303 LINE",
"139 303 LINE",
"152 261 LINE"
);
}
);
width = 585;
},
{
associatedMasterId = "957254E3-B7AD-4837-9092-D4428001DE8E";
layerId = "D35FFA57-6186-465C-A0B3-DD0A03F8DE28";
name = "Black [700]";
paths = (
{
closed = 1;
nodes = (
"467 0 LINE",
"467 163 LINE",
"577 163 LINE",
"577 303 LINE",
"467 303 LINE",
"467 697 LINE",
"337 697 LINE",
"24 278 LINE",
"24 163 LINE",
"316 163 LINE",
"316 0 LINE"
);
},
{
closed = 1;
nodes = (
"337 511 LINE",
"316 525 LINE",
"316 303 LINE",
"139 303 LINE",
"152 251 LINE"
);
}
);
width = 585;
}
);
note = four;
unicode = 0034;
},
{
color = 1;
glyphname = five;
lastChange = "2020-06-16 10:24:20 +0000";
layers = (
{
layerId = "F91D9E91-C1BC-4259-B0D8-112C0CBA2B8E";
paths = (
{
closed = 1;
nodes = (
"397 -5 OFFCURVE",
"495 97 OFFCURVE",
"495 228 CURVE SMOOTH",
"495 357 OFFCURVE",
"405 452 OFFCURVE",
"283 452 CURVE SMOOTH",
"208 452 OFFCURVE",
"139 415 OFFCURVE",
"89 349 CURVE",
"84 353 LINE",
"140 691 LINE",
"135 687 LINE",
"460 687 LINE",
"460 697 LINE",
"131 697 LINE",
"72 346 LINE",
"93 337 LINE",
"141 405 OFFCURVE",
"209 441 OFFCURVE",
"283 441 CURVE SMOOTH",
"399 441 OFFCURVE",
"485 352 OFFCURVE",
"485 228 CURVE SMOOTH",
"485 102 OFFCURVE",
"391 5 OFFCURVE",
"269 5 CURVE SMOOTH",
"165 5 OFFCURVE",
"83 75 OFFCURVE",
"59 185 CURVE",
"49 183 LINE",
"75 68 OFFCURVE",
"160 -5 OFFCURVE",
"269 -5 CURVE SMOOTH"
);
}
);
width = 545;
},
{
layerId = "957254E3-B7AD-4837-9092-D4428001DE8E";
paths = (
{
closed = 1;
nodes = (
"442 -11 OFFCURVE",
"550 114 OFFCURVE",
"550 247 CURVE SMOOTH",
"550 373 OFFCURVE",
"452 487 OFFCURVE",
"306 487 CURVE SMOOTH",
"267 487 OFFCURVE",
"213 481 OFFCURVE",
"161 425 CURVE",
"211 411 LINE",
"252 620 LINE",
"172 557 LINE",
"520 557 LINE",
"520 697 LINE",
"116 697 LINE",
"46 326 LINE",
"185 292 LINE",
"201 319 OFFCURVE",
"231 346 OFFCURVE",
"285 346 CURVE SMOOTH",
"365 346 OFFCURVE",
"390 296 OFFCURVE",
"390 247 CURVE SMOOTH",
"390 195 OFFCURVE",
"364 133 OFFCURVE",
"285 133 CURVE SMOOTH",
"208 133 OFFCURVE",
"176 190 OFFCURVE",
"174 231 CURVE",
"26 206 LINE",
"41 86 OFFCURVE",
"149 -11 OFFCURVE",
"287 -11 CURVE SMOOTH"
);
}
);
width = 585;
}
);
note = five;
unicode = 0035;
},
{
color = 1;
glyphname = seven;
lastChange = "2020-06-16 10:24:20 +0000";
layers = (
{
layerId = "F91D9E91-C1BC-4259-B0D8-112C0CBA2B8E";
paths = (
{
closed = 1;
nodes = (
"143 0 LINE",
"517 679 LINE",
"517 697 LINE",
"23 697 LINE",
"23 687 LINE",
"507 687 LINE",
"507 681 LINE",
"132 0 LINE"
);
}
);
width = 545;
},
{
layerId = "957254E3-B7AD-4837-9092-D4428001DE8E";
paths = (
{
closed = 1;
nodes = (
"258 0 LINE",
"548 589 LINE",
"548 697 LINE",
"43 697 LINE",
"43 557 LINE",
"441 557 LINE",
"398 617 LINE",
"90 0 LINE"
);
}
);
width = 585;
}
);
note = seven;
unicode = 0037;
},
{
color = 1;
glyphname = eight;
lastChange = "2020-06-16 10:24:20 +0000";
layers = (
{
layerId = "F91D9E91-C1BC-4259-B0D8-112C0CBA2B8E";
paths = (
{
closed = 1;
nodes = (
"377 -5 OFFCURVE",
"481 60 OFFCURVE",
"481 190 CURVE SMOOTH",
"481 288 OFFCURVE",
"417 361 OFFCURVE",
"321 379 CURVE",
"393 397 OFFCURVE",
"441 458 OFFCURVE",
"441 535 CURVE SMOOTH",
"441 633 OFFCURVE",
"373 702 OFFCURVE",
"275 702 CURVE SMOOTH",
"195 702 OFFCURVE",
"108 645 OFFCURVE",
"108 543 CURVE SMOOTH",
"108 460 OFFCURVE",
"155 398 OFFCURVE",
"226 379 CURVE",
"128 362 OFFCURVE",
"63 289 OFFCURVE",
"63 190 CURVE SMOOTH",
"63 60 OFFCURVE",
"170 -5 OFFCURVE",
"273 -5 CURVE SMOOTH"
);
},
{
closed = 1;
nodes = (
"172 5 OFFCURVE",
"73 66 OFFCURVE",
"73 190 CURVE SMOOTH",
"73 298 OFFCURVE",
"155 373 OFFCURVE",
"273 373 CURVE SMOOTH",
"389 373 OFFCURVE",
"471 298 OFFCURVE",
"471 190 CURVE SMOOTH",
"471 66 OFFCURVE",
"375 5 OFFCURVE",
"273 5 CURVE SMOOTH"
);
},
{
closed = 1;
nodes = (
"182 383 OFFCURVE",
"118 447 OFFCURVE",
"118 543 CURVE SMOOTH",
"118 639 OFFCURVE",
"197 692 OFFCURVE",
"275 692 CURVE SMOOTH",
"367 692 OFFCURVE",
"431 628 OFFCURVE",
"431 535 CURVE SMOOTH",
"431 447 OFFCURVE",
"366 383 OFFCURVE",
"276 383 CURVE SMOOTH"
);
}
);
width = 545;
},
{
layerId = "957254E3-B7AD-4837-9092-D4428001DE8E";
paths = (
{
closed = 1;
nodes = (
"436 -11 OFFCURVE",
"564 62 OFFCURVE",
"564 211 CURVE SMOOTH",
"564 279 OFFCURVE",
"539 338 OFFCURVE",
"480 379 CURVE",
"513 409 OFFCURVE",
"531 446 OFFCURVE",
"531 500 CURVE SMOOTH",
"531 630 OFFCURVE",
"419 708 OFFCURVE",
"293 708 CURVE SMOOTH",
"167 708 OFFCURVE",
"53 630 OFFCURVE",
"53 500 CURVE SMOOTH",
"53 446 OFFCURVE",
"73 409 OFFCURVE",
"106 379 CURVE",
"47 338 OFFCURVE",
"22 279 OFFCURVE",
"22 211 CURVE SMOOTH",
"22 62 OFFCURVE",
"150 -11 OFFCURVE",
"293 -11 CURVE SMOOTH"
);
},
{
closed = 1;
nodes = (
"222 132 OFFCURVE",
"173 164 OFFCURVE",
"173 226 CURVE SMOOTH",
"173 288 OFFCURVE",
"223 319 OFFCURVE",
"293 319 CURVE SMOOTH",
"363 319 OFFCURVE",
"413 288 OFFCURVE",
"413 226 CURVE SMOOTH",
"413 164 OFFCURVE",
"364 132 OFFCURVE",
"293 132 CURVE SMOOTH"
);
},
{
closed = 1;
nodes = (
"240 421 OFFCURVE",
"204 447 OFFCURVE",
"204 490 CURVE SMOOTH",
"204 535 OFFCURVE",
"237 564 OFFCURVE",
"293 564 CURVE SMOOTH",
"349 564 OFFCURVE",
"382 535 OFFCURVE",
"382 490 CURVE SMOOTH",
"382 447 OFFCURVE",
"346 421 OFFCURVE",
"293 421 CURVE SMOOTH"
);
}
);
width = 585;
}
);
note = eight;
unicode = 0038;
},
{
color = 1;
glyphname = nine;
lastChange = "2020-06-16 10:24:20 +0000";
layers = (
{
layerId = "F91D9E91-C1BC-4259-B0D8-112C0CBA2B8E";
paths = (
{
closed = 1;
nodes = (
"246 0 LINE",
"457 366 LINE SMOOTH",
"477 401 OFFCURVE",
"491 438 OFFCURVE",
"491 485 CURVE SMOOTH",
"491 604 OFFCURVE",
"393 702 OFFCURVE",
"273 702 CURVE SMOOTH",
"152 702 OFFCURVE",
"55 603 OFFCURVE",
"55 484 CURVE SMOOTH",
"55 364 OFFCURVE",
"154 265 OFFCURVE",
"273 265 CURVE SMOOTH",
"331 265 OFFCURVE",
"383 288 OFFCURVE",
"423 324 CURVE",
"423 326 LINE",
"236 0 LINE"
);
},
{
closed = 1;
nodes = (
"159 275 OFFCURVE",
"65 369 OFFCURVE",
"65 483 CURVE SMOOTH",
"65 598 OFFCURVE",
"159 692 OFFCURVE",
"273 692 CURVE SMOOTH",
"388 692 OFFCURVE",
"481 599 OFFCURVE",
"481 484 CURVE SMOOTH",
"481 368 OFFCURVE",
"386 275 OFFCURVE",
"273 275 CURVE SMOOTH"
);
}
);
width = 545;
},
{
layerId = "957254E3-B7AD-4837-9092-D4428001DE8E";
paths = (
{
closed = 1;
nodes = (
"310 0 LINE",
"517 326 LINE SMOOTH",
"544 368 OFFCURVE",
"557 415 OFFCURVE",
"557 460 CURVE SMOOTH",
"557 606 OFFCURVE",
"437 708 OFFCURVE",
"292 708 CURVE SMOOTH",
"149 708 OFFCURVE",
"29 607 OFFCURVE",
"29 459 CURVE SMOOTH",
"29 323 OFFCURVE",
"133 220 OFFCURVE",
"271 220 CURVE SMOOTH",
"288 220 OFFCURVE",
"306 222 OFFCURVE",
"324 225 CURVE",
"305 249 LINE",
"136 0 LINE"
);
},
{
closed = 1;
nodes = (
"230 353 OFFCURVE",
"182 392 OFFCURVE",
"182 459 CURVE SMOOTH",
"182 526 OFFCURVE",
"231 564 OFFCURVE",
"292 564 CURVE SMOOTH",
"354 564 OFFCURVE",
"403 526 OFFCURVE",
"403 459 CURVE SMOOTH",
"403 391 OFFCURVE",
"354 353 OFFCURVE",
"292 353 CURVE SMOOTH"
);
}
);
width = 585;
}
);
note = nine;
unicode = 0039;
},
{
glyphname = onesuperior;
lastChange = "2020-06-16 10:24:20 +0000";
layers = (
{
layerId = "F91D9E91-C1BC-4259-B0D8-112C0CBA2B8E";
paths = (
{
closed = 1;
nodes = (
"259 488 LINE",
"259 902 LINE",
"249 902 LINE",
"249 858 LINE SMOOTH",
"249 840 OFFCURVE",
"240 833 OFFCURVE",
"221 833 CURVE SMOOTH",
"139 833 LINE",
"139 823 LINE",
"255 823 LINE",
"249 831 LINE",
"249 488 LINE"
);
}
);
width = 467;
},
{
layerId = "957254E3-B7AD-4837-9092-D4428001DE8E";
paths = (
{
closed = 1;
nodes = (
"265 488 LINE",
"265 902 LINE",
"190 902 LINE",
"190 879 LINE SMOOTH",
"190 850 OFFCURVE",
"173 838 OFFCURVE",
"144 838 CURVE SMOOTH",
"91 838 LINE",
"91 777 LINE",
"209 777 LINE",
"186 814 LINE",
"186 488 LINE"
);
}
);
width = 432;
}
);
leftKerningGroup = onesuperior;
leftMetricsKey = one;
rightKerningGroup = onesuperior;
rightMetricsKey = one;
unicode = 00B9;
},
{
glyphname = twosuperior;
lastChange = "2020-06-16 10:24:20 +0000";
layers = (
{
layerId = "F91D9E91-C1BC-4259-B0D8-112C0CBA2B8E";
paths = (
{
closed = 1;
nodes = (
"350 488 LINE",
"350 498 LINE",
"80 498 LINE",
"80 503 LINE",
"198 578 OFFCURVE",
"326 665 OFFCURVE",
"326 789 CURVE SMOOTH",
"326 861 OFFCURVE",
"281 905 OFFCURVE",
"209 905 CURVE SMOOTH",
"130 905 OFFCURVE",
"86 855 OFFCURVE",
"86 772 CURVE",
"96 772 LINE",
"96 849 OFFCURVE",
"138 895 OFFCURVE",
"209 895 CURVE SMOOTH",
"277 895 OFFCURVE",
"316 855 OFFCURVE",
"316 789 CURVE SMOOTH",
"316 667 OFFCURVE",
"182 580 OFFCURVE",
"64 504 CURVE",
"64 488 LINE"
);
}
);
width = 396;
},
{
layerId = "957254E3-B7AD-4837-9092-D4428001DE8E";
paths = (
{
closed = 1;
nodes = (
"357 488 LINE",
"357 560 LINE",
"138 560 LINE",
"160 553 LINE",
"238 590 OFFCURVE",
"337 685 OFFCURVE",
"337 778 CURVE SMOOTH",
"337 862 OFFCURVE",
"279 908 OFFCURVE",
"203 908 CURVE SMOOTH",
"110 908 OFFCURVE",
"57 831 OFFCURVE",
"57 755 CURVE",
"135 749 LINE",
"137 789 OFFCURVE",
"151 836 OFFCURVE",
"203 836 CURVE SMOOTH",
"242 836 OFFCURVE",
"257 810 OFFCURVE",
"257 780 CURVE SMOOTH",
"257 682 OFFCURVE",
"110 591 OFFCURVE",
"41 550 CURVE",
"41 488 LINE"
);
}
);
width = 400;
}
);
leftKerningGroup = twosuperior;
leftMetricsKey = two;
rightKerningGroup = twosuperior;
rightMetricsKey = two;
unicode = 00B2;
},
{
glyphname = threesuperior;
lastChange = "2020-06-16 10:24:20 +0000";
layers = (
{
layerId = "F91D9E91-C1BC-4259-B0D8-112C0CBA2B8E";
paths = (
{
closed = 1;
nodes = (
"258 483 OFFCURVE",
"315 529 OFFCURVE",
"315 600 CURVE SMOOTH",
"315 675 OFFCURVE",
"248 700 OFFCURVE",
"199 706 CURVE",
"238 712 OFFCURVE",
"293 735 OFFCURVE",
"293 802 CURVE SMOOTH",
"293 861 OFFCURVE",
"243 903 OFFCURVE",
"176 903 CURVE SMOOTH",
"108 903 OFFCURVE",
"59 861 OFFCURVE",
"59 796 CURVE",
"69 796 LINE",
"69 853 OFFCURVE",
"114 893 OFFCURVE",
"177 893 CURVE SMOOTH",
"236 893 OFFCURVE",
"283 853 OFFCURVE",
"283 801 CURVE SMOOTH",
"283 727 OFFCURVE",
"209 710 OFFCURVE",
"156 710 CURVE",
"156 700 LINE",
"217 701 OFFCURVE",
"305 682 OFFCURVE",
"305 600 CURVE SMOOTH",
"305 534 OFFCURVE",
"251 493 OFFCURVE",
"178 493 CURVE SMOOTH",
"102 493 OFFCURVE",
"50 534 OFFCURVE",
"50 604 CURVE",
"40 603 LINE",
"40 529 OFFCURVE",
"95 483 OFFCURVE",
"178 483 CURVE SMOOTH"
);
}
);
width = 364;
},
{
layerId = "957254E3-B7AD-4837-9092-D4428001DE8E";
paths = (
{
closed = 1;
nodes = (
"257 480 OFFCURVE",
"331 523 OFFCURVE",
"331 609 CURVE SMOOTH",
"331 651 OFFCURVE",
"314 696 OFFCURVE",
"260 711 CURVE",
"300 732 OFFCURVE",
"309 763 OFFCURVE",
"309 792 CURVE SMOOTH",
"309 864 OFFCURVE",
"244 906 OFFCURVE",
"175 906 CURVE SMOOTH",
"103 906 OFFCURVE",
"41 861 OFFCURVE",
"41 782 CURVE",
"116 777 LINE",
"117 811 OFFCURVE",
"141 832 OFFCURVE",
"177 832 CURVE SMOOTH",
"206 832 OFFCURVE",
"232 819 OFFCURVE",
"232 775 CURVE SMOOTH",
"232 751 OFFCURVE",
"224 729 OFFCURVE",
"158 729 CURVE",
"158 677 LINE",
"201 677 OFFCURVE",
"255 672 OFFCURVE",
"255 617 CURVE SMOOTH",
"255 571 OFFCURVE",
"216 553 OFFCURVE",
"177 553 CURVE SMOOTH",
"132 553 OFFCURVE",
"97 578 OFFCURVE",
"97 623 CURVE",
"21 618 LINE",
"21 525 OFFCURVE",
"94 480 OFFCURVE",
"176 480 CURVE SMOOTH"
);
}
);
width = 361;
}
);
leftKerningGroup = threesuperior;
leftMetricsKey = three;
rightKerningGroup = threesuperior;
rightMetricsKey = three;
unicode = 00B3;
},
{
glyphname = foursuperior;
lastChange = "2020-06-17 19:18:06 +0000";
layers = (
{
layerId = "F91D9E91-C1BC-4259-B0D8-112C0CBA2B8E";
paths = (
{
closed = 1;
nodes = (
"247 484 LINE",
"247 585 LINE",
"317 585 LINE",
"317 595 LINE",
"247 595 LINE",
"247 902 LINE",
"233 902 LINE",
"14 597 LINE",
"14 585 LINE",
"237 585 LINE",
"237 484 LINE"
);
},
{
closed = 1;
nodes = (
"237 892 LINE",
"237 892 LINE",
"237 595 LINE",
"20 595 LINE",
"21 591 LINE"
);
}
);
width = 329;
},
{
layerId = "957254E3-B7AD-4837-9092-D4428001DE8E";
paths = (
{
closed = 1;
nodes = (
"280 484 LINE",
"280 582 LINE",
"346 582 LINE",
"346 666 LINE",
"280 666 LINE",
"280 902 LINE",
"190 902 LINE",
"14 663 LINE",
"14 582 LINE",
"189 582 LINE",
"189 484 LINE"
);
},
{
closed = 1;
nodes = (
"202 797 LINE",
"189 799 LINE",
"189 666 LINE",
"83 666 LINE",
"91 641 LINE"
);
}
);
width = 360;
}
);
unicode = 2074;
},
{
glyphname = fraction;
lastChange = "2020-06-16 10:24:20 +0000";
layers = (
{
layerId = "F91D9E91-C1BC-4259-B0D8-112C0CBA2B8E";
paths = (
{
closed = 1;
nodes = (
"-116 0 LINE",
"247 697 LINE",
"237 697 LINE",
"-126 0 LINE"
);
}
);
width = 121;
},
{
layerId = "957254E3-B7AD-4837-9092-D4428001DE8E";
paths = (
{
closed = 1;
nodes = (
"-79 0 LINE",
"357 697 LINE",
"251 697 LINE",
"-185 0 LINE"
);
}
);
width = 173;
}
);
note = fraction;
unicode = 2044;
},
{
color = 1;
glyphname = onehalf;
lastChange = "2020-06-16 10:24:20 +0000";
layers = (
{
layerId = "F91D9E91-C1BC-4259-B0D8-112C0CBA2B8E";
paths = (
{
closed = 1;
nodes = (
"194 280 LINE",
"194 694 LINE",
"184 694 LINE",
"184 650 LINE SMOOTH",
"184 632 OFFCURVE",
"175 625 OFFCURVE",
"156 625 CURVE SMOOTH",
"74 625 LINE",
"74 615 LINE",
"190 615 LINE",
"184 623 LINE",
"184 280 LINE"
);
},
{
closed = 1;
nodes = (
"180 0 LINE",
"543 697 LINE",
"533 697 LINE",
"170 0 LINE"
);
},
{
closed = 1;
nodes = (
"731 0 LINE",
"731 10 LINE",
"461 10 LINE",
"461 15 LINE",
"579 90 OFFCURVE",
"707 177 OFFCURVE",
"707 301 CURVE SMOOTH",
"707 373 OFFCURVE",
"662 417 OFFCURVE",
"590 417 CURVE SMOOTH",
"511 417 OFFCURVE",
"467 367 OFFCURVE",
"467 284 CURVE",
"477 284 LINE",
"477 361 OFFCURVE",
"519 407 OFFCURVE",
"590 407 CURVE SMOOTH",
"658 407 OFFCURVE",
"697 367 OFFCURVE",
"697 301 CURVE SMOOTH",
"697 179 OFFCURVE",
"563 92 OFFCURVE",
"445 16 CURVE",
"445 0 LINE"
);
}
);
width = 812;
},
{
layerId = "957254E3-B7AD-4837-9092-D4428001DE8E";
paths = (
{
closed = 1;
nodes = (
"202 280 LINE",
"202 694 LINE",
"127 694 LINE",
"127 671 LINE SMOOTH",
"127 642 OFFCURVE",
"110 630 OFFCURVE",
"81 630 CURVE SMOOTH",
"28 630 LINE",
"28 569 LINE",
"146 569 LINE",
"123 606 LINE",
"123 280 LINE"
);
},
{
closed = 1;
nodes = (
"188 0 LINE",
"624 697 LINE",
"538 697 LINE",
"102 0 LINE"
);
},
{
closed = 1;
nodes = (
"765 0 LINE",
"765 72 LINE",
"546 72 LINE",
"568 65 LINE",
"646 102 OFFCURVE",
"745 197 OFFCURVE",
"745 290 CURVE SMOOTH",
"745 374 OFFCURVE",
"687 420 OFFCURVE",
"611 420 CURVE SMOOTH",
"518 420 OFFCURVE",
"465 343 OFFCURVE",
"465 267 CURVE",
"543 261 LINE",
"545 301 OFFCURVE",
"559 348 OFFCURVE",
"611 348 CURVE SMOOTH",
"650 348 OFFCURVE",
"665 322 OFFCURVE",
"665 292 CURVE SMOOTH",
"665 194 OFFCURVE",
"518 103 OFFCURVE",
"449 62 CURVE",
"449 0 LINE"
);
}
);
width = 803;
}
);
unicode = 00BD;
},
{
color = 1;
glyphname = onequarter;
lastChange = "2020-06-16 10:24:20 +0000";
layers = (
{
layerId = "F91D9E91-C1BC-4259-B0D8-112C0CBA2B8E";
paths = (
{
closed = 1;
nodes = (
"180 0 LINE",
"543 697 LINE",
"533 697 LINE",
"170 0 LINE"
);
},
{
closed = 1;
nodes = (
"194 280 LINE",
"194 694 LINE",
"184 694 LINE",
"184 650 LINE SMOOTH",
"184 632 OFFCURVE",
"175 625 OFFCURVE",
"156 625 CURVE SMOOTH",
"74 625 LINE",
"74 615 LINE",
"190 615 LINE",
"184 623 LINE",
"184 280 LINE"
);
},
{
closed = 1;
nodes = (
"664 0 LINE",
"664 103 LINE",
"733 103 LINE",
"733 113 LINE",
"664 113 LINE",
"664 414 LINE",
"651 414 LINE",
"434 112 LINE",
"434 103 LINE",
"654 103 LINE",
"654 0 LINE"
);
},
{
closed = 1;
nodes = (
"652 399 LINE",
"654 399 LINE",
"654 113 LINE",
"447 113 LINE"
);
}
);
width = 806;
},
{
layerId = "957254E3-B7AD-4837-9092-D4428001DE8E";
paths = (
{
closed = 1;
nodes = (
"188 0 LINE",
"624 697 LINE",
"538 697 LINE",
"102 0 LINE"
);
},
{
closed = 1;
nodes = (
"202 280 LINE",
"202 694 LINE",
"127 694 LINE",
"127 671 LINE SMOOTH",
"127 642 OFFCURVE",
"110 630 OFFCURVE",
"81 630 CURVE SMOOTH",
"28 630 LINE",
"28 569 LINE",
"146 569 LINE",
"123 606 LINE",
"123 280 LINE"
);
},
{
closed = 1;
nodes = (
"696 0 LINE",
"696 97 LINE",
"761 97 LINE",
"761 170 LINE",
"696 170 LINE",
"696 414 LINE",
"629 414 LINE",
"428 143 LINE",
"428 97 LINE",
"617 97 LINE",
"617 0 LINE"
);
},
{
closed = 1;
nodes = (
"637 320 LINE",
"617 326 LINE",
"617 170 LINE",
"531 170 LINE"
);
}
);
width = 791;
}
);
unicode = 00BC;
},
{
color = 1;
glyphname = threequarters;
lastChange = "2020-06-16 10:24:20 +0000";
layers = (
{
layerId = "F91D9E91-C1BC-4259-B0D8-112C0CBA2B8E";
paths = (
{
closed = 1;
nodes = (
"319 0 LINE",
"682 697 LINE",
"672 697 LINE",
"309 0 LINE"
);
},
{
closed = 1;
nodes = (
"301 277 OFFCURVE",
"358 323 OFFCURVE",
"358 394 CURVE SMOOTH",
"358 469 OFFCURVE",
"291 494 OFFCURVE",
"242 500 CURVE",
"281 506 OFFCURVE",
"336 529 OFFCURVE",
"336 596 CURVE SMOOTH",
"336 655 OFFCURVE",
"286 697 OFFCURVE",
"219 697 CURVE SMOOTH",
"151 697 OFFCURVE",
"102 655 OFFCURVE",
"102 590 CURVE",
"112 590 LINE",
"112 647 OFFCURVE",
"157 687 OFFCURVE",
"220 687 CURVE SMOOTH",
"279 687 OFFCURVE",
"326 647 OFFCURVE",
"326 595 CURVE SMOOTH",
"326 521 OFFCURVE",
"252 504 OFFCURVE",
"199 504 CURVE",
"199 494 LINE",
"260 495 OFFCURVE",
"348 476 OFFCURVE",
"348 394 CURVE SMOOTH",
"348 328 OFFCURVE",
"294 287 OFFCURVE",
"221 287 CURVE SMOOTH",
"145 287 OFFCURVE",
"93 328 OFFCURVE",
"93 398 CURVE",
"83 397 LINE",
"83 323 OFFCURVE",
"138 277 OFFCURVE",
"221 277 CURVE SMOOTH"
);
},
{
closed = 1;
nodes = (
"803 0 LINE",
"803 103 LINE",
"872 103 LINE",
"872 113 LINE",
"803 113 LINE",
"803 414 LINE",
"790 414 LINE",
"573 112 LINE",
"573 103 LINE",
"793 103 LINE",
"793 0 LINE"
);
},
{
closed = 1;
nodes = (
"791 399 LINE",
"793 399 LINE",
"793 113 LINE",
"586 113 LINE"
);
}
);
width = 945;
},
{
layerId = "957254E3-B7AD-4837-9092-D4428001DE8E";
paths = (
{
closed = 1;
nodes = (
"313 0 LINE",
"749 697 LINE",
"663 697 LINE",
"227 0 LINE"
);
},
{
closed = 1;
nodes = (
"269 274 OFFCURVE",
"343 317 OFFCURVE",
"343 403 CURVE SMOOTH",
"343 445 OFFCURVE",
"326 490 OFFCURVE",
"272 505 CURVE",
"312 526 OFFCURVE",
"321 557 OFFCURVE",
"321 586 CURVE SMOOTH",
"321 658 OFFCURVE",
"256 700 OFFCURVE",
"187 700 CURVE SMOOTH",
"115 700 OFFCURVE",
"53 655 OFFCURVE",
"53 576 CURVE",
"128 571 LINE",
"129 605 OFFCURVE",
"153 626 OFFCURVE",
"189 626 CURVE SMOOTH",
"218 626 OFFCURVE",
"244 613 OFFCURVE",
"244 569 CURVE SMOOTH",
"244 545 OFFCURVE",
"236 523 OFFCURVE",
"170 523 CURVE",
"170 471 LINE",
"213 471 OFFCURVE",
"267 466 OFFCURVE",
"267 411 CURVE SMOOTH",
"267 365 OFFCURVE",
"228 347 OFFCURVE",
"189 347 CURVE SMOOTH",
"144 347 OFFCURVE",
"109 372 OFFCURVE",
"109 417 CURVE",
"33 412 LINE",
"33 319 OFFCURVE",
"106 274 OFFCURVE",
"188 274 CURVE SMOOTH"
);
},
{
closed = 1;
nodes = (
"821 0 LINE",
"821 97 LINE",
"886 97 LINE",
"886 170 LINE",
"821 170 LINE",
"821 414 LINE",
"754 414 LINE",
"553 143 LINE",
"553 97 LINE",
"742 97 LINE",
"742 0 LINE"
);
},
{
closed = 1;
nodes = (
"762 320 LINE",
"742 326 LINE",
"742 170 LINE",
"656 170 LINE"
);
}
);
width = 916;
}
);
unicode = 00BE;
},
{
color = 1;
glyphname = period;
lastChange = "2020-06-16 10:24:20 +0000";
layers = (
{
layerId = "F91D9E91-C1BC-4259-B0D8-112C0CBA2B8E";
paths = (
{
closed = 1;
nodes = (
"80 0 LINE",
"80 87 LINE",
"64 87 LINE",
"64 0 LINE"
);
}
);
width = 144;
},
{
layerId = "957254E3-B7AD-4837-9092-D4428001DE8E";
paths = (
{
closed = 1;
nodes = (
"220 0 LINE",
"220 142 LINE",
"66 142 LINE",
"66 0 LINE"
);
}
);
width = 286;
}
);
leftKerningGroup = period;
note = period;
rightKerningGroup = comma;
unicode = 002E;
},
{
color = 1;
glyphname = comma;
lastChange = "2020-06-16 10:24:20 +0000";
layers = (
{
layerId = "F91D9E91-C1BC-4259-B0D8-112C0CBA2B8E";
paths = (
{
closed = 1;
nodes = (
"30 -162 LINE",
"169 128 LINE",
"158 128 LINE",
"19 -162 LINE"
);
}
);
width = 188;
},
{
layerId = "957254E3-B7AD-4837-9092-D4428001DE8E";
paths = (
{
closed = 1;
nodes = (
"139 -145 LINE",
"262 162 LINE",
"93 162 LINE",
"41 -145 LINE"
);
}
);
width = 283;
}
);
leftKerningGroup = comma;
note = comma;
rightKerningGroup = comma;
unicode = 002C;
},
{
color = 1;
glyphname = colon;
lastChange = "2020-06-16 10:24:20 +0000";
layers = (
{
layerId = "F91D9E91-C1BC-4259-B0D8-112C0CBA2B8E";
paths = (
{
closed = 1;
nodes = (
"84 384 LINE",
"84 471 LINE",
"68 471 LINE",
"68 384 LINE"
);
},
{
closed = 1;
nodes = (
"84 0 LINE",
"84 87 LINE",
"68 87 LINE",
"68 0 LINE"
);
}
);
width = 152;
},
{
layerId = "957254E3-B7AD-4837-9092-D4428001DE8E";
paths = (
{
closed = 1;
nodes = (
"224 327 LINE",
"224 471 LINE",
"68 471 LINE",
"68 327 LINE"
);
},
{
closed = 1;
nodes = (
"224 0 LINE",
"224 142 LINE",
"68 142 LINE",
"68 0 LINE"
);
}
);
width = 292;
}
);
leftKerningGroup = colon;
note = colon;
rightKerningGroup = colon;
unicode = 003A;
},
{
color = 1;
glyphname = semicolon;
lastChange = "2020-06-16 10:24:20 +0000";
layers = (
{
layerId = "F91D9E91-C1BC-4259-B0D8-112C0CBA2B8E";
paths = (
{
closed = 1;
nodes = (
"20 -162 LINE",
"159 128 LINE",
"148 128 LINE",
"9 -162 LINE"
);
},
{
closed = 1;
nodes = (
"142 384 LINE",
"142 471 LINE",
"126 471 LINE",
"126 384 LINE"
);
}
);
width = 197;
},
{
layerId = "957254E3-B7AD-4837-9092-D4428001DE8E";
paths = (
{
closed = 1;
nodes = (
"128 -145 LINE",
"250 131 LINE",
"81 131 LINE",
"28 -145 LINE"
);
},
{
closed = 1;
nodes = (
"237 327 LINE",
"237 471 LINE",
"80 471 LINE",
"80 327 LINE"
);
}
);
width = 290;
}
);
leftKerningGroup = semicolon;
note = semicolon;
rightKerningGroup = colon;
unicode = 003B;
},
{
color = 1;
glyphname = ellipsis;
lastChange = "2020-06-16 10:24:20 +0000";
layers = (
{
layerId = "F91D9E91-C1BC-4259-B0D8-112C0CBA2B8E";
paths = (
{
closed = 1;
nodes = (
"488 0 LINE",
"488 87 LINE",
"472 87 LINE",
"472 0 LINE"
);
},
{
closed = 1;
nodes = (
"80 0 LINE",
"80 87 LINE",
"64 87 LINE",
"64 0 LINE"
);
},
{
closed = 1;
nodes = (
"284 0 LINE",
"284 87 LINE",
"268 87 LINE",
"268 0 LINE"
);
}
);
width = 552;
},
{
layerId = "957254E3-B7AD-4837-9092-D4428001DE8E";
paths = (
{
closed = 1;
nodes = (
"688 0 LINE",
"688 142 LINE",
"534 142 LINE",
"534 0 LINE"
);
},
{
closed = 1;
nodes = (
"220 0 LINE",
"220 142 LINE",
"66 142 LINE",
"66 0 LINE"
);
},
{
closed = 1;
nodes = (
"454 0 LINE",
"454 142 LINE",
"300 142 LINE",
"300 0 LINE"
);
}
);
width = 754;
}
);
leftKerningGroup = period;
leftMetricsKey = period;
note = ellipsis;
rightKerningGroup = comma;
rightMetricsKey = period;
unicode = 2026;
},
{
color = 1;
glyphname = exclam;
lastChange = "2020-06-16 10:24:20 +0000";
layers = (
{
layerId = "F91D9E91-C1BC-4259-B0D8-112C0CBA2B8E";
paths = (
{
closed = 1;
nodes = (
"80 182 LINE",
"80 697 LINE",
"69 697 LINE",
"69 182 LINE"
);
},
{
closed = 1;
nodes = (
"82 0 LINE",
"82 87 LINE",
"66 87 LINE",
"66 0 LINE"
);
}
);
width = 148;
},
{
layerId = "957254E3-B7AD-4837-9092-D4428001DE8E";
paths = (
{
closed = 1;
nodes = (
"194 219 LINE",
"212 697 LINE",
"63 697 LINE",
"80 219 LINE"
);
},
{
closed = 1;
nodes = (
"215 0 LINE",
"215 142 LINE",
"59 142 LINE",
"59 0 LINE"
);
}
);
width = 274;
}
);
leftKerningGroup = exclam;
note = exclam;
rightKerningGroup = exclam;
unicode = 0021;
},
{
color = 1;
glyphname = question;
lastChange = "2020-06-16 10:24:20 +0000";
layers = (
{
layerId = "F91D9E91-C1BC-4259-B0D8-112C0CBA2B8E";
paths = (
{
closed = 1;
nodes = (
"210 180 LINE",
"210 272 LINE SMOOTH",
"210 398 OFFCURVE",
"397 363 OFFCURVE",
"397 532 CURVE SMOOTH",
"397 640 OFFCURVE",
"325 702 OFFCURVE",
"201 702 CURVE SMOOTH",
"88 702 OFFCURVE",
"13 635 OFFCURVE",
"12 532 CURVE",
"22 532 LINE",
"23 629 OFFCURVE",
"93 692 OFFCURVE",
"201 692 CURVE SMOOTH",
"320 692 OFFCURVE",
"387 634 OFFCURVE",
"387 532 CURVE SMOOTH",
"387 374 OFFCURVE",
"200 408 OFFCURVE",
"200 272 CURVE SMOOTH",
"200 180 LINE"
);
},
{
closed = 1;
nodes = (
"213 0 LINE",
"213 87 LINE",
"197 87 LINE",
"197 0 LINE"
);
}
);
width = 415;
},
{
layerId = "957254E3-B7AD-4837-9092-D4428001DE8E";
paths = (
{
closed = 1;
nodes = (
"305 217 LINE",
"305 232 LINE SMOOTH",
"305 353 OFFCURVE",
"468 339 OFFCURVE",
"468 515 CURVE SMOOTH",
"468 655 OFFCURVE",
"365 708 OFFCURVE",
"252 708 CURVE SMOOTH",
"111 708 OFFCURVE",
"14 625 OFFCURVE",
"14 477 CURVE",
"147 477 LINE",
"146 547 OFFCURVE",
"179 583 OFFCURVE",
"249 583 CURVE SMOOTH",
"304 583 OFFCURVE",
"337 562 OFFCURVE",
"337 518 CURVE SMOOTH",
"337 422 OFFCURVE",
"178 424 OFFCURVE",
"178 243 CURVE SMOOTH",
"178 217 LINE"
);
},
{
closed = 1;
nodes = (
"321 0 LINE",
"321 142 LINE",
"166 142 LINE",
"166 0 LINE"
);
}
);
width = 488;
}
);
leftKerningGroup = question;
note = question;
rightKerningGroup = question;
unicode = 003F;
},
{
color = 1;
glyphname = periodcentered;
lastChange = "2020-06-16 10:24:20 +0000";
layers = (
{
layerId = "F91D9E91-C1BC-4259-B0D8-112C0CBA2B8E";
paths = (
{
closed = 1;
nodes = (
"80 305 LINE",
"80 392 LINE",
"64 392 LINE",
"64 305 LINE"
);
}
);
width = 144;
},
{
layerId = "957254E3-B7AD-4837-9092-D4428001DE8E";
paths = (
{
closed = 1;
nodes = (
"206 278 LINE",
"206 420 LINE",
"66 420 LINE",
"66 278 LINE"
);
}
);
width = 272;
}
);
leftKerningGroup = periodcentered;
note = periodcentered;
rightKerningGroup = periodcentered;
unicode = 00B7;
},
{
color = 1;
glyphname = bullet;
lastChange = "2020-06-16 10:24:20 +0000";
layers = (
{
layerId = "F91D9E91-C1BC-4259-B0D8-112C0CBA2B8E";
paths = (
{
closed = 1;
nodes = (
"228 166 LINE",
"228 328 LINE",
"66 328 LINE",
"66 166 LINE"
);
}
);
width = 294;
},
{
layerId = "957254E3-B7AD-4837-9092-D4428001DE8E";
paths = (
{
closed = 1;
nodes = (
"340 110 LINE",
"340 384 LINE",
"67 384 LINE",
"67 110 LINE"
);
}
);
width = 407;
}
);
leftKerningGroup = bullet;
note = bullet;
rightKerningGroup = bullet;
unicode = 2022;
},
{
color = 1;
glyphname = asterisk;
lastChange = "2020-06-16 10:24:20 +0000";
layers = (
{
layerId = "F91D9E91-C1BC-4259-B0D8-112C0CBA2B8E";
paths = (
{
closed = 1;
nodes = (
"161 535 LINE",
"249 420 LINE",
"255 424 LINE",
"170 542 LINE",
"307 590 LINE",
"305 596 LINE",
"167 552 LINE",
"165 697 LINE",
"158 697 LINE",
"156 552 LINE",
"19 596 LINE",
"16 590 LINE",
"153 542 LINE",
"69 424 LINE",
"74 420 LINE"
);
}
);
width = 324;
},
{
layerId = "957254E3-B7AD-4837-9092-D4428001DE8E";
paths = (
{
closed = 1;
nodes = (
"194 489 LINE",
"254 373 LINE",
"327 428 LINE",
"236 519 LINE",
"363 539 LINE",
"336 629 LINE",
"220 570 LINE",
"240 697 LINE",
"148 697 LINE",
"168 570 LINE",
"52 629 LINE",
"25 539 LINE",
"152 519 LINE",
"61 428 LINE",
"134 373 LINE"
);
}
);
width = 388;
}
);
leftKerningGroup = asterisk;
note = asterisk;
rightKerningGroup = asterisk;
unicode = 002A;
},
{
color = 1;
glyphname = numbersign;
lastChange = "2020-06-16 10:24:20 +0000";
layers = (
{
layerId = "F91D9E91-C1BC-4259-B0D8-112C0CBA2B8E";
paths = (
{
closed = 1;
nodes = (
"105 0 LINE",
"149 219 LINE",
"376 219 LINE",
"331 0 LINE",
"342 0 LINE",
"387 219 LINE",
"535 219 LINE",
"535 229 LINE",
"389 229 LINE",
"441 483 LINE",
"578 483 LINE",
"578 493 LINE",
"443 493 LINE",
"485 697 LINE",
"474 697 LINE",
"432 493 LINE",
"206 493 LINE",
"247 697 LINE",
"237 697 LINE",
"195 493 LINE",
"51 493 LINE",
"51 483 LINE",
"193 483 LINE",
"141 229 LINE",
"8 229 LINE",
"8 219 LINE",
"139 219 LINE",
"94 0 LINE"
);
},
{
closed = 1;
nodes = (
"204 483 LINE",
"430 483 LINE",
"378 229 LINE",
"151 229 LINE"
);
}
);
width = 586;
},
{
layerId = "957254E3-B7AD-4837-9092-D4428001DE8E";
paths = (
{
closed = 1;
nodes = (
"205 0 LINE",
"247 200 LINE",
"342 200 LINE",
"298 0 LINE",
"415 0 LINE",
"459 200 LINE",
"595 200 LINE",
"595 306 LINE",
"481 306 LINE",
"503 400 LINE",
"635 400 LINE",
"635 506 LINE",
"525 506 LINE",
"571 697 LINE",
"452 697 LINE",
"410 506 LINE",
"316 506 LINE",
"361 697 LINE",
"242 697 LINE",
"197 511 LINE",
"61 511 LINE",
"61 400 LINE",
"174 400 LINE",
"154 306 LINE",
"21 306 LINE",
"21 200 LINE",
"132 200 LINE",
"88 0 LINE"
);
},
{
closed = 1;
nodes = (
"291 400 LINE",
"385 400 LINE",
"367 306 LINE",
"273 306 LINE"
);
}
);
width = 656;
}
);
leftKerningGroup = numbersign;
note = numbersign;
rightKerningGroup = numbersign;
unicode = 0023;
},
{
color = 1;
glyphname = slash;
lastChange = "2020-06-16 10:24:20 +0000";
layers = (
{
layerId = "F91D9E91-C1BC-4259-B0D8-112C0CBA2B8E";
paths = (
{
closed = 1;
nodes = (
"0 -209 LINE",
"349 697 LINE",
"337 697 LINE",
"-12 -209 LINE"
);
}
);
width = 337;
},
{
layerId = "957254E3-B7AD-4837-9092-D4428001DE8E";
paths = (
{
closed = 1;
nodes = (
"100 -212 LINE",
"465 697 LINE",
"352 697 LINE",
"-12 -212 LINE"
);
}
);
width = 453;
}
);
leftKerningGroup = slash;
note = slash;
rightKerningGroup = slash;
unicode = 002F;
},
{
color = 1;
glyphname = triangularbullet;
lastChange = "2020-06-16 10:24:20 +0000";
layers = (
{
layerId = "F91D9E91-C1BC-4259-B0D8-112C0CBA2B8E";
paths = (
{
closed = 1;
nodes = (
"260 236 LINE",
"67 343 LINE",
"67 128 LINE"
);
}
);
width = 280;
},
{
layerId = "957254E3-B7AD-4837-9092-D4428001DE8E";
paths = (
{
closed = 1;
nodes = (
"433 271 LINE",
"67 486 LINE",
"67 55 LINE"
);
}
);
width = 443;
}
);
note = uni2023;
unicode = 2023;
},
{
color = 1;
glyphname = twodotenleader;
lastChange = "2020-06-16 10:24:20 +0000";
layers = (
{
layerId = "F91D9E91-C1BC-4259-B0D8-112C0CBA2B8E";
paths = (
{
closed = 1;
nodes = (
"284 0 LINE",
"284 87 LINE",
"268 87 LINE",
"268 0 LINE"
);
},
{
closed = 1;
nodes = (
"80 0 LINE",
"80 87 LINE",
"64 87 LINE",
"64 0 LINE"
);
}
);
width = 348;
},
{
layerId = "957254E3-B7AD-4837-9092-D4428001DE8E";
paths = (
{
closed = 1;
nodes = (
"422 0 LINE",
"422 142 LINE",
"270 142 LINE",
"270 0 LINE"
);
},
{
closed = 1;
nodes = (
"218 0 LINE",
"218 142 LINE",
"66 142 LINE",
"66 0 LINE"
);
}
);
width = 488;
}
);
leftKerningGroup = period;
leftMetricsKey = period;
note = twodotenleader;
rightKerningGroup = comma;
rightMetricsKey = period;
unicode = 2025;
},
{
color = 1;
glyphname = period.ss03;
lastChange = "2020-06-19 14:55:44 +0000";
layers = (
{
layerId = "F91D9E91-C1BC-4259-B0D8-112C0CBA2B8E";
paths = (
{
closed = 1;
nodes = (
"87 -5 OFFCURVE",
"96 4 OFFCURVE",
"96 15 CURVE SMOOTH",
"96 26 OFFCURVE",
"87 35 OFFCURVE",
"76 35 CURVE SMOOTH",
"65 35 OFFCURVE",
"56 26 OFFCURVE",
"56 15 CURVE SMOOTH",
"56 4 OFFCURVE",
"65 -5 OFFCURVE",
"76 -5 CURVE SMOOTH"
);
}
);
width = 152;
},
{
layerId = "957254E3-B7AD-4837-9092-D4428001DE8E";
paths = (
{
closed = 1;
nodes = (
"176 -11 OFFCURVE",
"213 27 OFFCURVE",
"213 75 CURVE SMOOTH",
"213 123 OFFCURVE",
"176 160 OFFCURVE",
"128 160 CURVE SMOOTH",
"80 160 OFFCURVE",
"43 123 OFFCURVE",
"43 75 CURVE SMOOTH",
"43 27 OFFCURVE",
"81 -11 OFFCURVE",
"128 -11 CURVE SMOOTH"
);
}
);
width = 256;
}
);
leftKerningGroup = comma;
note = period;
rightKerningGroup = comma;
},
{
color = 1;
glyphname = colon.ss03;
lastChange = "2020-06-19 14:55:44 +0000";
layers = (
{
layerId = "F91D9E91-C1BC-4259-B0D8-112C0CBA2B8E";
paths = (
{
closed = 1;
nodes = (
"87 407 OFFCURVE",
"96 416 OFFCURVE",
"96 427 CURVE SMOOTH",
"96 438 OFFCURVE",
"87 447 OFFCURVE",
"76 447 CURVE SMOOTH",
"65 447 OFFCURVE",
"56 438 OFFCURVE",
"56 427 CURVE SMOOTH",
"56 416 OFFCURVE",
"65 407 OFFCURVE",
"76 407 CURVE SMOOTH"
);
},
{
closed = 1;
nodes = (
"87 -5 OFFCURVE",
"96 4 OFFCURVE",
"96 15 CURVE SMOOTH",
"96 26 OFFCURVE",
"87 35 OFFCURVE",
"76 35 CURVE SMOOTH",
"65 35 OFFCURVE",
"56 26 OFFCURVE",
"56 15 CURVE SMOOTH",
"56 4 OFFCURVE",
"65 -5 OFFCURVE",
"76 -5 CURVE SMOOTH"
);
}
);
width = 152;
},
{
layerId = "957254E3-B7AD-4837-9092-D4428001DE8E";
paths = (
{
closed = 1;
nodes = (
"173 301 OFFCURVE",
"210 339 OFFCURVE",
"210 387 CURVE SMOOTH",
"210 435 OFFCURVE",
"173 472 OFFCURVE",
"125 472 CURVE SMOOTH",
"77 472 OFFCURVE",
"40 435 OFFCURVE",
"40 387 CURVE SMOOTH",
"40 339 OFFCURVE",
"78 301 OFFCURVE",
"125 301 CURVE SMOOTH"
);
},
{
closed = 1;
nodes = (
"173 -11 OFFCURVE",
"210 27 OFFCURVE",
"210 75 CURVE SMOOTH",
"210 123 OFFCURVE",
"173 160 OFFCURVE",
"125 160 CURVE SMOOTH",
"77 160 OFFCURVE",
"40 123 OFFCURVE",
"40 75 CURVE SMOOTH",
"40 27 OFFCURVE",
"78 -11 OFFCURVE",
"125 -11 CURVE SMOOTH"
);
}
);
width = 251;
}
);
leftKerningGroup = colon;
note = colon;
rightKerningGroup = colon;
},
{
color = 1;
glyphname = semicolon.ss03;
lastChange = "2020-06-19 14:55:44 +0000";
layers = (
{
layerId = "F91D9E91-C1BC-4259-B0D8-112C0CBA2B8E";
paths = (
{
closed = 1;
nodes = (
"21 -162 LINE",
"160 128 LINE",
"149 128 LINE",
"10 -162 LINE"
);
},
{
closed = 1;
nodes = (
"155 407 OFFCURVE",
"164 416 OFFCURVE",
"164 427 CURVE SMOOTH",
"164 438 OFFCURVE",
"155 447 OFFCURVE",
"144 447 CURVE SMOOTH",
"133 447 OFFCURVE",
"124 438 OFFCURVE",
"124 427 CURVE SMOOTH",
"124 416 OFFCURVE",
"133 407 OFFCURVE",
"144 407 CURVE SMOOTH"
);
}
);
width = 201;
},
{
layerId = "957254E3-B7AD-4837-9092-D4428001DE8E";
paths = (
{
closed = 1;
nodes = (
"124 -145 LINE",
"246 131 LINE",
"77 131 LINE",
"24 -145 LINE"
);
},
{
closed = 1;
nodes = (
"205 301 OFFCURVE",
"242 339 OFFCURVE",
"242 387 CURVE SMOOTH",
"242 435 OFFCURVE",
"205 472 OFFCURVE",
"157 472 CURVE SMOOTH",
"109 472 OFFCURVE",
"72 435 OFFCURVE",
"72 387 CURVE SMOOTH",
"72 339 OFFCURVE",
"110 301 OFFCURVE",
"157 301 CURVE SMOOTH"
);
}
);
width = 279;
}
);
leftKerningGroup = colon;
note = semicolon;
rightKerningGroup = colon;
},
{
color = 1;
glyphname = ellipsis.ss03;
lastChange = "2020-06-19 14:55:44 +0000";
layers = (
{
layerId = "F91D9E91-C1BC-4259-B0D8-112C0CBA2B8E";
paths = (
{
closed = 1;
nodes = (
"463 -5 OFFCURVE",
"472 4 OFFCURVE",
"472 15 CURVE SMOOTH",
"472 26 OFFCURVE",
"463 35 OFFCURVE",
"452 35 CURVE SMOOTH",
"441 35 OFFCURVE",
"432 26 OFFCURVE",
"432 15 CURVE SMOOTH",
"432 4 OFFCURVE",
"441 -5 OFFCURVE",
"452 -5 CURVE SMOOTH"
);
},
{
closed = 1;
nodes = (
"87 -5 OFFCURVE",
"96 4 OFFCURVE",
"96 15 CURVE SMOOTH",
"96 26 OFFCURVE",
"87 35 OFFCURVE",
"76 35 CURVE SMOOTH",
"65 35 OFFCURVE",
"56 26 OFFCURVE",
"56 15 CURVE SMOOTH",
"56 4 OFFCURVE",
"65 -5 OFFCURVE",
"76 -5 CURVE SMOOTH"
);
},
{
closed = 1;
nodes = (
"275 -5 OFFCURVE",
"284 4 OFFCURVE",
"284 15 CURVE SMOOTH",
"284 26 OFFCURVE",
"275 35 OFFCURVE",
"264 35 CURVE SMOOTH",
"253 35 OFFCURVE",
"244 26 OFFCURVE",
"244 15 CURVE SMOOTH",
"244 4 OFFCURVE",
"253 -5 OFFCURVE",
"264 -5 CURVE SMOOTH"
);
}
);
width = 528;
},
{
layerId = "957254E3-B7AD-4837-9092-D4428001DE8E";
paths = (
{
closed = 1;
nodes = (
"568 -11 OFFCURVE",
"605 27 OFFCURVE",
"605 75 CURVE SMOOTH",
"605 122 OFFCURVE",
"568 159 OFFCURVE",
"520 159 CURVE SMOOTH",
"472 159 OFFCURVE",
"436 122 OFFCURVE",
"436 75 CURVE SMOOTH",
"436 27 OFFCURVE",
"473 -11 OFFCURVE",
"520 -11 CURVE SMOOTH"
);
},
{
closed = 1;
nodes = (
"176 -11 OFFCURVE",
"212 27 OFFCURVE",
"212 75 CURVE SMOOTH",
"212 122 OFFCURVE",
"176 159 OFFCURVE",
"128 159 CURVE SMOOTH",
"80 159 OFFCURVE",
"43 122 OFFCURVE",
"43 75 CURVE SMOOTH",
"43 27 OFFCURVE",
"81 -11 OFFCURVE",
"128 -11 CURVE SMOOTH"
);
},
{
closed = 1;
nodes = (
"372 -11 OFFCURVE",
"408 27 OFFCURVE",
"408 75 CURVE SMOOTH",
"408 122 OFFCURVE",
"372 159 OFFCURVE",
"324 159 CURVE SMOOTH",
"276 159 OFFCURVE",
"240 122 OFFCURVE",
"240 75 CURVE SMOOTH",
"240 27 OFFCURVE",
"277 -11 OFFCURVE",
"324 -11 CURVE SMOOTH"
);
}
);
width = 648;
}
);
leftKerningGroup = comma;
leftMetricsKey = period.ss03;
note = ellipsis;
rightKerningGroup = comma;
rightMetricsKey = period.ss03;
},
{
color = 1;
glyphname = exclam.ss03;
lastChange = "2020-06-19 14:55:44 +0000";
layers = (
{
layerId = "F91D9E91-C1BC-4259-B0D8-112C0CBA2B8E";
paths = (
{
closed = 1;
nodes = (
"81 182 LINE",
"81 697 LINE",
"70 697 LINE",
"70 182 LINE"
);
},
{
closed = 1;
nodes = (
"86 -5 OFFCURVE",
"95 4 OFFCURVE",
"95 15 CURVE SMOOTH",
"95 26 OFFCURVE",
"86 35 OFFCURVE",
"75 35 CURVE SMOOTH",
"64 35 OFFCURVE",
"55 26 OFFCURVE",
"55 15 CURVE SMOOTH",
"55 4 OFFCURVE",
"64 -5 OFFCURVE",
"75 -5 CURVE SMOOTH"
);
}
);
width = 150;
},
{
layerId = "957254E3-B7AD-4837-9092-D4428001DE8E";
paths = (
{
closed = 1;
nodes = (
"187 219 LINE",
"205 697 LINE",
"56 697 LINE",
"73 219 LINE"
);
},
{
closed = 1;
nodes = (
"179 -11 OFFCURVE",
"215 27 OFFCURVE",
"215 76 CURVE SMOOTH",
"215 124 OFFCURVE",
"179 161 OFFCURVE",
"130 161 CURVE SMOOTH",
"81 161 OFFCURVE",
"45 124 OFFCURVE",
"45 76 CURVE SMOOTH",
"45 27 OFFCURVE",
"83 -11 OFFCURVE",
"130 -11 CURVE SMOOTH"
);
}
);
width = 263;
}
);
leftKerningGroup = exclam;
note = exclam;
rightKerningGroup = exclam;
},
{
color = 1;
glyphname = exclamdown.ss03;
lastChange = "2020-06-19 14:55:44 +0000";
layers = (
{
layerId = "F91D9E91-C1BC-4259-B0D8-112C0CBA2B8E";
paths = (
{
closed = 1;
nodes = (
"80 -204 LINE",
"80 311 LINE",
"69 311 LINE",
"69 -204 LINE"
);
},
{
closed = 1;
nodes = (
"86 458 OFFCURVE",
"95 467 OFFCURVE",
"95 478 CURVE SMOOTH",
"95 489 OFFCURVE",
"86 498 OFFCURVE",
"75 498 CURVE SMOOTH",
"64 498 OFFCURVE",
"55 489 OFFCURVE",
"55 478 CURVE SMOOTH",
"55 467 OFFCURVE",
"64 458 OFFCURVE",
"75 458 CURVE SMOOTH"
);
}
);
width = 149;
},
{
layerId = "957254E3-B7AD-4837-9092-D4428001DE8E";
paths = (
{
closed = 1;
nodes = (
"207 -204 LINE",
"190 274 LINE",
"76 274 LINE",
"58 -204 LINE"
);
},
{
closed = 1;
nodes = (
"181 333 OFFCURVE",
"218 370 OFFCURVE",
"218 418 CURVE SMOOTH",
"218 466 OFFCURVE",
"180 504 OFFCURVE",
"133 504 CURVE SMOOTH",
"85 504 OFFCURVE",
"48 466 OFFCURVE",
"48 418 CURVE SMOOTH",
"48 370 OFFCURVE",
"85 333 OFFCURVE",
"133 333 CURVE SMOOTH"
);
}
);
width = 265;
}
);
leftKerningGroup = exclamdown;
note = exclamdown;
rightKerningGroup = exclamdown;
},
{
color = 1;
glyphname = question.ss03;
lastChange = "2020-06-19 14:55:44 +0000";
layers = (
{
layerId = "F91D9E91-C1BC-4259-B0D8-112C0CBA2B8E";
paths = (
{
closed = 1;
nodes = (
"210 180 LINE",
"210 272 LINE SMOOTH",
"210 398 OFFCURVE",
"397 363 OFFCURVE",
"397 532 CURVE SMOOTH",
"397 640 OFFCURVE",
"325 702 OFFCURVE",
"201 702 CURVE SMOOTH",
"88 702 OFFCURVE",
"13 635 OFFCURVE",
"12 532 CURVE",
"22 532 LINE",
"23 629 OFFCURVE",
"93 692 OFFCURVE",
"201 692 CURVE SMOOTH",
"320 692 OFFCURVE",
"387 634 OFFCURVE",
"387 532 CURVE SMOOTH",
"387 374 OFFCURVE",
"200 408 OFFCURVE",
"200 272 CURVE SMOOTH",
"200 180 LINE"
);
},
{
closed = 1;
nodes = (
"216 -5 OFFCURVE",
"225 4 OFFCURVE",
"225 15 CURVE SMOOTH",
"225 26 OFFCURVE",
"216 35 OFFCURVE",
"205 35 CURVE SMOOTH",
"194 35 OFFCURVE",
"185 26 OFFCURVE",
"185 15 CURVE SMOOTH",
"185 4 OFFCURVE",
"194 -5 OFFCURVE",
"205 -5 CURVE SMOOTH"
);
}
);
width = 415;
},
{
layerId = "957254E3-B7AD-4837-9092-D4428001DE8E";
paths = (
{
closed = 1;
nodes = (
"305 217 LINE",
"305 232 LINE SMOOTH",
"305 353 OFFCURVE",
"468 339 OFFCURVE",
"468 515 CURVE SMOOTH",
"468 655 OFFCURVE",
"365 708 OFFCURVE",
"252 708 CURVE SMOOTH",
"111 708 OFFCURVE",
"14 625 OFFCURVE",
"14 477 CURVE",
"147 477 LINE",
"146 547 OFFCURVE",
"179 583 OFFCURVE",
"249 583 CURVE SMOOTH",
"304 583 OFFCURVE",
"337 562 OFFCURVE",
"337 518 CURVE SMOOTH",
"337 422 OFFCURVE",
"178 424 OFFCURVE",
"178 243 CURVE SMOOTH",
"178 217 LINE"
);
},
{
closed = 1;
nodes = (
"293 -11 OFFCURVE",
"330 27 OFFCURVE",
"330 75 CURVE SMOOTH",
"330 123 OFFCURVE",
"293 160 OFFCURVE",
"245 160 CURVE SMOOTH",
"197 160 OFFCURVE",
"160 123 OFFCURVE",
"160 75 CURVE SMOOTH",
"160 27 OFFCURVE",
"198 -11 OFFCURVE",
"245 -11 CURVE SMOOTH"
);
}
);
width = 487;
}
);
leftKerningGroup = question;
note = question;
rightKerningGroup = question;
},
{
color = 1;
glyphname = questiondown.ss03;
lastChange = "2020-06-19 14:55:44 +0000";
layers = (
{
layerId = "F91D9E91-C1BC-4259-B0D8-112C0CBA2B8E";
paths = (
{
closed = 1;
nodes = (
"327 -209 OFFCURVE",
"402 -142 OFFCURVE",
"403 -39 CURVE",
"393 -39 LINE",
"392 -136 OFFCURVE",
"322 -199 OFFCURVE",
"214 -199 CURVE SMOOTH",
"95 -199 OFFCURVE",
"28 -141 OFFCURVE",
"28 -39 CURVE SMOOTH",
"28 119 OFFCURVE",
"215 85 OFFCURVE",
"215 221 CURVE SMOOTH",
"215 313 LINE",
"205 313 LINE",
"205 221 LINE SMOOTH",
"205 95 OFFCURVE",
"18 130 OFFCURVE",
"18 -39 CURVE SMOOTH",
"18 -147 OFFCURVE",
"90 -209 OFFCURVE",
"214 -209 CURVE SMOOTH"
);
},
{
closed = 1;
nodes = (
"221 458 OFFCURVE",
"230 467 OFFCURVE",
"230 478 CURVE SMOOTH",
"230 489 OFFCURVE",
"221 498 OFFCURVE",
"210 498 CURVE SMOOTH",
"199 498 OFFCURVE",
"190 489 OFFCURVE",
"190 478 CURVE SMOOTH",
"190 467 OFFCURVE",
"199 458 OFFCURVE",
"210 458 CURVE SMOOTH"
);
}
);
width = 415;
},
{
layerId = "957254E3-B7AD-4837-9092-D4428001DE8E";
paths = (
{
closed = 1;
nodes = (
"376 -215 OFFCURVE",
"473 -132 OFFCURVE",
"473 16 CURVE",
"340 16 LINE",
"341 -54 OFFCURVE",
"308 -90 OFFCURVE",
"238 -90 CURVE SMOOTH",
"183 -90 OFFCURVE",
"150 -69 OFFCURVE",
"150 -25 CURVE SMOOTH",
"150 71 OFFCURVE",
"309 69 OFFCURVE",
"309 250 CURVE SMOOTH",
"309 276 LINE",
"182 276 LINE",
"182 261 LINE SMOOTH",
"182 140 OFFCURVE",
"19 154 OFFCURVE",
"19 -22 CURVE SMOOTH",
"19 -162 OFFCURVE",
"122 -215 OFFCURVE",
"235 -215 CURVE SMOOTH"
);
},
{
closed = 1;
nodes = (
"290 333 OFFCURVE",
"327 370 OFFCURVE",
"327 418 CURVE SMOOTH",
"327 466 OFFCURVE",
"289 504 OFFCURVE",
"242 504 CURVE SMOOTH",
"194 504 OFFCURVE",
"157 466 OFFCURVE",
"157 418 CURVE SMOOTH",
"157 370 OFFCURVE",
"194 333 OFFCURVE",
"242 333 CURVE SMOOTH"
);
}
);
width = 487;
}
);
leftKerningGroup = questiondown;
note = questiondown;
rightKerningGroup = questiondown;
},
{
color = 1;
glyphname = bullet.ss03;
lastChange = "2020-06-19 14:55:44 +0000";
layers = (
{
layerId = "F91D9E91-C1BC-4259-B0D8-112C0CBA2B8E";
paths = (
{
closed = 1;
nodes = (
"221 120 OFFCURVE",
"274 173 OFFCURVE",
"274 237 CURVE SMOOTH",
"274 302 OFFCURVE",
"221 355 OFFCURVE",
"156 355 CURVE SMOOTH",
"92 355 OFFCURVE",
"39 302 OFFCURVE",
"39 237 CURVE SMOOTH",
"39 173 OFFCURVE",
"92 120 OFFCURVE",
"156 120 CURVE SMOOTH"
);
}
);
width = 313;
},
{
layerId = "957254E3-B7AD-4837-9092-D4428001DE8E";
paths = (
{
closed = 1;
nodes = (
"221 120 OFFCURVE",
"273 174 OFFCURVE",
"273 237 CURVE SMOOTH",
"273 302 OFFCURVE",
"220 355 OFFCURVE",
"156 355 CURVE SMOOTH",
"91 355 OFFCURVE",
"39 301 OFFCURVE",
"39 237 CURVE SMOOTH",
"39 173 OFFCURVE",
"91 120 OFFCURVE",
"156 120 CURVE SMOOTH"
);
}
);
width = 312;
}
);
leftKerningGroup = bullet;
note = bullet;
rightKerningGroup = bullet;
},
{
color = 1;
glyphname = twodotenleader.ss03;
lastChange = "2020-06-19 14:55:44 +0000";
layers = (
{
layerId = "F91D9E91-C1BC-4259-B0D8-112C0CBA2B8E";
paths = (
{
closed = 1;
nodes = (
"275 -5 OFFCURVE",
"284 4 OFFCURVE",
"284 15 CURVE SMOOTH",
"284 26 OFFCURVE",
"275 35 OFFCURVE",
"264 35 CURVE SMOOTH",
"253 35 OFFCURVE",
"244 26 OFFCURVE",
"244 15 CURVE SMOOTH",
"244 4 OFFCURVE",
"253 -5 OFFCURVE",
"264 -5 CURVE SMOOTH"
);
},
{
closed = 1;
nodes = (
"87 -5 OFFCURVE",
"96 4 OFFCURVE",
"96 15 CURVE SMOOTH",
"96 26 OFFCURVE",
"87 35 OFFCURVE",
"76 35 CURVE SMOOTH",
"65 35 OFFCURVE",
"56 26 OFFCURVE",
"56 15 CURVE SMOOTH",
"56 4 OFFCURVE",
"65 -5 OFFCURVE",
"76 -5 CURVE SMOOTH"
);
}
);
width = 340;
},
{
layerId = "957254E3-B7AD-4837-9092-D4428001DE8E";
paths = (
{
closed = 1;
nodes = (
"374 -11 OFFCURVE",
"411 27 OFFCURVE",
"411 75 CURVE SMOOTH",
"411 123 OFFCURVE",
"374 160 OFFCURVE",
"326 160 CURVE SMOOTH",
"277 160 OFFCURVE",
"241 123 OFFCURVE",
"241 75 CURVE SMOOTH",
"241 27 OFFCURVE",
"278 -11 OFFCURVE",
"326 -11 CURVE SMOOTH"
);
},
{
closed = 1;
nodes = (
"177 -11 OFFCURVE",
"213 27 OFFCURVE",
"213 75 CURVE SMOOTH",
"213 123 OFFCURVE",
"177 160 OFFCURVE",
"128 160 CURVE SMOOTH",
"80 160 OFFCURVE",
"43 123 OFFCURVE",
"43 75 CURVE SMOOTH",
"43 27 OFFCURVE",
"81 -11 OFFCURVE",
"128 -11 CURVE SMOOTH"
);
}
);
width = 454;
}
);
leftKerningGroup = period;
leftMetricsKey = period.ss03;
note = twodotenleader;
rightKerningGroup = comma;
rightMetricsKey = period.ss03;
},
{
color = 1;
glyphname = parenleft;
lastChange = "2020-06-19 16:36:39 +0000";
layers = (
{
layerId = "F91D9E91-C1BC-4259-B0D8-112C0CBA2B8E";
paths = (
{
closed = 1;
nodes = (
"149 -204 LINE",
"77 -97 OFFCURVE",
"35 113 OFFCURVE",
"35 245 CURVE SMOOTH",
"35 382 OFFCURVE",
"68 568 OFFCURVE",
"150 697 CURVE",
"137 697 LINE",
"56 565 OFFCURVE",
"25 382 OFFCURVE",
"25 245 CURVE SMOOTH",
"25 114 OFFCURVE",
"65 -92 OFFCURVE",
"136 -204 CURVE"
);
}
);
width = 154;
},
{
layerId = "957254E3-B7AD-4837-9092-D4428001DE8E";
paths = (
{
closed = 1;
nodes = (
"285 -204 LINE",
"191 -87 OFFCURVE",
"144 80 OFFCURVE",
"144 247 CURVE SMOOTH",
"144 413 OFFCURVE",
"191 580 OFFCURVE",
"285 697 CURVE",
"150 697 LINE",
"67 587 OFFCURVE",
"26 417 OFFCURVE",
"26 246 CURVE SMOOTH",
"26 76 OFFCURVE",
"67 -95 OFFCURVE",
"150 -204 CURVE"
);
}
);
width = 285;
}
);
leftKerningGroup = parenleft;
note = parenleft;
rightKerningGroup = parenleft;
unicode = 0028;
},
{
color = 1;
glyphname = braceleft;
lastChange = "2020-06-19 16:38:59 +0000";
layers = (
{
layerId = "F91D9E91-C1BC-4259-B0D8-112C0CBA2B8E";
paths = (
{
closed = 1;
nodes = (
"192 -244 LINE",
"192 -234 LINE",
"165 -234 LINE SMOOTH",
"100 -234 OFFCURVE",
"71 -206 OFFCURVE",
"71 -139 CURVE SMOOTH",
"71 162 LINE SMOOTH",
"71 208 OFFCURVE",
"55 233 OFFCURVE",
"17 243 CURVE",
"17 250 LINE",
"55 260 OFFCURVE",
"71 285 OFFCURVE",
"71 331 CURVE SMOOTH",
"71 632 LINE SMOOTH",
"71 699 OFFCURVE",
"100 727 OFFCURVE",
"165 727 CURVE SMOOTH",
"192 727 LINE",
"192 737 LINE",
"165 737 LINE SMOOTH",
"94 737 OFFCURVE",
"61 704 OFFCURVE",
"61 632 CURVE SMOOTH",
"61 331 LINE SMOOTH",
"61 287 OFFCURVE",
"46 266 OFFCURVE",
"7 258 CURVE",
"7 235 LINE",
"46 227 OFFCURVE",
"61 206 OFFCURVE",
"61 162 CURVE SMOOTH",
"61 -139 LINE SMOOTH",
"61 -211 OFFCURVE",
"94 -244 OFFCURVE",
"165 -244 CURVE SMOOTH"
);
}
);
width = 192;
},
{
layerId = "957254E3-B7AD-4837-9092-D4428001DE8E";
paths = (
{
closed = 1;
nodes = (
"275 -249 LINE",
"275 -154 LINE",
"235 -154 LINE SMOOTH",
"203 -154 OFFCURVE",
"199 -123 OFFCURVE",
"199 -98 CURVE SMOOTH",
"199 116 LINE SMOOTH",
"199 190 OFFCURVE",
"169 220 OFFCURVE",
"125 244 CURVE",
"125 249 LINE",
"169 273 OFFCURVE",
"199 303 OFFCURVE",
"199 377 CURVE SMOOTH",
"199 591 LINE SMOOTH",
"199 616 OFFCURVE",
"203 647 OFFCURVE",
"235 647 CURVE SMOOTH",
"275 647 LINE",
"275 742 LINE",
"183 742 LINE SMOOTH",
"112 742 OFFCURVE",
"71 685 OFFCURVE",
"71 594 CURVE SMOOTH",
"71 380 LINE SMOOTH",
"71 311 OFFCURVE",
"28 296 OFFCURVE",
"3 295 CURVE",
"3 198 LINE",
"28 197 OFFCURVE",
"71 182 OFFCURVE",
"71 113 CURVE SMOOTH",
"71 -101 LINE SMOOTH",
"71 -192 OFFCURVE",
"112 -249 OFFCURVE",
"183 -249 CURVE SMOOTH"
);
}
);
width = 288;
}
);
leftKerningGroup = braceleft;
note = braceleft;
rightKerningGroup = bracketleft;
unicode = 007B;
},
{
color = 1;
glyphname = bracketleft;
lastChange = "2020-06-19 16:49:05 +0000";
layers = (
{
layerId = "F91D9E91-C1BC-4259-B0D8-112C0CBA2B8E";
paths = (
{
closed = 1;
nodes = (
"213 -245 LINE",
"213 -235 LINE",
"68 -235 LINE",
"68 728 LINE",
"213 728 LINE",
"213 738 LINE",
"58 738 LINE",
"58 -245 LINE"
);
}
);
width = 214;
},
{
layerId = "957254E3-B7AD-4837-9092-D4428001DE8E";
paths = (
{
closed = 1;
nodes = (
"287 -249 LINE",
"287 -149 LINE",
"180 -149 LINE",
"180 642 LINE",
"287 642 LINE",
"287 742 LINE",
"58 742 LINE",
"58 -249 LINE"
);
}
);
width = 300;
}
);
leftKerningGroup = bracketleft;
note = bracketleft;
rightKerningGroup = bracketleft;
unicode = 005B;
},
{
color = 1;
glyphname = hyphen;
lastChange = "2020-06-19 15:02:57 +0000";
layers = (
{
layerId = "F91D9E91-C1BC-4259-B0D8-112C0CBA2B8E";
paths = (
{
closed = 1;
nodes = (
"285 313 LINE",
"285 323 LINE",
"41 323 LINE",
"41 313 LINE"
);
}
);
width = 326;
},
{
layerId = "957254E3-B7AD-4837-9092-D4428001DE8E";
paths = (
{
closed = 1;
nodes = (
"347 234 LINE",
"347 346 LINE",
"46 346 LINE",
"46 234 LINE"
);
}
);
width = 393;
}
);
leftKerningGroup = hyphen;
note = hyphen;
rightKerningGroup = hyphen;
unicode = 002D;
},
{
color = 1;
glyphname = softhyphen;
lastChange = "2020-06-16 10:24:20 +0000";
layers = (
{
layerId = "F91D9E91-C1BC-4259-B0D8-112C0CBA2B8E";
paths = (
{
closed = 1;
nodes = (
"356 313 LINE",
"356 323 LINE",
"41 323 LINE",
"41 313 LINE"
);
}
);
width = 397;
},
{
layerId = "957254E3-B7AD-4837-9092-D4428001DE8E";
paths = (
{
closed = 1;
nodes = (
"416 234 LINE",
"416 346 LINE",
"46 346 LINE",
"46 234 LINE"
);
}
);
width = 462;
}
);
note = uni00AD;
unicode = 00AD;
},
{
color = 1;
glyphname = endash;
lastChange = "2020-06-16 10:24:20 +0000";
layers = (
{
layerId = "F91D9E91-C1BC-4259-B0D8-112C0CBA2B8E";
paths = (
{
closed = 1;
nodes = (
"333 313 LINE",
"333 323 LINE",
"-2 323 LINE",
"-2 313 LINE"
);
}
);
width = 331;
},
{
layerId = "957254E3-B7AD-4837-9092-D4428001DE8E";
paths = (
{
closed = 1;
nodes = (
"388 234 LINE",
"388 346 LINE",
"-2 346 LINE",
"-2 234 LINE"
);
}
);
width = 386;
}
);
leftKerningGroup = hyphen;
leftMetricsKey = emdash;
note = endash;
rightKerningGroup = hyphen;
rightMetricsKey = emdash;
unicode = 2013;
},
{
color = 1;
glyphname = emdash;
lastChange = "2020-06-16 10:24:20 +0000";
layers = (
{
layerId = "F91D9E91-C1BC-4259-B0D8-112C0CBA2B8E";
paths = (
{
closed = 1;
nodes = (
"1008 313 LINE",
"1008 323 LINE",
"-2 323 LINE",
"-2 313 LINE"
);
}
);
width = 1006;
},
{
layerId = "957254E3-B7AD-4837-9092-D4428001DE8E";
paths = (
{
closed = 1;
nodes = (
"1008 234 LINE",
"1008 346 LINE",
"-2 346 LINE",
"-2 234 LINE"
);
}
);
width = 1006;
}
);
leftKerningGroup = hyphen;
note = emdash;
rightKerningGroup = hyphen;
unicode = 2014;
},
{
color = 1;
glyphname = horizontalbar;
lastChange = "2020-06-16 10:24:20 +0000";
layers = (
{
layerId = "F91D9E91-C1BC-4259-B0D8-112C0CBA2B8E";
paths = (
{
closed = 1;
nodes = (
"619 313 LINE",
"619 323 LINE",
"41 323 LINE",
"41 313 LINE"
);
}
);
width = 660;
},
{
layerId = "957254E3-B7AD-4837-9092-D4428001DE8E";
paths = (
{
closed = 1;
nodes = (
"679 234 LINE",
"679 346 LINE",
"46 346 LINE",
"46 234 LINE"
);
}
);
width = 725;
}
);
note = uni2015;
unicode = 2015;
},
{
color = 1;
glyphname = underscore;
lastChange = "2020-06-16 10:24:20 +0000";
layers = (
{
layerId = "F91D9E91-C1BC-4259-B0D8-112C0CBA2B8E";
paths = (
{
closed = 1;
nodes = (
"417 -10 LINE",
"417 0 LINE",
"41 0 LINE",
"41 -10 LINE"
);
}
);
width = 458;
},
{
layerId = "957254E3-B7AD-4837-9092-D4428001DE8E";
paths = (
{
closed = 1;
nodes = (
"476 -114 LINE",
"476 0 LINE",
"45 0 LINE",
"45 -114 LINE"
);
}
);
width = 521;
}
);
leftKerningGroup = underscore;
note = underscore;
rightKerningGroup = underscore;
unicode = 005F;
},
{
color = 1;
glyphname = quotesinglbase;
lastChange = "2020-06-16 10:24:20 +0000";
layers = (
{
layerId = "F91D9E91-C1BC-4259-B0D8-112C0CBA2B8E";
paths = (
{
closed = 1;
nodes = (
"20 -162 LINE",
"159 128 LINE",
"148 128 LINE",
"9 -162 LINE"
);
}
);
width = 168;
},
{
layerId = "957254E3-B7AD-4837-9092-D4428001DE8E";
paths = (
{
closed = 1;
nodes = (
"132 -145 LINE",
"255 131 LINE",
"80 131 LINE",
"34 -145 LINE"
);
}
);
width = 266;
}
);
leftKerningGroup = quotesinglbase;
note = quotesinglbase;
rightKerningGroup = quotesinglbase;
unicode = 201A;
},
{
color = 1;
glyphname = quotedblbase;
lastChange = "2020-06-16 10:24:20 +0000";
layers = (
{
layerId = "F91D9E91-C1BC-4259-B0D8-112C0CBA2B8E";
paths = (
{
closed = 1;
nodes = (
"161 -162 LINE",
"300 128 LINE",
"289 128 LINE",
"150 -162 LINE"
);
},
{
closed = 1;
nodes = (
"20 -162 LINE",
"159 128 LINE",
"148 128 LINE",
"9 -162 LINE"
);
}
);
width = 309;
},
{
layerId = "957254E3-B7AD-4837-9092-D4428001DE8E";
paths = (
{
closed = 1;
nodes = (
"351 -145 LINE",
"473 131 LINE",
"298 131 LINE",
"253 -145 LINE"
);
},
{
closed = 1;
nodes = (
"132 -145 LINE",
"255 131 LINE",
"80 131 LINE",
"34 -145 LINE"
);
}
);
width = 484;
}
);
leftKerningGroup = quotesinglbase;
note = quotedblbase;
rightKerningGroup = quotesinglbase;
unicode = 201E;
},
{
color = 1;
glyphname = quotedblleft;
lastChange = "2020-06-16 10:24:20 +0000";
layers = (
{
layerId = "F91D9E91-C1BC-4259-B0D8-112C0CBA2B8E";
paths = (
{
closed = 1;
nodes = (
"161 407 LINE",
"301 697 LINE",
"289 697 LINE",
"150 407 LINE"
);
},
{
closed = 1;
nodes = (
"20 407 LINE",
"159 697 LINE",
"148 697 LINE",
"9 407 LINE"
);
}
);
width = 310;
},
{
layerId = "957254E3-B7AD-4837-9092-D4428001DE8E";
paths = (
{
closed = 1;
nodes = (
"392 420 LINE",
"437 697 LINE",
"338 697 LINE",
"217 420 LINE"
);
},
{
closed = 1;
nodes = (
"186 420 LINE",
"232 697 LINE",
"133 697 LINE",
"11 420 LINE"
);
}
);
width = 472;
}
);
leftKerningGroup = quoteleft;
note = quotedblleft;
rightKerningGroup = quoteright;
unicode = 201C;
},
{
color = 1;
glyphname = quotedblright;
lastChange = "2020-06-16 10:24:20 +0000";
layers = (
{
layerId = "F91D9E91-C1BC-4259-B0D8-112C0CBA2B8E";
paths = (
{
closed = 1;
nodes = (
"161 407 LINE",
"300 697 LINE",
"289 697 LINE",
"150 407 LINE"
);
},
{
closed = 1;
nodes = (
"20 407 LINE",
"159 697 LINE",
"148 697 LINE",
"9 407 LINE"
);
}
);
width = 309;
},
{
layerId = "957254E3-B7AD-4837-9092-D4428001DE8E";
paths = (
{
closed = 1;
nodes = (
"339 421 LINE",
"460 697 LINE",
"286 697 LINE",
"240 421 LINE"
);
},
{
closed = 1;
nodes = (
"132 421 LINE",
"255 697 LINE",
"80 697 LINE",
"34 421 LINE"
);
}
);
width = 472;
}
);
leftKerningGroup = quoteleft;
note = quotedblright;
rightKerningGroup = quoteright;
unicode = 201D;
},
{
color = 1;
glyphname = quoteleft;
lastChange = "2020-06-16 10:24:20 +0000";
layers = (
{
layerId = "F91D9E91-C1BC-4259-B0D8-112C0CBA2B8E";
paths = (
{
closed = 1;
nodes = (
"20 407 LINE",
"159 697 LINE",
"148 697 LINE",
"9 407 LINE"
);
}
);
width = 168;
},
{
layerId = "957254E3-B7AD-4837-9092-D4428001DE8E";
paths = (
{
closed = 1;
nodes = (
"186 420 LINE",
"232 697 LINE",
"133 697 LINE",
"11 420 LINE"
);
}
);
width = 267;
}
);
leftKerningGroup = quoteleft;
note = quoteleft;
rightKerningGroup = quoteright;
unicode = 2018;
},
{
color = 1;
glyphname = quoteright;
lastChange = "2020-06-16 10:24:20 +0000";
layers = (
{
layerId = "F91D9E91-C1BC-4259-B0D8-112C0CBA2B8E";
paths = (
{
closed = 1;
nodes = (
"20 407 LINE",
"159 697 LINE",
"148 697 LINE",
"9 407 LINE"
);
}
);
width = 168;
},
{
layerId = "957254E3-B7AD-4837-9092-D4428001DE8E";
paths = (
{
closed = 1;
nodes = (
"132 421 LINE",
"255 697 LINE",
"80 697 LINE",
"34 421 LINE"
);
}
);
width = 266;
}
);
leftKerningGroup = quoteleft;
note = quoteright;
rightKerningGroup = quoteright;
unicode = 2019;
},
{
color = 1;
glyphname = guillemetleft;
lastChange = "2020-06-16 10:24:20 +0000";
layers = (
{
layerId = "F91D9E91-C1BC-4259-B0D8-112C0CBA2B8E";
paths = (
{
closed = 1;
nodes = (
"338 104 LINE",
"174 253 LINE",
"338 400 LINE",
"338 413 LINE",
"159 253 LINE",
"338 91 LINE"
);
},
{
closed = 1;
nodes = (
"182 104 LINE",
"17 253 LINE",
"182 400 LINE",
"182 413 LINE",
"3 253 LINE",
"182 91 LINE"
);
}
);
width = 353;
},
{
layerId = "957254E3-B7AD-4837-9092-D4428001DE8E";
paths = (
{
closed = 1;
nodes = (
"553 192 LINE",
"459 252 LINE",
"553 312 LINE",
"553 472 LINE",
"282 252 LINE",
"553 32 LINE"
);
},
{
closed = 1;
nodes = (
"270 192 LINE",
"176 252 LINE",
"270 312 LINE",
"270 472 LINE",
"-1 252 LINE",
"270 32 LINE"
);
}
);
width = 604;
}
);
note = guillemotleft;
unicode = 00AB;
},
{
color = 1;
glyphname = guilsinglleft;
lastChange = "2020-06-16 10:24:20 +0000";
layers = (
{
layerId = "F91D9E91-C1BC-4259-B0D8-112C0CBA2B8E";
paths = (
{
closed = 1;
nodes = (
"182 104 LINE",
"18 253 LINE",
"182 400 LINE",
"182 413 LINE",
"3 253 LINE",
"182 91 LINE"
);
}
);
width = 197;
},
{
layerId = "957254E3-B7AD-4837-9092-D4428001DE8E";
paths = (
{
closed = 1;
nodes = (
"270 192 LINE",
"176 252 LINE",
"270 312 LINE",
"270 472 LINE",
"-1 252 LINE",
"270 32 LINE"
);
}
);
width = 321;
}
);
leftKerningGroup = guillemotleft;
note = guilsinglleft;
rightKerningGroup = guillemotleft;
unicode = 2039;
},
{
color = 1;
glyphname = guilsinglright;
lastChange = "2020-06-16 10:24:20 +0000";
layers = (
{
layerId = "F91D9E91-C1BC-4259-B0D8-112C0CBA2B8E";
paths = (
{
closed = 1;
nodes = (
"193 253 LINE",
"14 413 LINE",
"14 400 LINE",
"178 253 LINE",
"14 104 LINE",
"14 91 LINE"
);
}
);
width = 197;
},
{
layerId = "957254E3-B7AD-4837-9092-D4428001DE8E";
paths = (
{
closed = 1;
nodes = (
"322 252 LINE",
"51 472 LINE",
"51 312 LINE",
"145 252 LINE",
"51 192 LINE",
"51 32 LINE"
);
}
);
width = 322;
}
);
leftKerningGroup = guillemotright;
note = guilsinglright;
rightKerningGroup = guillemotright;
unicode = 203A;
},
{
color = 1;
glyphname = quotedbl;
lastChange = "2020-06-16 10:24:20 +0000";
layers = (
{
layerId = "F91D9E91-C1BC-4259-B0D8-112C0CBA2B8E";
paths = (
{
closed = 1;
nodes = (
"68 420 LINE",
"68 697 LINE",
"57 697 LINE",
"57 420 LINE"
);
},
{
closed = 1;
nodes = (
"210 420 LINE",
"210 697 LINE",
"200 697 LINE",
"200 420 LINE"
);
}
);
width = 267;
},
{
layerId = "957254E3-B7AD-4837-9092-D4428001DE8E";
paths = (
{
closed = 1;
nodes = (
"183 407 LINE",
"183 697 LINE",
"57 697 LINE",
"57 407 LINE"
);
},
{
closed = 1;
nodes = (
"364 407 LINE",
"364 697 LINE",
"237 697 LINE",
"237 407 LINE"
);
}
);
width = 421;
}
);
leftKerningGroup = quotedbl;
note = quotedbl;
rightKerningGroup = quotedbl;
unicode = 0022;
},
{
color = 1;
glyphname = quotesingle;
lastChange = "2020-06-16 10:24:20 +0000";
layers = (
{
layerId = "F91D9E91-C1BC-4259-B0D8-112C0CBA2B8E";
paths = (
{
closed = 1;
nodes = (
"67 420 LINE",
"67 697 LINE",
"57 697 LINE",
"57 420 LINE"
);
}
);
width = 124;
},
{
layerId = "957254E3-B7AD-4837-9092-D4428001DE8E";
paths = (
{
closed = 1;
nodes = (
"184 407 LINE",
"184 697 LINE",
"57 697 LINE",
"57 407 LINE"
);
}
);
width = 241;
}
);
leftKerningGroup = quotedbl;
note = quotesingle;
rightKerningGroup = quotedbl;
unicode = 0027;
},
{
glyphname = .notdef;
lastChange = "2020-06-19 14:55:44 +0000";
layers = (
{
layerId = "F91D9E91-C1BC-4259-B0D8-112C0CBA2B8E";
paths = (
{
closed = 1;
nodes = (
"464 0 LINE",
"464 476 LINE",
"50 476 LINE",
"50 0 LINE"
);
},
{
closed = 1;
nodes = (
"60 466 LINE",
"454 466 LINE",
"454 10 LINE",
"60 10 LINE"
);
}
);
width = 514;
},
{
layerId = "957254E3-B7AD-4837-9092-D4428001DE8E";
paths = (
{
closed = 1;
nodes = (
"454 0 LINE",
"454 471 LINE",
"50 471 LINE",
"50 0 LINE"
);
},
{
closed = 1;
nodes = (
"100 420 LINE",
"403 420 LINE",
"403 51 LINE",
"100 51 LINE"
);
}
);
width = 504;
}
);
note = .notdef;
},
{
color = 1;
glyphname = austral;
lastChange = "2020-06-16 10:24:20 +0000";
layers = (
{
layerId = "F91D9E91-C1BC-4259-B0D8-112C0CBA2B8E";
paths = (
{
closed = 1;
nodes = (
"90 0 LINE",
"327 691 LINE",
"564 0 LINE",
"576 0 LINE",
"336 697 LINE",
"317 697 LINE",
"78 0 LINE"
);
},
{
closed = 1;
nodes = (
"599 200 LINE",
"599 210 LINE",
"55 210 LINE",
"55 200 LINE"
);
},
{
closed = 1;
nodes = (
"599 360 LINE",
"599 370 LINE",
"55 370 LINE",
"55 360 LINE"
);
}
);
width = 654;
},
{
layerId = "957254E3-B7AD-4837-9092-D4428001DE8E";
paths = (
{
closed = 1;
nodes = (
"252 0 LINE",
"429 463 LINE",
"604 0 LINE",
"775 0 LINE",
"486 697 LINE",
"371 697 LINE",
"81 0 LINE"
);
},
{
closed = 1;
nodes = (
"787 113 LINE",
"787 213 LINE",
"71 213 LINE",
"68 113 LINE"
);
},
{
closed = 1;
nodes = (
"786 260 LINE",
"786 360 LINE",
"70 360 LINE",
"70 260 LINE"
);
}
);
width = 856;
}
);
note = uni20B3;
unicode = 20B3;
},
{
color = 1;
glyphname = cent;
lastChange = "2020-06-16 10:24:20 +0000";
layers = (
{
components = (
{
name = c;
}
);
layerId = "F91D9E91-C1BC-4259-B0D8-112C0CBA2B8E";
paths = (
{
closed = 1;
nodes = (
"279 -113 LINE",
"279 0 LINE",
"269 0 LINE",
"269 -113 LINE"
);
},
{
closed = 1;
nodes = (
"279 493 LINE",
"279 601 LINE",
"269 601 LINE",
"269 493 LINE"
);
}
);
width = 510;
},
{
components = (
{
name = c;
}
);
layerId = "957254E3-B7AD-4837-9092-D4428001DE8E";
paths = (
{
closed = 1;
nodes = (
"323 -113 LINE",
"323 60 LINE",
"211 60 LINE",
"211 -113 LINE"
);
},
{
closed = 1;
nodes = (
"323 429 LINE",
"323 601 LINE",
"211 601 LINE",
"211 429 LINE"
);
}
);
width = 526;
}
);
leftKerningGroup = a;
leftMetricsKey = c;
note = cent;
rightKerningGroup = cent;
rightMetricsKey = c;
unicode = 00A2;
},
{
color = 1;
glyphname = currency;
lastChange = "2020-06-16 10:24:20 +0000";
layers = (
{
layerId = "F91D9E91-C1BC-4259-B0D8-112C0CBA2B8E";
paths = (
{
closed = 1;
nodes = (
"147 156 LINE",
"232 75 OFFCURVE",
"365 75 OFFCURVE",
"450 156 CURVE",
"497 109 LINE",
"504 116 LINE",
"457 163 LINE",
"538 247 OFFCURVE",
"538 381 OFFCURVE",
"457 466 CURVE",
"504 512 LINE",
"497 519 LINE",
"450 473 LINE",
"365 554 OFFCURVE",
"232 554 OFFCURVE",
"147 473 CURVE",
"101 519 LINE",
"94 512 LINE",
"140 466 LINE",
"59 381 OFFCURVE",
"59 247 OFFCURVE",
"140 163 CURVE",
"94 116 LINE",
"101 109 LINE"
);
},
{
closed = 1;
nodes = (
"66 252 OFFCURVE",
"70 383 OFFCURVE",
"151 462 CURVE SMOOTH",
"234 544 OFFCURVE",
"365 543 OFFCURVE",
"446 462 CURVE SMOOTH",
"529 379 OFFCURVE",
"528 247 OFFCURVE",
"446 167 CURVE SMOOTH",
"361 83 OFFCURVE",
"232 85 OFFCURVE",
"151 167 CURVE SMOOTH"
);
}
);
width = 597;
},
{
layerId = "957254E3-B7AD-4837-9092-D4428001DE8E";
paths = (
{
closed = 1;
nodes = (
"203 106 LINE",
"281 60 OFFCURVE",
"378 61 OFFCURVE",
"451 106 CURVE",
"506 51 LINE",
"586 134 LINE",
"532 186 LINE",
"578 263 OFFCURVE",
"578 358 OFFCURVE",
"532 434 CURVE",
"586 488 LINE",
"505 568 LINE",
"451 514 LINE",
"377 560 OFFCURVE",
"282 560 OFFCURVE",
"205 512 CURVE",
"151 569 LINE",
"71 485 LINE",
"124 433 LINE",
"80 359 OFFCURVE",
"79 263 OFFCURVE",
"124 187 CURVE",
"70 134 LINE",
"149 51 LINE"
);
},
{
closed = 1;
nodes = (
"192 266 OFFCURVE",
"192 350 OFFCURVE",
"239 397 CURVE SMOOTH",
"289 447 OFFCURVE",
"365 447 OFFCURVE",
"415 398 CURVE SMOOTH",
"467 347 OFFCURVE",
"464 272 OFFCURVE",
"416 222 CURVE SMOOTH",
"369 173 OFFCURVE",
"288 172 OFFCURVE",
"237 222 CURVE SMOOTH"
);
}
);
width = 657;
}
);
note = currency;
unicode = 00A4;
},
{
color = 1;
glyphname = dollar;
lastChange = "2020-06-16 10:24:20 +0000";
layers = (
{
components = (
{
name = S;
}
);
layerId = "F91D9E91-C1BC-4259-B0D8-112C0CBA2B8E";
paths = (
{
closed = 1;
nodes = (
"294 -112 LINE",
"294 0 LINE",
"284 0 LINE",
"284 -112 LINE"
);
},
{
closed = 1;
nodes = (
"287 697 LINE",
"287 808 LINE",
"277 808 LINE",
"277 697 LINE"
);
}
);
width = 542;
},
{
components = (
{
name = S;
}
);
layerId = "957254E3-B7AD-4837-9092-D4428001DE8E";
paths = (
{
closed = 1;
nodes = (
"351 -118 LINE",
"351 55 LINE",
"239 55 LINE",
"239 -118 LINE"
);
},
{
closed = 1;
nodes = (
"351 636 LINE",
"351 808 LINE",
"239 808 LINE",
"239 636 LINE"
);
}
);
width = 583;
}
);
leftMetricsKey = S;
note = dollar;
rightKerningGroup = dollar;
rightMetricsKey = S;
unicode = 0024;
},
{
color = 1;
glyphname = euro;
lastChange = "2020-06-16 10:24:20 +0000";
layers = (
{
layerId = "F91D9E91-C1BC-4259-B0D8-112C0CBA2B8E";
paths = (
{
closed = 1;
nodes = (
"494 -5 OFFCURVE",
"556 18 OFFCURVE",
"607 62 CURVE",
"599 69 LINE",
"552 26 OFFCURVE",
"490 5 OFFCURVE",
"412 5 CURVE SMOOTH",
"217 5 OFFCURVE",
"126 151 OFFCURVE",
"126 360 CURVE SMOOTH",
"126 547 OFFCURVE",
"224 692 OFFCURVE",
"421 692 CURVE SMOOTH",
"492 692 OFFCURVE",
"547 676 OFFCURVE",
"590 643 CURVE",
"597 650 LINE",
"553 685 OFFCURVE",
"495 702 OFFCURVE",
"421 702 CURVE SMOOTH",
"220 702 OFFCURVE",
"116 556 OFFCURVE",
"116 362 CURVE SMOOTH",
"116 152 OFFCURVE",
"207 -5 OFFCURVE",
"412 -5 CURVE SMOOTH"
);
},
{
closed = 1;
nodes = (
"512 273 LINE",
"513 283 LINE",
"49 283 LINE",
"49 273 LINE"
);
},
{
closed = 1;
nodes = (
"512 433 LINE",
"513 443 LINE",
"49 443 LINE",
"49 433 LINE"
);
}
);
width = 654;
},
{
layerId = "957254E3-B7AD-4837-9092-D4428001DE8E";
paths = (
{
closed = 1;
nodes = (
"538 -11 OFFCURVE",
"613 10 OFFCURVE",
"666 52 CURVE",
"585 183 LINE",
"555 158 OFFCURVE",
"513 138 OFFCURVE",
"453 138 CURVE SMOOTH",
"331 138 OFFCURVE",
"259 227 OFFCURVE",
"259 346 CURVE SMOOTH",
"259 470 OFFCURVE",
"329 560 OFFCURVE",
"451 560 CURVE SMOOTH",
"513 560 OFFCURVE",
"556 539 OFFCURVE",
"587 511 CURVE",
"669 642 LINE",
"616 684 OFFCURVE",
"545 708 OFFCURVE",
"451 708 CURVE SMOOTH",
"238 708 OFFCURVE",
"105 558 OFFCURVE",
"105 345 CURVE SMOOTH",
"105 137 OFFCURVE",
"242 -11 OFFCURVE",
"453 -11 CURVE SMOOTH"
);
},
{
closed = 1;
nodes = (
"522 228 LINE",
"525 328 LINE",
"63 328 LINE",
"62 228 LINE"
);
},
{
closed = 1;
nodes = (
"525 375 LINE",
"526 475 LINE",
"65 475 LINE",
"65 375 LINE"
);
}
);
width = 721;
}
);
note = Euro;
unicode = 20AC;
},
{
color = 1;
glyphname = florin;
lastChange = "2020-06-16 10:24:20 +0000";
layers = (
{
layerId = "F91D9E91-C1BC-4259-B0D8-112C0CBA2B8E";
paths = (
{
closed = 1;
nodes = (
"156 -233 OFFCURVE",
"212 -180 OFFCURVE",
"212 -68 CURVE SMOOTH",
"212 483 LINE",
"367 483 LINE",
"367 493 LINE",
"212 493 LINE",
"212 559 LINE SMOOTH",
"212 641 OFFCURVE",
"250 692 OFFCURVE",
"314 692 CURVE SMOOTH",
"345 692 OFFCURVE",
"378 680 OFFCURVE",
"401 660 CURVE",
"408 668 LINE",
"383 689 OFFCURVE",
"347 702 OFFCURVE",
"314 702 CURVE SMOOTH",
"244 702 OFFCURVE",
"201 647 OFFCURVE",
"201 559 CURVE SMOOTH",
"201 493 LINE",
"119 493 LINE",
"119 483 LINE",
"201 483 LINE",
"201 -68 LINE SMOOTH",
"201 -175 OFFCURVE",
"151 -223 OFFCURVE",
"40 -223 CURVE",
"40 -233 LINE"
);
}
);
width = 450;
},
{
layerId = "957254E3-B7AD-4837-9092-D4428001DE8E";
paths = (
{
closed = 1;
nodes = (
"206 -210 OFFCURVE",
"297 -141 OFFCURVE",
"297 25 CURVE SMOOTH",
"297 381 LINE",
"398 381 LINE",
"398 493 LINE",
"297 493 LINE",
"297 554 LINE SMOOTH",
"297 586 OFFCURVE",
"317 591 OFFCURVE",
"328 591 CURVE SMOOTH",
"348 591 OFFCURVE",
"362 581 OFFCURVE",
"377 564 CURVE",
"458 660 LINE",
"425 697 OFFCURVE",
"380 718 OFFCURVE",
"318 718 CURVE SMOOTH",
"223 718 OFFCURVE",
"170 647 OFFCURVE",
"170 554 CURVE SMOOTH",
"170 493 LINE",
"81 493 LINE",
"81 381 LINE",
"170 381 LINE",
"170 38 LINE SMOOTH",
"170 -68 OFFCURVE",
"146 -96 OFFCURVE",
"53 -96 CURVE",
"53 -210 LINE"
);
}
);
width = 500;
}
);
leftKerningGroup = florin;
note = florin;
rightKerningGroup = florin;
unicode = 0192;
},
{
color = 1;
glyphname = hryvnia;
lastChange = "2020-06-16 10:24:20 +0000";
layers = (
{
layerId = "F91D9E91-C1BC-4259-B0D8-112C0CBA2B8E";
paths = (
{
closed = 1;
nodes = (
"442 -5 OFFCURVE",
"525 63 OFFCURVE",
"544 173 CURVE",
"534 175 LINE",
"516 69 OFFCURVE",
"437 5 OFFCURVE",
"325 5 CURVE SMOOTH",
"211 5 OFFCURVE",
"129 79 OFFCURVE",
"129 180 CURVE SMOOTH",
"129 228 OFFCURVE",
"147 263 OFFCURVE",
"175 289 CURVE",
"161 289 LINE",
"135 262 OFFCURVE",
"119 227 OFFCURVE",
"119 180 CURVE SMOOTH",
"119 73 OFFCURVE",
"206 -5 OFFCURVE",
"325 -5 CURVE SMOOTH"
);
},
{
closed = 1;
nodes = (
"574 285 LINE",
"574 293 LINE",
"54 293 LINE",
"54 285 LINE"
);
},
{
closed = 1;
nodes = (
"574 402 LINE",
"574 411 LINE",
"54 411 LINE",
"54 402 LINE"
);
},
{
closed = 1;
nodes = (
"420 407 LINE",
"470 435 OFFCURVE",
"508 474 OFFCURVE",
"508 538 CURVE SMOOTH",
"508 632 OFFCURVE",
"432 702 OFFCURVE",
"331 702 CURVE SMOOTH",
"246 702 OFFCURVE",
"189 671 OFFCURVE",
"148 600 CURVE",
"156 594 LINE",
"197 663 OFFCURVE",
"249 692 OFFCURVE",
"331 692 CURVE SMOOTH",
"427 692 OFFCURVE",
"498 626 OFFCURVE",
"498 538 CURVE SMOOTH",
"498 473 OFFCURVE",
"457 436 OFFCURVE",
"402 407 CURVE"
);
}
);
width = 631;
},
{
layerId = "957254E3-B7AD-4837-9092-D4428001DE8E";
paths = (
{
closed = 1;
nodes = (
"473 -9 OFFCURVE",
"590 47 OFFCURVE",
"629 162 CURVE",
"477 210 LINE",
"459 151 OFFCURVE",
"409 131 OFFCURVE",
"356 131 CURVE SMOOTH",
"293 131 OFFCURVE",
"267 156 OFFCURVE",
"267 184 CURVE SMOOTH",
"267 218 OFFCURVE",
"299 262 OFFCURVE",
"368 292 CURVE",
"160 292 LINE",
"130 249 OFFCURVE",
"115 206 OFFCURVE",
"115 170 CURVE SMOOTH",
"115 73 OFFCURVE",
"211 -9 OFFCURVE",
"359 -9 CURVE SMOOTH"
);
},
{
closed = 1;
nodes = (
"677 250 LINE",
"677 348 LINE",
"66 348 LINE",
"66 250 LINE"
);
},
{
closed = 1;
nodes = (
"677 397 LINE",
"677 496 LINE",
"66 496 LINE",
"66 397 LINE"
);
},
{
closed = 1;
nodes = (
"553 444 LINE",
"573 482 OFFCURVE",
"578 521 OFFCURVE",
"578 544 CURVE SMOOTH",
"578 634 OFFCURVE",
"493 708 OFFCURVE",
"374 708 CURVE SMOOTH",
"295 708 OFFCURVE",
"201 675 OFFCURVE",
"150 596 CURVE",
"280 516 LINE",
"301 549 OFFCURVE",
"335 569 OFFCURVE",
"366 569 CURVE SMOOTH",
"403 569 OFFCURVE",
"432 549 OFFCURVE",
"432 516 CURVE SMOOTH",
"432 483 OFFCURVE",
"400 461 OFFCURVE",
"356 444 CURVE"
);
}
);
width = 742;
}
);
note = uni20B4;
unicode = 20B4;
},
{
color = 1;
glyphname = peso;
lastChange = "2020-06-19 15:21:51 +0000";
layers = (
{
layerId = "F91D9E91-C1BC-4259-B0D8-112C0CBA2B8E";
paths = (
{
closed = 1;
nodes = (
"126 0 LINE",
"126 321 LINE",
"281 321 LINE SMOOTH",
"422 321 OFFCURVE",
"503 389 OFFCURVE",
"503 508 CURVE SMOOTH",
"503 626 OFFCURVE",
"419 697 OFFCURVE",
"281 697 CURVE SMOOTH",
"116 697 LINE",
"116 0 LINE"
);
},
{
closed = 1;
nodes = (
"120 506 LINE",
"120 516 LINE",
"42 516 LINE",
"42 506 LINE"
);
},
{
closed = 1;
nodes = (
"126 687 LINE",
"281 687 LINE SMOOTH",
"414 687 OFFCURVE",
"493 620 OFFCURVE",
"493 508 CURVE SMOOTH",
"493 395 OFFCURVE",
"417 331 OFFCURVE",
"281 331 CURVE SMOOTH",
"126 331 LINE"
);
},
{
closed = 1;
nodes = (
"559 506 LINE",
"559 516 LINE",
"499 516 LINE",
"499 506 LINE"
);
}
);
width = 601;
},
{
layerId = "957254E3-B7AD-4837-9092-D4428001DE8E";
paths = (
{
closed = 1;
nodes = (
"267 0 LINE",
"267 280 LINE",
"356 280 LINE SMOOTH",
"513 280 OFFCURVE",
"597 369 OFFCURVE",
"597 489 CURVE SMOOTH",
"597 611 OFFCURVE",
"538 697 OFFCURVE",
"356 697 CURVE SMOOTH",
"111 697 LINE",
"111 0 LINE"
);
},
{
closed = 1;
nodes = (
"189 434 LINE",
"189 546 LINE",
"57 546 LINE",
"57 434 LINE"
);
},
{
closed = 1;
nodes = (
"267 550 LINE",
"355 550 LINE SMOOTH",
"421 550 OFFCURVE",
"440 534 OFFCURVE",
"440 489 CURVE SMOOTH",
"440 443 OFFCURVE",
"419 427 OFFCURVE",
"355 427 CURVE SMOOTH",
"267 427 LINE"
);
},
{
closed = 1;
nodes = (
"648 434 LINE",
"648 546 LINE",
"550 546 LINE",
"550 434 LINE"
);
}
);
width = 685;
}
);
note = uni20B1;
unicode = 20B1;
},
